<?xml version="1.0" encoding="UTF-8" standalone="no"?>
<svg width="109px" height="85px" viewBox="0 0 109 85" version="1.1" xmlns="http://www.w3.org/2000/svg" xmlns:xlink="http://www.w3.org/1999/xlink">
    <!-- Generator: Sketch 49.1 (51147) - http://www.bohemiancoding.com/sketch -->
    <title>Group 19</title>
    <desc>Created with Sketch.</desc>
    <defs>
        <linearGradient x1="126.664402%" y1="146.704102%" x2="0%" y2="0%" id="linearGradient-1">
            <stop stop-color="#34A853" offset="0%"></stop>
            <stop stop-color="#97D48D" offset="100%"></stop>
        </linearGradient>
    </defs>
    <g id="Page-1" stroke="none" stroke-width="1" fill="none" fill-rule="evenodd">
        <g id="Pixel" transform="translate(-1044.000000, -3314.000000)">
            <g id="Group-19" transform="translate(1044.000000, 3313.000000)">
                <path d="M77.0791102,93 C100.318761,93 117.262765,78.1299559 85.7034323,50 C54.1440997,21.8700441 100.318761,7 77.0791102,7 C53.8394594,7 35,26.2517558 35,50 C35,73.7482442 53.8394594,93 77.0791102,93 Z" id="Oval-2-Copy-8" fill="url(#linearGradient-1)" opacity="0.0801072761" transform="translate(69.000000, 50.000000) rotate(-117.000000) translate(-69.000000, -50.000000) "></path>
                <g id="syringe-(1)" transform="translate(0.000000, 1.000000)" fill-rule="nonzero">
                    <path d="M61.165668,61.2001973 C60.6276211,60.6671426 59.1682383,59.0743574 58.0345957,56.472041 L58.0343184,56.4723184 C57.3573223,54.8437559 55.7516406,53.6983262 53.8780449,53.6983262 C52.0044492,53.6983262 50.3986289,54.8436172 49.7216328,56.4723184 L49.7214941,56.472041 C48.3049609,59.7237578 46.3782539,61.4012715 46.3782539,61.4012715 L46.3788086,61.4012715 C45.458166,62.2252598 44.8781016,63.4222754 44.8781016,64.7550508 C44.8781016,67.2403281 46.8927266,69.2549531 49.3780039,69.2549531 C49.7833418,69.2549531 50.1756445,69.2004551 50.5492266,69.1000566 C51.4786055,68.9892578 52.7959883,68.8597383 53.8780449,68.8597383 C54.9678672,68.8597383 56.3070215,68.9910605 57.2456914,69.1024141 C57.6166387,69.2012871 58.006168,69.2548145 58.4081777,69.2548145 C60.8934551,69.2548145 62.9080801,67.2401895 62.9080801,64.7549121 C62.9082187,63.3091191 62.2255371,62.0234922 61.165668,61.2001973 Z" id="Shape" fill="#A86B38"></path>
                    <g id="Group" transform="translate(47.980469, 53.666016)" fill="#8C4A14">
                        <path d="M13.1851992,7.53418164 C12.6471523,7.0014043 11.1877695,5.40848047 10.054127,2.80602539 L10.0538496,2.80644141 C9.37685352,1.17787891 7.77117187,0.0324492187 5.89757617,0.0324492187 C5.35328906,0.0324492187 4.83285352,0.131599609 4.34999805,0.308683594 C5.52940234,0.741201172 6.47833398,1.65088867 6.95869336,2.80644141 L6.9589707,2.80602539 C8.09261328,5.40820313 9.55171875,7.00112695 10.090043,7.53418164 C11.1497734,8.35747656 11.8325937,9.64324219 11.8325937,11.0891738 C11.8325937,13.0943691 10.5207578,14.7925449 8.70887109,15.3741348 C8.90523047,15.3950742 9.09216016,15.416291 9.26536133,15.4368145 C9.63630859,15.5356875 10.0258379,15.5890762 10.4278477,15.5890762 C12.913125,15.5890762 14.92775,13.5744512 14.92775,11.0891738 C14.92775,9.64310352 14.2450684,8.35747656 13.1851992,7.53418164 Z" id="Shape"></path>
                    </g>
                    <ellipse id="Oval" fill="#A86B38" transform="translate(48.227193, 46.969242) rotate(-96.753349) translate(-48.227193, -46.969242) " cx="48.227193" cy="46.9692422" rx="5.5085373" ry="4.08279661"></ellipse>
                    <path d="M52.2802676,46.4871113 C51.9223555,43.4662832 49.8171777,41.2322793 47.5781816,41.4975586 C47.1606406,41.5470645 46.7679219,41.6801895 46.4076523,41.8832051 C47.8221055,42.6364707 48.9342539,44.367373 49.18525,46.4871113 C49.4763223,48.9446543 48.5212891,51.165623 46.949582,52.0515977 C47.5508633,52.3716523 48.2062266,52.5162871 48.874209,52.4372441 C51.1130664,52.1719648 52.638041,49.5079395 52.2802676,46.4871113 Z" id="Shape" fill="#8C4A14"></path>
                    <ellipse id="Oval" fill="#A86B38" transform="translate(41.322077, 55.302348) rotate(-117.323552) translate(-41.322077, -55.302348) " cx="41.3220769" cy="55.3023484" rx="4.03272553" ry="2.98925329"></ellipse>
                    <path d="M43.9790918,53.9317109 C42.9568027,51.9527246 40.9387109,50.9627461 39.4719785,51.7205879 C39.3381602,51.7896465 39.2169609,51.874791 39.1015859,51.9670078 C39.7997988,52.3907891 40.4369961,53.0668145 40.8839355,53.9318496 C41.8130371,55.7302852 41.5968477,57.723 40.4494766,58.6410078 C41.3484863,59.186543 42.3487266,59.3138437 43.1742402,58.8874277 C44.6411113,58.1293086 45.0013809,55.9106973 43.9790918,53.9317109 Z" id="Shape" fill="#8C4A14"></path>
                    <ellipse id="Oval" fill="#A86B38" transform="translate(59.521280, 46.969198) rotate(96.753349) translate(-59.521280, -46.969198) " cx="59.5212796" cy="46.9691977" rx="5.5085373" ry="4.08279661"></ellipse>
                    <path d="M60.1754121,41.4974199 C59.5075684,41.418377 58.8520664,41.5630117 58.2507852,41.8830664 C59.8224922,42.769041 60.7775254,44.9900098 60.4864531,47.4475527 C60.2353184,49.5674297 59.1233086,51.298332 57.7088555,52.051459 C58.069125,52.2546133 58.4618437,52.3875996 58.8793848,52.4371055 C61.1183809,52.7023848 63.2236973,50.4683809 63.5814707,47.4475527 C63.9395215,44.4265859 62.4145469,41.7628379 60.1754121,41.4974199 Z" id="Shape" fill="#8C4A14"></path>
                    <ellipse id="Oval" fill="#A86B38" transform="translate(66.437289, 55.303192) rotate(117.323552) translate(-66.437289, -55.303192) " cx="66.437289" cy="55.303192" rx="4.03272553" ry="2.98925329"></ellipse>
                    <path d="M68.2816152,51.7204492 C67.4559629,51.2937559 66.4557227,51.4211953 65.5568516,51.9668691 C66.7043613,52.884877 66.9204121,54.8774531 65.9913105,56.6760273 C65.5443711,57.5410625 64.9071738,58.2170879 64.2089609,58.6408691 C64.3240586,58.7330859 64.4453965,58.8182305 64.5790762,58.8872891 C66.0458086,59.6451309 68.0637617,58.6550137 69.0861895,56.676166 C70.1088945,54.6967637 69.7484863,52.4781523 68.2816152,51.7204492 Z" id="Shape" fill="#8C4A14"></path>
                    <g id="Group" transform="translate(8.320312, 13.312500)" fill="#D9D9DB">
                        <rect id="Rectangle-path" transform="translate(38.511695, 10.855344) rotate(-135.000000) translate(-38.511695, -10.855344) " x="26.1986517" y="7.96531096" width="24.6260861" height="5.78006566"></rect>
                        <rect id="Rectangle-path" transform="translate(7.276321, 42.090670) rotate(-135.000000) translate(-7.276321, -42.090670) " x="1.90713665" y="37.2747109" width="10.7383697" height="9.63191739"></rect>
                    </g>
                    <g id="Group" transform="translate(13.728516, 28.566406)" fill="#AAAAAA">
                        <rect id="Rectangle-path" transform="translate(40.717558, 3.216935) rotate(45.000000) translate(-40.717558, -3.216935) " x="39.1726299" y="0.32690212" width="3.08985709" height="5.78006566"></rect>
                        <rect id="Rectangle-path" transform="translate(4.571753, 29.538487) rotate(-45.000000) translate(-4.571753, -29.538487) " x="-0.2442059" y="27.9909242" width="9.63191739" height="3.09512657"></rect>
                    </g>
                    <rect id="Rectangle-path" fill="#B5B5BC" transform="translate(53.628702, 17.371471) rotate(-135.000000) translate(-53.628702, -17.371471) " x="48.2595169" y="10.650526" width="10.7383697" height="13.4418906"></rect>
                    <rect id="Rectangle-path" fill="#9A9A9E" transform="translate(56.330674, 20.074717) rotate(-45.000000) translate(-56.330674, -20.074717) " x="49.6097288" y="18.5271536" width="13.4418906" height="3.09512657"></rect>
                    <rect id="Rectangle-path" fill="#65B9E9" transform="translate(31.894740, 39.103508) rotate(-135.000000) translate(-31.894740, -39.103508) " x="23.1116942" y="20.8711047" width="17.5660913" height="36.4648065"></rect>
                    <polygon id="Shape" fill="#0099DF" points="48.8104199 30.2339355 23.0249395 56.019416 25.2135977 58.2080742 50.9989395 32.4227324 38.5774063 20.0009219 38.5774063 20.0009219"></polygon>
                    <rect id="Rectangle-path" fill="#65B9E9" transform="translate(60.412300, 10.590199) rotate(-135.000000) translate(-60.412300, -10.590199) " x="49.9686741" y="7.70016648" width="20.8872509" height="5.78006566"></rect>
                    <rect id="Rectangle-path" fill="#0099DF" transform="translate(66.702883, 16.877764) rotate(45.000000) translate(-66.702883, -16.877764) " x="65.1553194" y="13.9877316" width="3.09512657" height="5.78006566"></rect>
                    <path d="M61.9375156,60.3305859 C61.3904551,59.7800586 60.1146738,58.3405059 59.0987637,56.0084609 C59.0969609,56.0041621 59.0948809,55.9995859 59.0929395,55.9952871 C58.2047461,53.8937148 56.1615547,52.5375039 53.8779062,52.5375039 C51.5935645,52.5375039 49.549541,53.8946855 48.6617637,55.9977832 C48.4954961,56.3701172 48.5309961,56.8192754 48.7929473,57.1685898 C49.042834,57.5018184 49.452332,57.6750195 49.8658516,57.6237109 C50.2793711,57.5718477 50.633123,57.3024082 50.7931504,56.9175937 C51.3131699,55.6669121 52.5239141,54.8587324 53.8777676,54.8587324 C55.2316211,54.8587324 56.4423652,55.6669121 56.9623848,56.9175937 C56.9689023,56.9334023 56.9756973,56.9487949 56.9829082,56.9643262 C58.1865801,59.7144668 59.7366543,61.4181895 60.348752,62.0246016 C60.3817559,62.0571895 60.4167012,62.0878359 60.4535879,62.116541 C61.2757734,62.7552637 61.7473965,63.7169531 61.7473965,64.7549121 C61.7473965,66.5960586 60.2493242,68.0941309 58.4081777,68.0941309 C58.1169668,68.0941309 57.8264492,68.0559961 57.5448066,67.9808359 C57.491418,67.9664141 57.4370586,67.9560137 57.3821445,67.9496348 C56.4165723,67.8352305 55.0248613,67.698916 53.8779062,67.698916 C52.7358047,67.698916 51.3626758,67.8339824 50.4118027,67.9472773 C50.356334,67.9539336 50.3014199,67.9644727 50.2476152,67.9790332 C49.9637539,68.0553027 49.6712949,68.0939922 49.3780039,68.0939922 C47.5368574,68.0939922 46.0387852,66.5959199 46.0387852,64.7547734 C46.0387852,63.8065352 46.4446777,62.8994824 47.1527363,62.2660293 C47.1593926,62.2599277 47.1660488,62.2539648 47.1725664,62.2478633 C47.3194199,62.115709 47.8742461,61.5967988 48.5785605,60.6850312 C48.9704473,60.1777695 48.8768437,59.4487715 48.3694434,59.0568848 C47.8621816,58.6648594 47.1331836,58.7584629 46.7414355,59.266002 C46.1027129,60.0929023 45.6177773,60.5241719 45.6158359,60.5258359 C45.6030781,60.536791 45.5905977,60.5483008 45.5785332,60.5599492 C44.3952461,61.6321602 43.717418,63.1590762 43.717418,64.7549121 C43.717418,67.8762773 46.2566387,70.415498 49.3780039,70.415498 C49.8451895,70.415498 50.311127,70.3576719 50.7644453,70.2432676 C51.6482012,70.1394023 52.8793301,70.0204219 53.8779062,70.0204219 C54.8824453,70.0204219 56.1328496,70.1407891 57.0317207,70.2459023 C57.4817109,70.3587812 57.9443203,70.4156367 58.4083164,70.4156367 C61.5296816,70.4156367 64.0689023,67.876416 64.0689023,64.7550508 C64.0689023,63.0204043 63.2930332,61.4120879 61.9375156,60.3305859 Z" id="Shape" fill="#000000"></path>
                    <path d="M47.4414512,40.344918 C45.9842871,40.5174258 44.7243145,41.4118594 43.8938086,42.8626445 C43.1277852,44.2009668 42.8170215,45.8777871 43.0193437,47.5844219 C43.2213887,49.2907793 43.9153027,50.8487578 44.9729531,51.9708906 C45.9859512,53.045875 47.223459,53.6199766 48.5029844,53.6199766 C48.6716094,53.6199766 48.8409277,53.6101309 49.0108008,53.5900234 C50.4679648,53.4175156 51.7279375,52.523082 52.5584434,51.0722969 C53.3244668,49.7341133 53.6352305,48.057293 53.4329082,46.3507969 C53.000252,42.698873 50.313207,40.0057266 47.4414512,40.344918 Z M50.5436797,49.9188242 C50.0875879,50.7154941 49.4460918,51.2005684 48.7374785,51.2844648 C48.0292812,51.3686387 47.2918242,51.0469199 46.6621152,50.3786602 C45.9435176,49.6159648 45.4684277,48.5266973 45.3243477,47.3112383 C45.1804062,46.0956406 45.3878594,44.92525 45.9082949,44.0158398 C46.3643867,43.2191699 47.0058828,42.7340957 47.7144961,42.6501992 C47.7888242,42.6411855 47.8630137,42.6370254 47.9373418,42.6370254 C49.4320859,42.6370254 50.8633184,44.3941367 51.1274883,46.6235645 C51.2715684,47.8391621 51.0641152,49.0094141 50.5436797,49.9188242 Z" id="Shape" fill="#000000"></path>
                    <path d="M45.6556348,57.0532148 C45.8472793,55.8733945 45.617916,54.5755645 45.0099785,53.3989336 L45.0101172,53.3989336 C44.4021797,52.2221641 43.4764063,51.2841875 42.4032246,50.7576504 C41.2307539,50.1825781 39.9682852,50.1573398 38.9389238,50.6892852 C37.9098398,51.2208145 37.1994238,52.2651523 36.9900293,53.5541074 C36.7983848,54.7339277 37.027748,56.0318965 37.6355469,57.2085273 C38.6406406,59.1539551 40.3970586,60.3095078 42.0858047,60.3093691 C42.6432656,60.3093691 43.1935156,60.1834551 43.7067402,59.9183145 C44.7361016,59.3866465 45.4463789,58.3424473 45.6556348,57.0532148 Z M43.3643594,56.6811582 C43.311248,57.0078691 43.1469219,57.5947285 42.6414629,57.8559863 C41.775457,58.3020937 40.4005254,57.5025117 39.698291,56.1431113 C39.3226289,55.4161934 39.1709219,54.608291 39.2817207,53.9261641 C39.334832,53.5995918 39.4991582,53.0127324 40.0046172,52.7516133 C40.1805918,52.6607832 40.364748,52.6263926 40.5426641,52.6263926 C40.8758926,52.6263926 41.1870723,52.7466211 41.3807969,52.84175 C42.0010762,53.1461348 42.572127,53.7374316 42.9475117,54.4643496 L42.9476504,54.4643496 C43.3231738,55.1912676 43.4751582,55.9993086 43.3643594,56.6811582 Z" id="Shape" fill="#000000"></path>
                    <path d="M60.3120039,40.344918 C57.4405254,40.0058652 54.7533418,42.698873 54.3206855,46.3507969 C54.1183633,48.0571543 54.429127,49.7339746 55.1951504,51.0722969 C56.0257949,52.523082 57.2856289,53.417377 58.742793,53.5900234 C58.9125273,53.6101309 59.0818457,53.6199766 59.2506094,53.6199766 C60.5301348,53.6199766 61.7676426,53.045875 62.7806406,51.9708906 C63.8384297,50.8487578 64.5320664,49.290918 64.73425,47.5842832 C64.9365723,45.8779258 64.6258086,44.2011055 63.8597852,42.8626445 C63.029002,41.411582 61.769168,40.5174258 60.3120039,40.344918 Z M62.4292461,47.3109609 C62.285166,48.5265586 61.8100762,49.6161035 61.0914785,50.3785215 C60.4617695,51.0463652 59.7250059,51.3675293 59.0161152,51.2843262 C58.307502,51.2004297 57.6660059,50.7154941 57.2099141,49.9186855 C56.6893398,49.0092754 56.4818867,47.8390234 56.6258281,46.6234258 C56.889998,44.393998 58.3212305,42.6368867 59.8159746,42.6368867 C59.8901641,42.6368867 59.9644922,42.6410469 60.0388203,42.6500605 C60.7474336,42.733957 61.3889297,43.2188926 61.8450215,44.0157012 C62.3657344,44.9251113 62.5731875,46.095502 62.4292461,47.3109609 Z" id="Shape" fill="#000000"></path>
                    <path d="M68.8145312,50.6891465 C67.7854473,50.1572012 66.5225625,50.1825781 65.3502305,50.7575117 C64.2770488,51.2840488 63.3512754,52.2221641 62.7433379,53.3987949 C61.406541,55.9865508 61.9791172,58.850125 64.0465762,59.9180371 C64.5598008,60.1833164 65.1099121,60.3090918 65.6675117,60.3090918 C67.3561191,60.3090918 69.1126758,59.1535391 70.1177695,57.20825 C70.725707,56.0316191 70.954793,54.7336504 70.7632871,53.5538301 C70.5537539,52.2650137 69.8436152,51.2209531 68.8145312,50.6891465 Z M68.0553027,56.1431113 C67.3530684,57.5027891 65.977998,58.3033418 65.1121309,57.8559863 C64.246541,57.4087695 64.1034316,55.8240273 64.8058047,54.4644883 C65.1811895,53.7375703 65.7525176,53.1461348 66.3726582,52.8418887 C66.5662441,52.7468984 66.8774238,52.6265312 67.210791,52.6265312 C67.3885684,52.6265312 67.5728633,52.6609219 67.7488379,52.751752 C68.2542969,53.0130098 68.4187617,53.5997305 68.4717344,53.9263027 C68.5826719,54.608291 68.4308262,55.4160547 68.0553027,56.1431113 Z" id="Shape" fill="#000000"></path>
                    <path d="M52.6742344,35.7393477 C52.8918105,35.9569238 53.187043,36.0792324 53.4948945,36.0792324 C53.8027461,36.0792324 54.0979785,35.9569238 54.3155547,35.7393477 L58.4033242,31.6515781 C58.8566426,31.1981211 58.8566426,30.4632988 58.4033242,30.0101191 L54.3143066,25.9211016 L62.1636895,18.0717187 L64.930748,20.8387773 C65.1573379,21.0653672 65.4545117,21.1786621 65.7514082,21.1786621 C66.0483047,21.1786621 66.3454785,21.0653672 66.5720684,20.8387773 L70.6598379,16.7510078 C70.8775527,16.533293 70.9998613,16.2381992 70.9998613,15.930209 C70.9998613,15.6223574 70.8775527,15.3272637 70.6598379,15.1094102 L55.8907285,0.340023437 C55.4374102,-0.11315625 54.7024492,-0.11315625 54.2494082,0.340023437 L50.1616387,4.42779297 C49.9439238,4.64550781 49.8216152,4.94087891 49.8216152,5.2485918 C49.8216152,5.55644336 49.9439238,5.85153711 50.1616387,6.06939062 L52.9286973,8.83631055 L50.178418,11.5864512 C49.7250996,12.0399082 49.7250996,12.7747305 50.178418,13.2279102 C50.6315977,13.6809512 51.3665586,13.6812285 51.8197383,13.2279102 L54.5700176,10.4777695 L60.5222305,16.4299824 L52.6728477,24.2793652 L46.7206348,18.3271523 L48.4182559,16.6296699 C48.8715742,16.1762129 48.8715742,15.4413906 48.4182559,14.9883496 C47.9650762,14.5350312 47.2301152,14.5348926 46.7769355,14.9882109 L45.0793145,16.685832 L40.9901582,12.5966758 C40.772582,12.3790996 40.4773496,12.256791 40.169498,12.256791 C39.8616465,12.256791 39.5664141,12.3790996 39.3488379,12.5966758 L35.2610684,16.6844453 C34.80775,17.1379023 34.80775,17.8727246 35.2610684,18.3259043 L36.9362246,20.0007832 L31.3893496,25.5477969 C31.3892109,25.5477969 31.3892109,25.5477969 31.3892109,25.5477969 C31.3890723,25.5479355 31.3890723,25.5479355 31.3889336,25.5480742 L23.2422383,33.6947695 C23.2420996,33.6949082 23.2419609,33.6949082 23.2418223,33.6950469 C23.2416836,33.6951855 23.2415449,33.6953242 23.2415449,33.6953242 L19.169584,37.7674238 C19.169168,37.7678398 19.1686133,37.7682559 19.1681973,37.7686719 C19.1677812,37.7690879 19.1673652,37.7696426 19.1669492,37.7700586 L11.9714043,44.9657422 C11.5180859,45.4191992 11.5180859,46.1540215 11.9714043,46.6072012 L13.5646055,48.2004023 L7.57398047,54.1910273 C7.12066211,54.6444844 7.12066211,55.3793066 7.57398047,55.8324863 L10.5500176,58.8085234 L0.340023437,69.0185176 C-0.113294922,69.4719746 -0.113294922,70.2067969 0.340023437,70.6599766 C0.566613281,70.8865664 0.863787109,70.9998613 1.16068359,70.9998613 C1.45758008,70.9998613 1.75475391,70.8865664 1.98134375,70.6599766 L12.1913379,60.4501211 L15.1675137,63.4262969 C15.3850898,63.643873 15.6803223,63.7661816 15.9881738,63.7661816 C16.2960254,63.7661816 16.5912578,63.643873 16.808834,63.4262969 L22.799459,57.4356719 L24.3926602,59.028873 C24.6102363,59.2464492 24.9054687,59.3687578 25.2133203,59.3687578 C25.5211719,59.3687578 25.8164043,59.2464492 26.0339805,59.028873 L30.2655527,54.7973008 C30.7188711,54.3438438 30.7188711,53.6090215 30.2655527,53.1558418 C29.8122344,52.7026621 29.0772734,52.7026621 28.6242324,53.1558418 L25.2133203,56.5667539 L23.6205352,54.9739688 C23.6203965,54.9738301 23.6201191,54.9735527 23.6199805,54.9734141 L16.0263086,47.3797422 C16.0260313,47.3794648 16.0257539,47.3791875 16.0253379,47.3789102 L14.4331074,45.7864023 L19.9884414,40.2310684 L23.5295664,43.7721934 C23.7561562,43.9989219 24.0533301,44.1122168 24.3502266,44.1122168 C24.6472617,44.1122168 24.9442969,43.9989219 25.1708867,43.772332 C25.6242051,43.318875 25.6242051,42.5840527 25.1708867,42.130873 L21.6297617,38.5896094 L24.0619277,36.1574434 L27.6031914,39.6985684 C27.8297812,39.9251582 28.1269551,40.0384531 28.4238516,40.0384531 C28.7208867,40.0384531 29.0179219,39.9251582 29.2445117,39.6985684 C29.6978301,39.2451113 29.6978301,38.5102891 29.2445117,38.0571094 L25.7033867,34.5159844 L28.1354141,32.0838184 L31.6766777,35.625082 C31.9032676,35.8516719 32.2004414,35.9649668 32.4973379,35.9649668 C32.794373,35.9649668 33.0914082,35.8516719 33.317998,35.625082 C33.7713164,35.171625 33.7713164,34.4368027 33.317998,33.983623 L29.776873,30.442498 L32.2090391,28.010332 L35.7501641,31.551457 C35.9767539,31.7780469 36.2739277,31.8913418 36.5708242,31.8913418 C36.8678594,31.8913418 37.1648945,31.7780469 37.3914844,31.551457 C37.8448027,31.098 37.8448027,30.3631777 37.3914844,29.909998 L33.8503594,26.368873 L38.5767129,21.6423809 L49.3569258,32.4225938 L32.0501211,49.7299531 C31.5968027,50.1834102 31.5968027,50.9182324 32.0501211,51.3714121 C32.5034395,51.8245918 33.2384004,51.8245918 33.6914414,51.3714121 L50.9989395,34.0639141 L52.6742344,35.7393477 Z M55.0700684,2.80214258 L68.1979961,15.9299316 L65.7515469,18.3763809 L63.1335605,15.7583945 C63.093623,15.7005684 63.0491094,15.6455156 62.9986328,15.5951777 L55.4049609,8.00136719 C55.3540684,7.95033594 55.2990156,7.90609961 55.2417441,7.86643945 L52.6237578,5.24845312 L55.0700684,2.80214258 Z M15.9880352,60.9641777 L13.0122754,57.988418 C13.0121367,57.988418 13.011998,57.9882793 13.011998,57.9882793 L13.011582,57.9878633 L10.0360996,55.0121035 L15.2060645,49.8421387 L21.1582773,55.7942129 L15.9880352,60.9641777 Z M40.1693594,15.0587949 L55.9410664,30.8307793 L53.4947559,33.2772285 L51.8209863,31.603459 C51.8205703,31.6029043 51.8200156,31.6023496 51.8195996,31.6019336 L39.3977891,19.180123 C39.397373,19.179707 39.3966797,19.1791523 39.3962637,19.1787363 L37.7227715,17.5052441 L40.1693594,15.0587949 Z" id="Shape" fill="#000000"></path>
                </g>
            </g>
        </g>
    </g>
</svg>