<?xml version="1.0" encoding="UTF-8" standalone="no"?>
<svg width="243px" height="49px" viewBox="0 0 243 49" version="1.1" xmlns="http://www.w3.org/2000/svg" xmlns:xlink="http://www.w3.org/1999/xlink">
    <!-- Generator: Sketch 49.1 (51147) - http://www.bohemiancoding.com/sketch -->
    <title>Group 5</title>
    <desc>Created with Sketch.</desc>
    <defs></defs>
    <g id="Page-1" stroke="none" stroke-width="1" fill="none" fill-rule="evenodd">
        <g id="Pixel-Copy-2" transform="translate(-182.000000, -762.000000)">
            <g id="Group-5" transform="translate(182.000000, 762.000000)">
                <g id="Group-4" transform="translate(72.000000, 4.000000)" fill="#646464">
                    <text id="100%-Money-Guarantee" font-family="Roboto-Black, Roboto" font-size="16" font-weight="700">
                        <tspan x="0" y="15">100% Money Guarantee</tspan>
                    </text>
                    <text id="30-days-money-back" font-family="Roboto-Regular, Roboto" font-size="14" font-weight="normal">
                        <tspan x="0" y="37">30 days money back</tspan>
                    </text>
                </g>
                <g id="money-back" fill-rule="nonzero">
                    <path d="M6.5,18.484375 L45.5,18.484375 L46.678125,14.665625 C47.1046875,13.2640625 46.3328125,11.8015625 44.93125,11.375 C44.8703125,11.3546875 44.809375,11.334375 44.7484375,11.334375 L40.21875,10.278125 C40.1578125,10.2578125 40.1171875,10.2171875 40.1171875,10.1765625 L39.08125,5.6265625 C38.75625,4.2046875 37.334375,3.3109375 35.9125,3.6359375 C35.8515625,3.65625 35.790625,3.6765625 35.7296875,3.6765625 L31.28125,5.0578125 C31.2203125,5.078125 31.159375,5.0578125 31.1390625,5.0171875 L27.9703125,1.6046875 C26.975,0.528125 25.309375,0.4671875 24.2328125,1.4625 C24.1921875,1.503125 24.1515625,1.54375 24.090625,1.6046875 L20.921875,5.0171875 C20.88125,5.0578125 20.8203125,5.078125 20.7796875,5.0578125 L16.33125,3.6765625 C14.9296875,3.25 13.4671875,4.021875 13.040625,5.4234375 C13.0203125,5.484375 13,5.5453125 13,5.60625 L11.9640625,10.15625 C11.94375,10.2171875 11.903125,10.2578125 11.8625,10.2578125 L7.3125,11.29375 C5.890625,11.61875 4.996875,13.040625 5.321875,14.4625 C5.3421875,14.5234375 5.3625,14.584375 5.3625,14.6453125 L6.5,18.484375 Z" id="Shape" fill="#F9828B"></path>
                    <path d="M45.5203125,30.265625 L6.5,30.265625 L5.321875,34.084375 C4.8953125,35.4859375 5.6671875,36.9484375 7.06875,37.375 C7.1296875,37.3953125 7.190625,37.415625 7.2515625,37.415625 L11.8015625,38.4515625 C11.8625,38.471875 11.903125,38.5125 11.903125,38.553125 L12.9390625,43.103125 C13.2640625,44.525 14.6859375,45.41875 16.1078125,45.09375 C16.16875,45.0734375 16.2296875,45.053125 16.290625,45.053125 L20.7390625,43.671875 C20.8,43.6515625 20.8609375,43.671875 20.88125,43.7125 L24.05,47.125 C25.0453125,48.2015625 26.7109375,48.2625 27.7875,47.2671875 C27.828125,47.2265625 27.8890625,47.1859375 27.9296875,47.125 L31.0984375,43.7125 C31.1390625,43.671875 31.2,43.6515625 31.240625,43.671875 L35.6890625,45.053125 C37.090625,45.4796875 38.553125,44.7078125 38.9796875,43.30625 C39,43.2453125 39.0203125,43.184375 39.0203125,43.1234375 L40.05625,38.5734375 C40.0765625,38.5125 40.1171875,38.471875 40.1578125,38.471875 L44.7078125,37.4359375 C46.1296875,37.1109375 47.0234375,35.6890625 46.6984375,34.2671875 C46.678125,34.20625 46.6578125,34.1453125 46.6578125,34.084375 L45.5203125,30.265625 Z" id="Shape" fill="#F9828B"></path>
                    <path d="M9.0796875,18.3828125 C9.1,18.4234375 9.1,18.44375 9.1,18.484375 L42.9,18.484375 C42.9,18.44375 42.9203125,18.4234375 42.9203125,18.3828125 L44.3015625,13.934375 C44.321875,13.853125 44.28125,13.771875 44.2,13.7515625 C44.2,13.7515625 44.2,13.7515625 44.1796875,13.7515625 L39.6296875,12.715625 C38.634375,12.4921875 37.8625,11.7203125 37.6390625,10.725 L36.603125,6.175 C36.5828125,6.09375 36.5015625,6.053125 36.4203125,6.0734375 C36.4203125,6.0734375 36.4203125,6.0734375 36.4,6.0734375 L31.9515625,7.4546875 C30.9765625,7.7390625 29.940625,7.475 29.25,6.7234375 L26.08125,3.3109375 C26.0203125,3.25 25.9390625,3.25 25.878125,3.3109375 C25.878125,3.3109375 25.878125,3.3109375 25.878125,3.3109375 L22.709375,6.7234375 C22.01875,7.4546875 20.9625,7.7390625 20.0078125,7.4546875 L15.559375,6.0734375 C15.478125,6.053125 15.396875,6.09375 15.3765625,6.175 C15.3765625,6.175 15.3765625,6.175 15.3765625,6.1953125 L14.340625,10.7453125 C14.1171875,11.740625 13.3453125,12.5125 12.35,12.7359375 L7.8,13.771875 C7.71875,13.7921875 7.678125,13.8734375 7.6984375,13.9546875 C7.6984375,13.9546875 7.6984375,13.9546875 7.6984375,13.975 L9.0796875,18.3828125 Z" id="Shape" fill="#F45D64"></path>
                    <path d="M42.940625,30.3671875 C42.9203125,30.3265625 42.9203125,30.30625 42.9203125,30.265625 L9.1203125,30.265625 C9.1203125,30.30625 9.1,30.3265625 9.1,30.3671875 L7.71875,34.815625 C7.6984375,34.896875 7.7390625,34.978125 7.8203125,34.9984375 C7.8203125,34.9984375 7.8203125,34.9984375 7.840625,34.9984375 L12.390625,36.034375 C13.3859375,36.2578125 14.1578125,37.0296875 14.38125,38.025 L15.4171875,42.575 C15.4375,42.65625 15.51875,42.696875 15.6,42.6765625 C15.6,42.6765625 15.6,42.6765625 15.6203125,42.6765625 L20.06875,41.2953125 C21.04375,40.990625 22.0796875,41.275 22.7703125,42.0265625 L25.9390625,45.4390625 C26,45.5 26.08125,45.5 26.1421875,45.4390625 C26.1421875,45.4390625 26.1421875,45.4390625 26.1421875,45.4390625 L29.3109375,42.0265625 C30.0015625,41.2953125 31.0578125,41.0109375 32.0125,41.2953125 L36.4609375,42.6765625 C36.5421875,42.696875 36.6234375,42.65625 36.64375,42.575 C36.64375,42.575 36.64375,42.575 36.64375,42.5546875 L37.6796875,38.0046875 C37.903125,37.009375 38.675,36.2375 39.6703125,36.0140625 L44.2203125,34.978125 C44.3015625,34.9578125 44.3421875,34.8765625 44.321875,34.7953125 C44.321875,34.7953125 44.321875,34.7953125 44.321875,34.775 L42.940625,30.3671875 Z" id="Shape" fill="#F45D64"></path>
                    <path d="M1.625,18.484375 L50.3953125,18.484375 C51.0046875,18.484375 51.4921875,18.971875 51.4921875,19.58125 L51.4921875,29.1484375 C51.4921875,29.7578125 51.0046875,30.2453125 50.3953125,30.2453125 L1.625,30.2453125 C1.015625,30.2453125 0.528125,29.7578125 0.528125,29.1484375 L0.528125,19.58125 C0.528125,18.971875 1.015625,18.484375 1.625,18.484375 Z" id="Shape" fill="#FCD770"></path>
                    <polygon id="Shape" fill="#FFCD29" points="1.625 18.484375 5.6875 15.8234375 6.5 18.484375"></polygon>
                    <polygon id="Shape" fill="#FFCD29" points="50.3953125 18.484375 46.3328125 15.8234375 45.5203125 18.484375"></polygon>
                    <path d="M7.39375,40.8078125 L7.028125,40.8078125 L7.028125,40.4421875 C7.028125,40.1578125 6.8046875,39.934375 6.5203125,39.934375 C6.2359375,39.934375 6.0125,40.1578125 6.0125,40.4421875 L6.0125,40.8078125 L5.646875,40.8078125 C5.3625,40.8078125 5.1390625,41.03125 5.1390625,41.315625 C5.1390625,41.6 5.3625,41.8234375 5.646875,41.8234375 L6.0125,41.8234375 L6.0125,42.1890625 C6.0125,42.4734375 6.2359375,42.696875 6.5203125,42.696875 C6.8046875,42.696875 7.028125,42.4734375 7.028125,42.1890625 C7.028125,42.1890625 7.028125,42.1890625 7.028125,42.1890625 L7.028125,41.8234375 L7.39375,41.8234375 C7.678125,41.8234375 7.9015625,41.6 7.9015625,41.315625 C7.9015625,41.03125 7.678125,40.8078125 7.39375,40.8078125 Z" id="Shape" fill="#60BAE2"></path>
                    <path d="M44.809375,6.6015625 C44.809375,6.5609375 44.7890625,6.540625 44.7890625,6.5 C44.76875,6.4796875 44.76875,6.4390625 44.7484375,6.41875 C44.728125,6.3984375 44.7078125,6.3578125 44.6875,6.3375 C44.484375,6.1546875 44.1796875,6.1546875 43.9765625,6.3375 C43.95625,6.3578125 43.9359375,6.378125 43.915625,6.41875 C43.875,6.4796875 43.8546875,6.540625 43.834375,6.6015625 C43.8140625,6.6625 43.8140625,6.74375 43.834375,6.8046875 C43.834375,6.8453125 43.8546875,6.865625 43.8546875,6.90625 C43.875,6.946875 43.875,6.9671875 43.8953125,6.9875 C43.915625,7.0078125 43.9359375,7.0484375 43.95625,7.06875 C44.159375,7.271875 44.4640625,7.271875 44.6671875,7.06875 C44.6671875,7.06875 44.6671875,7.06875 44.6671875,7.06875 C44.6875,7.0484375 44.7078125,7.028125 44.728125,6.9875 C44.7484375,6.9671875 44.76875,6.9265625 44.76875,6.90625 C44.7890625,6.8859375 44.7890625,6.8453125 44.7890625,6.8046875 C44.8296875,6.7234375 44.8296875,6.6625 44.809375,6.6015625 Z" id="Shape" fill="#F45D64"></path>
                    <path d="M10.2984375,44.8703125 C10.2984375,44.8296875 10.278125,44.809375 10.278125,44.76875 C10.2578125,44.7484375 10.2578125,44.7078125 10.2375,44.6875 C10.2171875,44.6671875 10.196875,44.6265625 10.1765625,44.60625 C9.9734375,44.4234375 9.66875,44.4234375 9.465625,44.60625 C9.4453125,44.6265625 9.425,44.646875 9.4046875,44.6875 C9.3640625,44.7484375 9.34375,44.809375 9.3234375,44.8703125 C9.303125,44.93125 9.303125,45.0125 9.3234375,45.0734375 C9.3234375,45.1140625 9.34375,45.134375 9.34375,45.175 C9.3640625,45.215625 9.3640625,45.2359375 9.384375,45.25625 C9.4046875,45.2765625 9.425,45.3171875 9.4453125,45.3375 C9.6484375,45.540625 9.953125,45.540625 10.15625,45.3375 C10.15625,45.3375 10.15625,45.3375 10.15625,45.3375 C10.1765625,45.3171875 10.196875,45.296875 10.2171875,45.25625 C10.2375,45.2359375 10.2578125,45.1953125 10.2578125,45.175 C10.278125,45.1546875 10.278125,45.1140625 10.278125,45.0734375 C10.31875,45.0125 10.31875,44.9515625 10.2984375,44.8703125 Z" id="Shape" fill="#6DCC6D"></path>
                    <path d="M43.63125,1.7671875 C42.7984375,1.6046875 42.16875,0.9546875 42.00625,0.1421875 C42.00625,0.121875 41.9859375,0.1015625 41.965625,0.1015625 C41.9453125,0.1015625 41.9453125,0.121875 41.925,0.1421875 C41.7625,0.975 41.1125,1.6046875 40.3,1.7671875 C40.2796875,1.7671875 40.259375,1.7875 40.259375,1.8078125 C40.259375,1.828125 40.2796875,1.828125 40.3,1.8484375 C41.1328125,2.0109375 41.7625,2.6609375 41.925,3.4734375 C41.925,3.49375 41.9453125,3.5140625 41.965625,3.5140625 C41.9859375,3.5140625 41.9859375,3.49375 42.00625,3.4734375 C42.16875,2.640625 42.81875,2.0109375 43.63125,1.8484375 C43.6515625,1.8484375 43.671875,1.828125 43.671875,1.8078125 C43.671875,1.7671875 43.6515625,1.7671875 43.63125,1.7671875 Z" id="Shape" fill="#FFCD29"></path>
                    <path d="M50.3953125,30.7734375 L1.625,30.7734375 C0.73125,30.7734375 0.0203125,30.0625 0.0203125,29.16875 L0.0203125,19.6015625 C0.0203125,18.7078125 0.73125,17.996875 1.625,17.996875 L50.3953125,17.996875 C51.2890625,17.996875 52,18.7078125 52,19.6015625 L52,29.16875 C52,30.0421875 51.2890625,30.7734375 50.3953125,30.7734375 Z M1.625,18.9921875 C1.3,18.9921875 1.0359375,19.25625 1.0359375,19.58125 L1.0359375,29.1484375 C1.0359375,29.4734375 1.3,29.7375 1.625,29.7375 L50.3953125,29.7375 C50.7203125,29.7375 50.984375,29.4734375 50.984375,29.1484375 L50.984375,19.58125 C50.984375,19.25625 50.7203125,18.9921875 50.3953125,18.9921875 L1.625,18.9921875 Z" id="Shape" fill="#231F20"></path>
                    <path d="M45.5203125,18.9921875 L6.5,18.9921875 C6.2765625,18.9921875 6.0734375,18.85 6.0125,18.6265625 L4.834375,14.8078125 C4.3265625,13.1421875 5.2609375,11.375 6.9265625,10.8671875 C7.0078125,10.846875 7.06875,10.8265625 7.15,10.80625 L11.4765625,9.83125 L12.4515625,5.5046875 C12.8375,3.81875 14.5234375,2.7421875 16.2296875,3.128125 C16.3109375,3.1484375 16.371875,3.16875 16.453125,3.1890625 L20.678125,4.4890625 L23.7046875,1.2390625 C24.8828125,-0.040625 26.8734375,-0.1015625 28.153125,1.0765625 C28.2140625,1.1375 28.2546875,1.178125 28.315625,1.2390625 L31.3421875,4.4890625 L35.5875,3.1890625 C37.253125,2.68125 39.0203125,3.615625 39.528125,5.28125 C39.5484375,5.3625 39.56875,5.4234375 39.5890625,5.5046875 L40.5640625,9.83125 L44.890625,10.80625 C46.5765625,11.1921875 47.653125,12.878125 47.2671875,14.584375 C47.246875,14.665625 47.2265625,14.7265625 47.20625,14.8078125 L46.028125,18.6265625 C45.9265625,18.85 45.74375,18.9921875 45.5203125,18.9921875 Z M6.8859375,17.9765625 L45.134375,17.9765625 L46.2109375,14.503125 C46.55625,13.3859375 45.9265625,12.1875 44.7890625,11.8421875 C44.7484375,11.821875 44.6875,11.821875 44.646875,11.8015625 L40.096875,10.765625 C39.853125,10.7046875 39.6703125,10.521875 39.609375,10.278125 L38.5734375,5.728125 C38.309375,4.5703125 37.171875,3.859375 36.0140625,4.1234375 C35.953125,4.14375 35.9125,4.14375 35.871875,4.1640625 L31.4234375,5.5453125 C31.1796875,5.6265625 30.915625,5.5453125 30.753125,5.3625 L27.584375,1.95 C26.771875,1.096875 25.43125,1.0359375 24.578125,1.8484375 C24.5375,1.8890625 24.496875,1.909375 24.4765625,1.95 L21.3078125,5.3625 C21.1453125,5.5453125 20.88125,5.60625 20.6375,5.5453125 L16.1890625,4.1640625 C15.071875,3.81875 13.8734375,4.4484375 13.528125,5.5859375 C13.5078125,5.6265625 13.5078125,5.6875 13.4875,5.728125 L12.4515625,10.278125 C12.390625,10.521875 12.2078125,10.7046875 11.9640625,10.765625 L7.4140625,11.8015625 C6.25625,12.065625 5.5453125,13.203125 5.809375,14.3609375 C5.8296875,14.421875 5.8296875,14.4625 5.85,14.503125 L6.8859375,17.9765625 Z" id="Shape" fill="#231F20"></path>
                    <path d="M26.0203125,48.4859375 C25.146875,48.4859375 24.3140625,48.1203125 23.725,47.490625 L20.6984375,44.240625 L16.453125,45.540625 C14.7875,46.0484375 13.0203125,45.1140625 12.5125,43.4484375 C12.4921875,43.3671875 12.471875,43.30625 12.4515625,43.225 L11.4765625,38.8984375 L7.15,37.9234375 C5.4640625,37.5375 4.3875,35.8515625 4.7734375,34.1453125 C4.79375,34.0640625 4.8140625,34.003125 4.834375,33.921875 L6.0125,30.103125 C6.0734375,29.9 6.2765625,29.7375 6.5,29.7375 L45.5,29.7375 C45.7234375,29.7375 45.9265625,29.8796875 45.9875,30.103125 L47.165625,33.921875 C47.6734375,35.5875 46.7390625,37.3546875 45.0734375,37.8625 C44.9921875,37.8828125 44.93125,37.903125 44.85,37.9234375 L40.5234375,38.8984375 L39.5484375,43.225 C39.1625,44.9109375 37.4765625,45.9875 35.7703125,45.6015625 C35.6890625,45.58125 35.628125,45.5609375 35.546875,45.540625 L31.3015625,44.240625 L28.275,47.490625 C27.7265625,48.1203125 26.89375,48.4859375 26.0203125,48.4859375 Z M20.8,43.1640625 C20.9828125,43.1640625 21.165625,43.2453125 21.2875,43.3671875 L24.45625,46.7796875 C24.8625,47.20625 25.43125,47.4703125 26.0203125,47.45 C26.609375,47.45 27.178125,47.20625 27.584375,46.7796875 L30.753125,43.3671875 C30.915625,43.184375 31.1796875,43.1234375 31.4234375,43.184375 L35.871875,44.565625 C36.9890625,44.9109375 38.1875,44.28125 38.5328125,43.14375 C38.553125,43.103125 38.553125,43.0421875 38.5734375,43.0015625 L39.609375,38.4515625 C39.6703125,38.2078125 39.853125,38.025 40.096875,37.9640625 L44.646875,36.928125 C45.8046875,36.6640625 46.515625,35.5265625 46.2515625,34.36875 C46.23125,34.3078125 46.23125,34.2671875 46.2109375,34.2265625 L45.134375,30.7734375 L6.8859375,30.7734375 L5.809375,34.2265625 C5.4640625,35.34375 6.09375,36.5421875 7.23125,36.8875 C7.271875,36.9078125 7.3328125,36.9078125 7.3734375,36.928125 L11.9234375,37.9640625 C12.1671875,38.025 12.35,38.2078125 12.4109375,38.4515625 L13.446875,43.0015625 C13.7109375,44.159375 14.8484375,44.8703125 16.00625,44.60625 C16.046875,44.5859375 16.1078125,44.5859375 16.1484375,44.565625 L20.596875,43.184375 C20.678125,43.184375 20.7390625,43.1640625 20.8,43.1640625 Z" id="Shape" fill="#231F20"></path>
                    <path d="M42.9,18.9921875 L9.1203125,18.9921875 C8.896875,18.9921875 8.69375,18.8296875 8.6328125,18.60625 L8.6328125,18.565625 C8.6328125,18.5453125 8.6328125,18.525 8.6125,18.5046875 L7.23125,14.05625 C7.1296875,13.7109375 7.3125,13.3453125 7.6578125,13.24375 C7.678125,13.24375 7.6984375,13.24375 7.6984375,13.2234375 L12.2484375,12.1875 C13.040625,12.0046875 13.6703125,11.375 13.853125,10.5828125 L14.8890625,6.0328125 C14.9703125,5.6875 15.315625,5.4640625 15.6609375,5.5453125 C15.68125,5.5453125 15.7015625,5.5453125 15.7015625,5.565625 L20.15,6.946875 C20.921875,7.190625 21.775,6.9671875 22.34375,6.3578125 L25.5125,2.9453125 C25.634375,2.803125 25.8171875,2.7421875 26,2.7421875 C26.1828125,2.7421875 26.3453125,2.8234375 26.4875,2.9453125 L29.65625,6.378125 C30.2046875,6.9671875 31.0578125,7.2109375 31.85,6.9671875 L36.2984375,5.5859375 C36.64375,5.484375 37.009375,5.6671875 37.1109375,6.0125 C37.1109375,6.0328125 37.1109375,6.053125 37.13125,6.053125 L38.1671875,10.603125 C38.35,11.3953125 38.9796875,12.025 39.771875,12.2078125 L44.321875,13.24375 C44.6671875,13.325 44.890625,13.6703125 44.809375,14.015625 C44.809375,14.0359375 44.809375,14.05625 44.7890625,14.05625 L43.4078125,18.5046875 C43.4078125,18.525 43.4078125,18.5453125 43.3875,18.565625 L43.3875,18.60625 C43.346875,18.85 43.14375,18.9921875 42.9,18.9921875 Z M9.4859375,17.9765625 L42.5140625,17.9765625 L43.6921875,14.1578125 L39.5484375,13.203125 C38.3703125,12.9390625 37.45625,12.0046875 37.171875,10.8265625 L36.2171875,6.6625 L32.134375,7.921875 C30.9765625,8.2671875 29.7171875,7.9421875 28.9046875,7.0484375 L26,3.9203125 L23.0953125,7.0484375 C22.2625,7.921875 21.0234375,8.2671875 19.865625,7.921875 L15.7828125,6.6625 L14.828125,10.8265625 C14.5640625,12.0046875 13.6296875,12.91875 12.4515625,13.203125 L8.2875,14.1578125 L9.4859375,17.9765625 Z" id="Shape" fill="#231F20"></path>
                    <path d="M26.0203125,45.9875 C25.8375,45.9875 25.675,45.90625 25.5328125,45.784375 L22.3640625,42.371875 C21.815625,41.7828125 20.9625,41.5390625 20.1703125,41.7828125 L15.721875,43.1640625 C15.3765625,43.265625 15.0109375,43.0828125 14.909375,42.7375 C14.909375,42.7171875 14.909375,42.696875 14.8890625,42.696875 L13.853125,38.146875 C13.6703125,37.3546875 13.040625,36.725 12.2484375,36.5421875 L7.6984375,35.50625 C7.353125,35.425 7.1296875,35.0796875 7.2109375,34.734375 C7.2109375,34.7140625 7.2109375,34.69375 7.23125,34.69375 L8.6125,30.2453125 C8.6125,30.225 8.6125,30.2046875 8.6328125,30.2046875 L8.6328125,30.1640625 C8.69375,29.940625 8.896875,29.778125 9.1203125,29.778125 L42.9203125,29.778125 C43.14375,29.778125 43.346875,29.940625 43.4078125,30.1640625 L43.4078125,30.2046875 C43.4078125,30.225 43.4078125,30.2453125 43.428125,30.2453125 L44.809375,34.69375 C44.9109375,35.0390625 44.728125,35.4046875 44.3828125,35.50625 C44.3625,35.50625 44.3421875,35.50625 44.3421875,35.5265625 L39.7921875,36.5625 C39,36.7453125 38.3703125,37.375 38.1875,38.1671875 L37.1515625,42.7171875 C37.0703125,43.0625 36.725,43.2859375 36.3796875,43.2046875 C36.359375,43.2046875 36.3390625,43.2046875 36.3390625,43.184375 L31.890625,41.803125 C31.11875,41.559375 30.265625,41.7828125 29.696875,42.3921875 L26.528125,45.8046875 C26.365625,45.9265625 26.203125,45.9875 26.0203125,45.9875 Z M20.8,40.6859375 C21.6734375,40.6859375 22.50625,41.0515625 23.115625,41.68125 L26.0203125,44.809375 L28.925,41.68125 C29.7578125,40.8078125 30.996875,40.4625 32.1546875,40.8078125 L36.2375,42.0671875 L37.1921875,37.903125 C37.45625,36.725 38.390625,35.8109375 39.56875,35.5265625 L43.7328125,34.571875 L42.5546875,30.753125 L9.4859375,30.753125 L8.3078125,34.571875 L12.471875,35.5265625 C13.65,35.790625 14.5640625,36.725 14.8484375,37.903125 L15.803125,42.0671875 L19.8859375,40.8078125 C20.1703125,40.7265625 20.475,40.6859375 20.8,40.6859375 Z" id="Shape" fill="#231F20"></path>
                    <path d="M6.5,18.9921875 L1.625,18.9921875 C1.340625,18.9921875 1.1171875,18.76875 1.1171875,18.484375 C1.1171875,18.321875 1.1984375,18.159375 1.340625,18.0578125 L5.403125,15.396875 C5.646875,15.234375 5.9515625,15.315625 6.1140625,15.5390625 C6.134375,15.5796875 6.1546875,15.6203125 6.175,15.6609375 L6.9875,18.321875 C7.06875,18.5859375 6.9265625,18.8703125 6.6421875,18.9515625 C6.6015625,18.9921875 6.5609375,18.9921875 6.5,18.9921875 Z M3.33125,17.9765625 L5.8296875,17.9765625 L5.403125,16.615625 L3.33125,17.9765625 Z" id="Shape" fill="#231F20"></path>
                    <path d="M50.3953125,18.9921875 L45.5203125,18.9921875 C45.2359375,18.9921875 45.0125,18.76875 45.0125,18.484375 C45.0125,18.44375 45.0125,18.3828125 45.0328125,18.3421875 L45.8453125,15.68125 C45.9265625,15.4171875 46.2109375,15.2546875 46.475,15.3359375 C46.515625,15.35625 46.55625,15.3765625 46.596875,15.396875 L50.659375,18.0578125 C50.903125,18.2203125 50.9640625,18.525 50.8015625,18.76875 C50.7203125,18.9109375 50.5578125,18.9921875 50.3953125,18.9921875 Z M46.2109375,17.9765625 L48.709375,17.9765625 L46.6375,16.615625 L46.2109375,17.9765625 Z" id="Shape" fill="#231F20"></path>
                    <path d="M26.771875,39.5078125 L24.3546875,39.5078125 C24.0703125,39.5078125 23.846875,39.284375 23.846875,39 C23.846875,38.715625 24.0703125,38.4921875 24.3546875,38.4921875 L26.771875,38.4921875 C27.2390625,38.4921875 27.625,38.10625 27.625,37.6390625 C27.625,37.171875 27.2390625,36.7859375 26.771875,36.7859375 L25.26875,36.7859375 C24.2328125,36.7859375 23.4,35.953125 23.4,34.9171875 C23.4,33.88125 24.2328125,33.0484375 25.26875,33.0484375 L27.4015625,33.0484375 C27.6859375,33.0484375 27.909375,33.271875 27.909375,33.55625 C27.909375,33.840625 27.6859375,34.0640625 27.4015625,34.0640625 L25.26875,34.0640625 C24.8015625,34.0640625 24.415625,34.45 24.415625,34.9171875 C24.415625,35.384375 24.8015625,35.7703125 25.26875,35.7703125 L26.771875,35.7703125 C27.8078125,35.7703125 28.640625,36.603125 28.640625,37.6390625 C28.640625,38.675 27.8078125,39.5078125 26.771875,39.5078125 Z" id="Shape" fill="#231F20"></path>
                    <path d="M26.0203125,40.4421875 C25.7359375,40.4421875 25.5125,40.21875 25.5125,39.934375 L25.5125,32.621875 C25.5125,32.3375 25.7359375,32.1140625 26.0203125,32.1140625 C26.3046875,32.1140625 26.528125,32.3375 26.528125,32.621875 L26.528125,39.934375 C26.528125,40.1984375 26.284375,40.4421875 26.0203125,40.4421875 Z" id="Shape" fill="#231F20"></path>
                    <path d="M33.5765625,37.6796875 L31.85,37.6796875 C31.565625,37.6796875 31.3421875,37.45625 31.3421875,37.171875 C31.3421875,36.8875 31.565625,36.6640625 31.85,36.6640625 L33.5765625,36.6640625 C33.840625,36.6640625 34.04375,36.4609375 34.04375,36.2171875 C34.04375,35.953125 33.840625,35.75 33.596875,35.75 C33.596875,35.75 33.5765625,35.75 33.5765625,35.75 L32.5,35.75 C31.6875,35.75 31.0171875,35.0796875 31.0171875,34.2671875 C31.0171875,33.4546875 31.6875,32.784375 32.5,32.784375 L34.0234375,32.784375 C34.3078125,32.784375 34.53125,33.0078125 34.53125,33.2921875 C34.53125,33.5765625 34.3078125,33.8 34.0234375,33.8 L32.5,33.8 C32.2359375,33.8 32.0328125,34.003125 32.0328125,34.2671875 C32.0328125,34.53125 32.2359375,34.734375 32.5,34.734375 L33.5765625,34.734375 C34.3890625,34.734375 35.059375,35.384375 35.0796875,36.196875 C35.1,37.009375 34.4296875,37.6796875 33.6171875,37.7 C33.596875,37.6796875 33.596875,37.6796875 33.5765625,37.6796875 Z" id="Shape" fill="#231F20"></path>
                    <path d="M33.028125,38.35 C32.74375,38.35 32.5203125,38.1265625 32.5203125,37.8421875 L32.5203125,32.621875 C32.5203125,32.3375 32.74375,32.1140625 33.028125,32.1140625 C33.3125,32.1140625 33.5359375,32.3375 33.5359375,32.621875 L33.5359375,37.8421875 C33.5359375,38.1265625 33.3125,38.35 33.028125,38.35 C33.028125,38.35 33.028125,38.35 33.028125,38.35 Z" id="Shape" fill="#231F20"></path>
                    <path d="M19.5203125,37.6796875 L17.79375,37.6796875 C17.509375,37.6796875 17.2859375,37.45625 17.2859375,37.171875 C17.2859375,36.8875 17.509375,36.6640625 17.79375,36.6640625 L19.5203125,36.6640625 C19.784375,36.6640625 19.9875,36.440625 19.9671875,36.196875 C19.9671875,35.953125 19.7640625,35.75 19.5203125,35.75 L18.44375,35.75 C17.63125,35.75 16.9609375,35.0796875 16.9609375,34.2671875 C16.9609375,33.4546875 17.63125,32.784375 18.44375,32.784375 C18.44375,32.784375 18.44375,32.784375 18.44375,32.784375 L19.9671875,32.784375 C20.2515625,32.784375 20.475,33.0078125 20.475,33.2921875 C20.475,33.5765625 20.2515625,33.8 19.9671875,33.8 L18.44375,33.8 C18.1796875,33.8 17.9765625,34.003125 17.9765625,34.2671875 C17.9765625,34.53125 18.1796875,34.734375 18.44375,34.734375 C18.44375,34.734375 18.44375,34.734375 18.44375,34.734375 L19.5203125,34.734375 C20.3328125,34.734375 21.003125,35.425 20.9828125,36.2375 C20.9828125,37.0296875 20.3328125,37.6796875 19.5203125,37.6796875 Z" id="Shape" fill="#231F20"></path>
                    <path d="M18.9921875,38.35 C18.7078125,38.35 18.484375,38.1265625 18.484375,37.8421875 L18.484375,32.621875 C18.484375,32.3375 18.7078125,32.1140625 18.9921875,32.1140625 C19.2765625,32.1140625 19.5,32.3375 19.5,32.621875 L19.5,37.8421875 C19.5,38.1265625 19.25625,38.35 18.9921875,38.35 C18.9921875,38.35 18.9921875,38.35 18.9921875,38.35 Z" id="Shape" fill="#231F20"></path>
                    <path d="M18.28125,11.7609375 L17.8953125,11.9640625 C17.671875,12.0859375 17.3875,12.0046875 17.265625,11.78125 C17.2453125,11.740625 17.225,11.7 17.225,11.659375 C17.184375,11.45625 17.2859375,11.253125 17.46875,11.171875 L18.3421875,10.725 C18.403125,10.684375 18.484375,10.6640625 18.5453125,10.6640625 L18.9109375,10.6640625 C19.1546875,10.6640625 19.378125,10.8671875 19.378125,11.13125 L19.378125,15.4984375 C19.378125,15.803125 19.134375,16.046875 18.8296875,16.046875 C18.525,16.046875 18.28125,15.803125 18.28125,15.4984375 L18.28125,11.7609375 Z" id="Shape" fill="#000000"></path>
                    <path d="M24.5375,13.3046875 C24.5375,14.9703125 23.928125,16.1078125 22.6890625,16.1078125 C21.4296875,16.1078125 20.88125,14.8484375 20.88125,13.325 C20.88125,11.7609375 21.4703125,10.5421875 22.7296875,10.5421875 C24.0296875,10.5421875 24.5375,11.8421875 24.5375,13.3046875 Z M22.0390625,13.3453125 C22.0390625,14.584375 22.303125,15.1734375 22.75,15.1734375 C23.196875,15.1734375 23.4203125,14.5640625 23.4203125,13.325 C23.4203125,12.1265625 23.196875,11.496875 22.7296875,11.496875 C22.303125,11.496875 22.01875,12.0859375 22.0390625,13.3453125 Z" id="Shape" fill="#000000"></path>
                    <path d="M28.68125,13.3046875 C28.68125,14.9703125 28.071875,16.1078125 26.8328125,16.1078125 C25.5734375,16.1078125 25.025,14.8484375 25.025,13.325 C25.025,11.7609375 25.6140625,10.5421875 26.8734375,10.5421875 C28.1734375,10.5421875 28.68125,11.8421875 28.68125,13.3046875 Z M26.1625,13.3453125 C26.1625,14.584375 26.4265625,15.1734375 26.8734375,15.1734375 C27.3203125,15.1734375 27.54375,14.5640625 27.54375,13.325 C27.54375,12.1265625 27.3203125,11.496875 26.853125,11.496875 C26.446875,11.496875 26.1625,12.0859375 26.1625,13.3453125 Z" id="Shape" fill="#000000"></path>
                    <path d="M30.4484375,13.8734375 C28.6609375,13.8734375 28.7015625,10.5625 30.4890625,10.5625 C32.3171875,10.5421875 32.175,13.8734375 30.4484375,13.8734375 Z M30.46875,13.1828125 C30.79375,13.1828125 30.95625,12.8171875 30.95625,12.2078125 C30.95625,11.659375 30.8140625,11.2328125 30.46875,11.2328125 C29.7984375,11.2328125 29.7984375,13.1828125 30.46875,13.1828125 Z M33.9421875,16.1078125 C32.1546875,16.1078125 32.175,12.796875 33.9828125,12.796875 C35.790625,12.796875 35.66875,16.1078125 33.9421875,16.1078125 Z M33.475,14.4421875 C33.475,15.0109375 33.6375,15.4171875 33.9625,15.4171875 C34.2875,15.4171875 34.45,15.0515625 34.45,14.4421875 C34.45,13.89375 34.328125,13.4671875 33.9625,13.4671875 C33.6171875,13.4671875 33.475,13.9140625 33.475,14.4421875 Z" id="Shape" fill="#000000"></path>
                    <path d="M8.328125,21.5921875 C7.9421875,21.5921875 7.596875,21.85625 7.4953125,22.221875 L7.15,23.440625 C6.9875,24.0703125 6.8046875,24.8015625 6.6828125,25.4515625 L6.6625,25.4515625 C6.540625,24.8015625 6.3984375,24.1109375 6.2359375,23.4609375 L5.9109375,22.2625 C5.809375,21.8765625 5.4640625,21.6125 5.0578125,21.6125 C4.590625,21.6125 4.2046875,21.978125 4.184375,22.4453125 L3.940625,26.65 C3.9203125,26.934375 4.14375,27.178125 4.428125,27.1984375 C4.428125,27.1984375 4.4484375,27.1984375 4.4484375,27.1984375 C4.7328125,27.1984375 4.95625,26.975 4.9765625,26.690625 L5.0375,25.065625 C5.078125,24.375 5.0984375,23.5015625 5.11875,22.75 L5.1390625,22.75 C5.2609375,23.48125 5.4234375,24.2734375 5.5859375,24.9234375 L6.0125,26.65 C6.0734375,26.9140625 6.3171875,27.0765625 6.58125,27.0765625 C6.8453125,27.0765625 7.06875,26.9140625 7.1296875,26.65 L7.6171875,24.8828125 C7.8203125,24.2328125 8.0234375,23.440625 8.1859375,22.7296875 L8.20625,22.7296875 C8.20625,23.5421875 8.2265625,24.3546875 8.246875,25.025 L8.3078125,26.6296875 C8.328125,26.934375 8.5515625,27.1578125 8.85625,27.1578125 C9.1609375,27.1578125 9.4046875,26.9140625 9.4046875,26.609375 C9.4046875,26.609375 9.4046875,26.5890625 9.4046875,26.5890625 L9.2015625,22.4046875 C9.18125,21.9578125 8.7953125,21.5921875 8.328125,21.5921875 Z" id="Shape" fill="#000000"></path>
                    <path d="M12.5328125,21.5109375 C11.05,21.5109375 10.0953125,22.7703125 10.0953125,24.4359375 C10.0953125,26.0203125 10.96875,27.2796875 12.4515625,27.2796875 C13.9140625,27.2796875 14.9296875,26.1625 14.9296875,24.334375 C14.909375,22.790625 14.0765625,21.5109375 12.5328125,21.5109375 Z M12.5125,26.2640625 C11.7609375,26.2640625 11.29375,25.4921875 11.29375,24.3953125 C11.29375,23.31875 11.740625,22.50625 12.5125,22.50625 C13.3046875,22.50625 13.73125,23.359375 13.73125,24.375 C13.7109375,25.4515625 13.2640625,26.2640625 12.5125,26.2640625 Z" id="Shape" fill="#000000"></path>
                    <path d="M19.296875,21.5921875 C19.0125,21.5921875 18.76875,21.8359375 18.76875,22.1203125 L18.76875,23.2375 C18.76875,24.009375 18.7890625,24.8015625 18.8703125,25.5734375 L18.85,25.5734375 C18.60625,24.9234375 18.3421875,24.2734375 18.0375,23.6640625 L17.2046875,22.01875 C17.0828125,21.775 16.81875,21.6125 16.5546875,21.6125 L16.4125,21.6125 C16.00625,21.6125 15.68125,21.9375 15.68125,22.34375 L15.68125,26.6703125 C15.68125,26.9546875 15.925,27.1984375 16.209375,27.1984375 C16.49375,27.1984375 16.7375,26.9546875 16.7375,26.6703125 L16.7375,25.5125 C16.7375,24.5984375 16.7171875,23.80625 16.696875,23.075 L16.7171875,23.075 C16.9609375,23.725 17.2859375,24.45625 17.590625,25.0453125 L18.4640625,26.7921875 C18.5859375,27.0359375 18.85,27.1984375 19.1140625,27.1984375 C19.5203125,27.1984375 19.8453125,26.8734375 19.8453125,26.4671875 L19.8453125,22.140625 C19.825,21.8359375 19.58125,21.5921875 19.296875,21.5921875 C19.296875,21.5921875 19.296875,21.5921875 19.296875,21.5921875 Z" id="Shape" fill="#000000"></path>
                    <path d="M23.5015625,26.1421875 L22.3234375,26.1421875 C22.1203125,26.1421875 21.9578125,25.9796875 21.9578125,25.7765625 L21.9578125,25.1875 C21.9578125,24.984375 22.1203125,24.821875 22.3234375,24.821875 C22.3234375,24.821875 22.3234375,24.821875 22.3234375,24.821875 L23.278125,24.821875 C23.5625,24.821875 23.7859375,24.5984375 23.7859375,24.3140625 C23.7859375,24.0296875 23.5625,23.80625 23.278125,23.80625 L22.3234375,23.80625 C22.1203125,23.80625 21.9578125,23.64375 21.9578125,23.440625 L21.9578125,23.034375 C21.9578125,22.83125 22.1203125,22.66875 22.3234375,22.66875 L23.4,22.66875 C23.684375,22.66875 23.9078125,22.4453125 23.9078125,22.1609375 C23.9078125,21.8765625 23.684375,21.653125 23.4,21.653125 L21.5109375,21.653125 C21.125,21.653125 20.8203125,21.9578125 20.8203125,22.34375 L20.8203125,26.528125 C20.8203125,26.9140625 21.125,27.21875 21.5109375,27.21875 L23.5015625,27.21875 C23.7859375,27.21875 24.009375,26.9953125 24.009375,26.7109375 C24.009375,26.365625 23.7859375,26.1421875 23.5015625,26.1421875 Z" id="Shape" fill="#000000"></path>
                    <path d="M27.8484375,21.5921875 C27.625,21.5921875 27.421875,21.734375 27.340625,21.9375 L26.975,22.9328125 L26.8125,23.4 C26.771875,23.521875 26.6296875,23.5828125 26.5078125,23.5421875 C26.446875,23.521875 26.3859375,23.4609375 26.365625,23.4 C26.3046875,23.2578125 26.2640625,23.0953125 26.1828125,22.9328125 L25.796875,21.9375 C25.715625,21.734375 25.5125,21.5921875 25.2890625,21.5921875 L25.2484375,21.5921875 C24.94375,21.5921875 24.7,21.8359375 24.7,22.140625 C24.7,22.221875 24.7203125,22.303125 24.7609375,22.384375 L25.9390625,24.821875 C25.959375,24.8625 25.9796875,24.9234375 25.9796875,24.984375 L25.9796875,26.6296875 C25.9796875,26.934375 26.2234375,27.178125 26.528125,27.178125 L26.56875,27.178125 C26.8734375,27.178125 27.1171875,26.934375 27.1171875,26.6296875 L27.1171875,24.94375 C27.1171875,24.8828125 27.1375,24.821875 27.1578125,24.78125 L28.3765625,22.4046875 C28.51875,22.140625 28.4171875,21.7953125 28.1328125,21.6734375 C28.0109375,21.6125 27.9296875,21.5921875 27.8484375,21.5921875 Z" id="Shape" fill="#000000"></path>
                    <path d="M33.515625,24.171875 C34.0234375,23.96875 34.3484375,23.5015625 34.3484375,22.953125 C34.36875,22.50625 34.125,22.0796875 33.7390625,21.85625 C33.3734375,21.6125 32.946875,21.53125 32.25625,21.53125 C31.9921875,21.53125 31.728125,21.5515625 31.484375,21.5515625 C31.0984375,21.571875 30.79375,21.896875 30.79375,22.2828125 L30.79375,26.446875 C30.79375,26.8328125 31.0984375,27.1578125 31.5046875,27.178125 C31.6671875,27.178125 31.8296875,27.1984375 32.0328125,27.1984375 C33.028125,27.1984375 33.6375,27.015625 34.003125,26.690625 C34.3484375,26.3859375 34.53125,25.959375 34.53125,25.5125 C34.53125,24.903125 34.125,24.334375 33.515625,24.171875 Z M31.9109375,22.8515625 C31.9109375,22.6484375 32.0734375,22.4859375 32.2765625,22.4859375 C32.3171875,22.4859375 32.3578125,22.4859375 32.3984375,22.4859375 C32.90625,22.4859375 33.2109375,22.709375 33.2109375,23.1359375 C33.2109375,23.5421875 32.8859375,23.8265625 32.296875,23.8265625 C32.09375,23.8265625 31.93125,23.6640625 31.93125,23.4609375 C31.93125,23.4609375 31.93125,23.4609375 31.93125,23.4609375 L31.9109375,22.8515625 Z M32.3578125,26.3046875 L32.296875,26.3046875 C32.09375,26.3046875 31.93125,26.1421875 31.93125,25.9390625 C31.93125,25.9390625 31.93125,25.9390625 31.93125,25.9390625 L31.93125,25.0859375 C31.93125,24.8828125 32.09375,24.7203125 32.296875,24.7203125 L32.3171875,24.7203125 C32.8859375,24.7203125 33.3328125,24.94375 33.3328125,25.5125 C33.3125,26.08125 32.865625,26.3046875 32.3578125,26.3046875 Z" id="Shape" fill="#000000"></path>
                    <path d="M38.1265625,22.303125 C38.0046875,21.8765625 37.61875,21.5921875 37.1921875,21.5921875 C36.7453125,21.5921875 36.359375,21.896875 36.2375,22.303125 L35.1,26.446875 C35.01875,26.7515625 35.2015625,27.05625 35.4859375,27.1375 C35.5265625,27.1578125 35.5875,27.1578125 35.628125,27.1578125 C35.8921875,27.1578125 36.115625,26.975 36.1765625,26.73125 L36.359375,26 C36.4,25.8375 36.5421875,25.715625 36.725,25.715625 L37.578125,25.715625 C37.740625,25.715625 37.903125,25.8375 37.94375,26 L38.146875,26.7515625 C38.2078125,26.9953125 38.43125,27.1578125 38.6953125,27.1578125 L38.7359375,27.1578125 C39.040625,27.1578125 39.3046875,26.9140625 39.3046875,26.5890625 C39.3046875,26.528125 39.3046875,26.4875 39.284375,26.446875 L38.1265625,22.303125 Z M37.5375,24.8015625 L36.765625,24.8015625 C36.684375,24.8015625 36.6234375,24.740625 36.6234375,24.659375 C36.6234375,24.6390625 36.6234375,24.6390625 36.6234375,24.61875 L36.8875,23.603125 C36.928125,23.4203125 36.96875,23.2171875 37.0296875,22.99375 C37.05,22.9328125 37.090625,22.8921875 37.1515625,22.9125 C37.1921875,22.9125 37.2328125,22.953125 37.2328125,22.99375 L37.375,23.603125 L37.6390625,24.61875 C37.659375,24.6796875 37.61875,24.7609375 37.5375,24.78125 C37.5578125,24.8015625 37.5375,24.8015625 37.5375,24.8015625 Z" id="Shape" fill="#000000"></path>
                    <path d="M43.2453125,21.5921875 C43.0015625,21.53125 42.7375,21.5109375 42.4734375,21.5109375 C40.95,21.5109375 39.73125,22.5671875 39.73125,24.4765625 C39.73125,26.0609375 40.625,27.259375 42.371875,27.259375 C42.65625,27.259375 42.9203125,27.2390625 43.2046875,27.178125 C43.46875,27.1171875 43.63125,26.853125 43.590625,26.5890625 C43.55,26.3046875 43.2859375,26.121875 43.0015625,26.1625 C42.859375,26.1828125 42.696875,26.203125 42.534375,26.203125 C41.51875,26.203125 40.9296875,25.4921875 40.9296875,24.375 C40.9296875,23.1359375 41.640625,22.5265625 42.534375,22.5265625 C42.696875,22.5265625 42.859375,22.546875 43.021875,22.5671875 C43.2859375,22.628125 43.55,22.4453125 43.6109375,22.18125 L43.6109375,22.1609375 C43.671875,21.9171875 43.509375,21.653125 43.2453125,21.5921875 Z" id="Shape" fill="#000000"></path>
                    <path d="M48.059375,26.3453125 L46.88125,24.171875 C46.8203125,24.05 46.8203125,23.8875 46.9015625,23.7859375 L47.7953125,22.50625 C47.9984375,22.2828125 47.9578125,21.9375 47.734375,21.734375 C47.6734375,21.6734375 47.5921875,21.653125 47.5109375,21.6328125 C47.2671875,21.5515625 47.003125,21.653125 46.8609375,21.8765625 L45.8859375,23.4609375 C45.8453125,23.521875 45.784375,23.5625 45.7234375,23.5625 C45.621875,23.5625 45.5203125,23.48125 45.5203125,23.359375 C45.5203125,23.359375 45.5203125,23.359375 45.5203125,23.359375 L45.5203125,22.18125 C45.5203125,21.8765625 45.2765625,21.6125 44.9515625,21.6125 C44.646875,21.6125 44.3828125,21.85625 44.3828125,22.18125 L44.3828125,26.65 C44.3828125,26.9546875 44.6265625,27.21875 44.9515625,27.21875 C44.9515625,27.21875 44.9515625,27.21875 44.9515625,27.21875 C45.25625,27.21875 45.5203125,26.975 45.5203125,26.65 C45.5203125,26.65 45.5203125,26.65 45.5203125,26.65 L45.5203125,25.5125 C45.5203125,25.43125 45.540625,25.35 45.6015625,25.2890625 C45.7234375,25.1265625 45.9671875,25.0859375 46.1296875,25.2078125 C46.1703125,25.2484375 46.2109375,25.2890625 46.23125,25.3296875 L47.0234375,26.89375 C47.125,27.0765625 47.3078125,27.1984375 47.53125,27.1984375 L47.571875,27.1984375 C47.8765625,27.1984375 48.140625,26.9546875 48.140625,26.6296875 C48.140625,26.528125 48.1,26.4265625 48.059375,26.3453125 Z" id="Shape" fill="#000000"></path>
                    <path d="M30.7125,15.721875 L33.23125,10.7046875 C33.2921875,10.5625 33.475,10.521875 33.596875,10.5828125 C33.71875,10.64375 33.7796875,10.80625 33.71875,10.9484375 L31.2,15.965625 C31.11875,16.0875 30.95625,16.1484375 30.834375,16.0671875 C30.6921875,16.00625 30.6515625,15.8640625 30.7125,15.721875 Z" id="Shape" fill="#000000"></path>
                </g>
            </g>
        </g>
    </g>
</svg>