<?xml version="1.0" encoding="UTF-8" standalone="no"?>
<svg width="95px" height="80px" viewBox="0 0 95 80" version="1.1" xmlns="http://www.w3.org/2000/svg" xmlns:xlink="http://www.w3.org/1999/xlink">
    <!-- Generator: Sketch 49.1 (51147) - http://www.bohemiancoding.com/sketch -->
    <title>Group 24</title>
    <desc>Created with Sketch.</desc>
    <defs>
        <linearGradient x1="126.664402%" y1="146.704102%" x2="0%" y2="0%" id="linearGradient-1">
            <stop stop-color="#34A853" offset="0%"></stop>
            <stop stop-color="#97D48D" offset="100%"></stop>
        </linearGradient>
    </defs>
    <g id="Page-1" stroke="none" stroke-width="1" fill="none" fill-rule="evenodd">
        <g id="Pixel" transform="translate(-1051.000000, -3559.000000)">
            <g id="Group-24" transform="translate(1051.000000, 3553.000000)">
                <path d="M63.0791102,93 C86.3187611,93 103.262765,78.1299559 71.7034323,50 C40.1440997,21.8700441 86.3187611,7 63.0791102,7 C39.8394594,7 21,26.2517558 21,50 C21,73.7482442 39.8394594,93 63.0791102,93 Z" id="Oval-2-Copy-8" fill="url(#linearGradient-1)" opacity="0.0801072761" transform="translate(55.000000, 50.000000) rotate(-117.000000) translate(-55.000000, -50.000000) "></path>
                <g id="tiger" transform="translate(0.000000, 11.000000)" fill-rule="nonzero">
                    <path d="M39.6396224,57.7095436 C39.6396224,61.0645436 37.2374627,63.7842324 30.5275892,63.7842324 C23.8175892,63.7842324 21.415556,61.0645436 21.415556,57.7095436" id="Shape" fill="#FFEBD2"></path>
                    <path d="M55.7807033,1.01244813 C52.1998008,1.01244813 49.1797946,8.21057469 44.4948174,9.02939212 C40.9808631,7.19015353 36.4292759,6.0746888 30.5275892,6.0746888 C24.6209668,6.0746888 20.0663423,7.19205187 16.551249,9.03420124 C11.8388091,8.25638797 8.80956432,1.01244813 5.21638589,1.01244813 C1.04003734,1.01244813 -0.984858921,9.36514523 4.20393776,12.1493776 C6.922361,13.6080622 8.95725519,13.7549938 10.1454896,14.4339668 C8.94902905,16.1809461 7.9794834,18.232166 7.22571577,20.4114606 C5.7371639,23.441971 4.90518465,26.8162075 4.90518465,30.373444 C4.90518465,43.5136286 16.23739,54.1659751 30.216388,54.1659751 C43.4695871,54.1659751 54.3420145,44.5906203 55.435332,32.3983402 L55.8387925,32.3983402 C55.8387925,26.5753714 54.8815228,19.6833838 50.8923506,14.4106805 C52.0862801,13.7513237 54.1057344,13.5914834 56.7930249,12.1493776 C61.9819481,9.36514523 59.9570519,1.01244813 55.7807033,1.01244813 Z" id="Shape" fill="#FFA54B"></path>
                    <g id="Group" transform="translate(1.139004, 0.885892)" fill="#FF8C46">
                        <path d="M14.7765539,7.97302905 C11.5493755,7.53008299 6.9329917,-1.53411203 2.62717635,0.37966805 C2.05767427,0.632780083 -0.776421162,3.47725311 0.225016598,7.40124896 C1.2263278,11.3252448 4.14584855,11.8329876 9.00661203,13.5480747 L14.7765539,7.97302905 Z" id="Shape"></path>
                        <path d="M43.9274668,7.96644813 C47.1546452,7.52350207 51.771029,-1.54056639 56.0768444,0.373087137 C56.6463465,0.62619917 59.4804419,3.4706722 58.4790041,7.39466805 C57.4775664,11.3186639 54.5581722,11.8264066 49.6974087,13.5413672 L43.9274668,7.96644813 Z" id="Shape"></path>
                    </g>
                    <g id="Group" transform="translate(1.139004, 24.045643)" fill="#FFEBD2">
                        <path d="M4.85759959,0.0425228216 C0.702639004,6.8340249 0.0275892116,12.4024896 0.0275892116,12.4024896 L2.05248548,12.4024896 C2.05248548,12.4024896 0.0275892116,17.4014523 0.0275892116,20.5020747 L3.06493361,19.4896266 C3.06493361,19.4896266 1.04003734,24.0456432 1.04003734,27.5892116 C1.04003734,27.6524896 4.07738174,26.5767635 4.07738174,26.5767635 C4.07738174,26.5767635 2.55870954,29.9937759 3.06493361,31.6390041 C3.08353734,31.6994979 6.10227801,30.626556 6.10227801,30.626556 C6.10227801,30.626556 5.21638589,32.9889772 6.10227801,34.6763485 L11.1645187,32.6514523 C11.1645187,32.6514523 12.1109046,35.7492905 12.1769668,35.6887967 C14.3916971,33.6639004 17.2392075,32.6514523 17.2392075,32.6514523" id="Shape"></path>
                        <path d="M53.9195705,0.0425228216 C58.0746577,6.8340249 58.7495809,12.4024896 58.7495809,12.4024896 L56.7246846,12.4024896 C56.7246846,12.4024896 58.7495809,17.4014523 58.7495809,20.5020747 L55.7122365,19.4896266 C55.7122365,19.4896266 57.7371328,24.0456432 57.7371328,27.5892116 C57.7371328,27.6524896 54.6997884,26.5767635 54.6997884,26.5767635 C54.6997884,26.5767635 56.2184606,29.9937759 55.7122365,31.6390041 C55.6936328,31.6994979 52.6748921,30.626556 52.6748921,30.626556 C52.6748921,30.626556 53.5607842,32.9889772 52.6748921,34.6763485 L47.6126515,32.6514523 C47.6126515,32.6514523 46.6662656,35.7492905 46.6002033,35.6887967 C44.385473,33.6639004 41.5379627,32.6514523 41.5379627,32.6514523" id="Shape"></path>
                    </g>
                    <path d="M22.6702324,32.3983402 C18.8381162,37.8498672 15.3408672,45.2479523 15.3408672,50.1161826 C15.3408672,54.3098693 18.7405415,57.7095436 22.9342282,57.7095436 C24.3684876,57.7095436 29.1445851,57.527556 30.5275892,55.6846473 C31.9105934,57.527556 36.4335788,57.7095436 38.1209502,57.7095436 C42.3146369,57.7095436 45.7143112,54.3098693 45.7143112,50.1161826 C45.7143112,45.2883237 42.2056722,37.8672054 38.3660892,32.3983402" id="Shape" fill="#FF8C46"></path>
                    <path d="M36.540139,45.3070539 C34.2008776,45.3070539 32.0944793,46.0308278 30.596056,47.1872967 C29.0975062,46.0308278 26.9912344,45.3070539 24.651973,45.3070539 C20.1064606,45.3070539 16.4217822,48.0268693 16.4217822,51.3817427 C16.4217822,54.7367427 20.1065871,57.4564315 24.651973,57.4564315 C26.5491743,57.4564315 28.2931162,56.9803278 29.6839668,56.1834046 C30.2586577,55.8541058 30.9333278,55.8541058 31.5080187,56.1834046 C32.8987427,56.9803278 34.6428112,57.4564315 36.5400124,57.4564315 C41.0853983,57.4564315 44.7702033,54.7367427 44.7702033,51.3817427 C44.7703299,48.0268693 41.0855249,45.3070539 36.540139,45.3070539 Z" id="Shape" fill="#FFDEB7"></path>
                    <path d="M33.1945041,51.3900954 C31.5401639,52.9636929 29.4519896,52.995332 27.8608008,51.3900954 L26.1073672,49.5898361 C24.640583,47.9134751 25.2629855,46.5419876 27.4903714,46.5419876 L33.5650602,46.5419876 C35.7924461,46.5419876 36.4148485,47.9134751 34.9480643,49.5898361 L33.1945041,51.3900954 Z" id="Shape" fill="#464655"></path>
                    <g id="Group" transform="translate(11.390041, 23.412863)" fill="#FFEBD2">
                        <ellipse id="Oval" transform="translate(7.215089, 7.072628) rotate(-127.172429) translate(-7.215089, -7.072628) " cx="7.21508866" cy="7.07262766" rx="4.55577131" ry="5.56819306"></ellipse>
                        <ellipse id="Oval" transform="translate(31.199715, 7.073857) rotate(127.172429) translate(-31.199715, -7.073857) " cx="31.1997152" cy="7.07385657" rx="4.55577131" ry="5.56819306"></ellipse>
                    </g>
                    <path d="M18.3782116,28.3485477 C17.2617344,28.3485477 16.3533154,29.2569668 16.3533154,30.373444 C16.3533154,31.4900477 17.2617344,32.3983402 18.3782116,32.3983402 C19.4946888,32.3983402 20.4031079,31.4900477 20.4031079,30.373444 C20.4031079,29.2569668 19.4946888,28.3485477 18.3782116,28.3485477 Z" id="Shape" fill="#000000"></path>
                    <path d="M42.6769668,28.3485477 C41.5604896,28.3485477 40.6520705,29.2569668 40.6520705,30.373444 C40.6520705,31.4900477 41.5604896,32.3983402 42.6769668,32.3983402 C43.793444,32.3983402 44.7018631,31.4900477 44.7018631,30.373444 C44.7018631,29.2569668 43.793444,28.3485477 42.6769668,28.3485477 Z" id="Shape" fill="#000000"></path>
                    <path d="M59.3228797,37.4605809 L59.8885851,37.4605809 C60.1783983,37.4605809 60.4542905,37.3364295 60.6462759,37.119639 C60.8385145,36.9028485 60.9284959,36.6140477 60.8936929,36.3262593 C60.8650913,36.0916245 60.152834,30.5353091 56.0066058,23.6990062 C55.2843506,20.3102158 54.1005456,17.3618402 52.4620249,14.8784315 C52.645278,14.8211017 52.8395415,14.7632656 53.0421577,14.7030249 C54.1768589,14.3651203 55.588971,13.9447012 57.2717863,13.0415975 C60.6132448,11.2486784 61.3735934,7.51983195 60.6446307,4.61992739 C59.939334,1.81342116 58.0299834,0 55.7807033,0 C53.5922967,0 51.8150705,1.89112656 49.9335622,3.89324274 C48.2777033,5.65528216 46.5683112,7.47427178 44.6365602,7.96429668 C40.8006473,6.03849378 36.0561888,5.06224066 30.5275892,5.06224066 C24.9919025,5.06224066 20.2425083,6.04077178 16.4041909,7.97138382 C14.454722,7.4978112 12.7322946,5.66603942 11.0639066,3.89159751 C9.18214523,1.89036722 7.40466598,0 5.21638589,0 C2.96710581,0 1.05775519,1.81342116 0.35233195,4.61980083 C-0.376630705,7.51983195 0.383717842,11.2485519 3.72517635,13.041471 C5.40786515,13.9443216 6.81972407,14.3649938 7.95429876,14.7028983 C8.19956432,14.7759212 8.42723859,14.8437552 8.63656224,14.9101971 C7.0886556,17.4775124 6.01090456,20.4241162 5.30560788,23.3492054 C5.24043154,23.4102054 5.18170954,23.4799378 5.13285892,23.5597946 C0.911456432,30.4597552 0.190087137,36.0899793 0.161485477,36.3262593 C0.126682573,36.6139212 0.2166639,36.902722 0.408775934,37.119639 C0.601014523,37.3364295 0.876780083,37.4605809 1.1664668,37.4605809 L1.7321722,37.4605809 C1.10964315,39.2257842 0.154018672,42.3013485 0.154018672,44.5477178 C0.154018672,44.8730934 0.310441909,45.1787261 0.574437759,45.3691929 C0.838560166,45.5594066 1.1779834,45.611168 1.48665353,45.508278 L2.48302905,45.1760685 C1.88403942,46.8990021 1.16659336,49.423668 1.16659336,51.6348548 C1.16659336,51.9636473 1.32719295,52.2734564 1.59561826,52.4631639 C2.02983195,52.7700622 2.41215768,52.6459108 2.99089834,52.4583548 C3.14074066,52.4098838 3.32222199,52.3495166 3.53382365,52.2780124 C3.18073237,53.4764979 2.91256017,54.9302469 3.23654357,55.9833195 C3.31791909,56.2469357 3.50471577,56.4675228 3.75124689,56.591168 C4.14850622,56.7904938 4.45920124,56.6896286 5.02351452,56.5070083 C5.24055809,56.4368963 5.52315768,56.3421058 5.86587137,56.2247884 C5.77664938,57.131056 5.83537137,58.2224751 6.34475934,59.1926535 C6.58584855,59.6520519 7.13522822,59.8547946 7.61728008,59.6620498 L11.6615041,58.0444108 C11.7093423,58.1967842 11.7597116,58.3558651 11.810334,58.5148195 C11.9528361,58.9616888 12.0707863,59.3203485 12.1608942,59.5809274 C12.3503485,60.1295477 12.4999378,60.562749 13.046027,60.7119585 C13.1337303,60.7358776 13.223332,60.7476473 13.3124274,60.7476473 C13.5632614,60.7476473 13.8099191,60.6547552 13.9991203,60.4817531 C16.0278133,58.6268216 18.6916909,57.6603133 18.7173817,57.6510747 C18.7302905,57.6463921 18.7423133,57.6405705 18.7549689,57.6355083 C19.2825809,57.9298776 19.8437303,58.1707137 20.4318361,58.349917 C20.586361,60.1835871 21.4097344,61.7168133 22.8407033,62.809751 C24.5670539,64.1280851 27.1533527,64.7966805 30.5275892,64.7966805 C33.9019523,64.7966805 36.4881245,64.1280851 38.2143485,62.8096245 C39.6453174,61.7166867 40.4686909,60.1835871 40.6232158,58.3497905 C41.2113216,58.1705871 41.772471,57.9298776 42.300083,57.6353817 C42.3124855,57.6403174 42.3241286,57.6460124 42.3367842,57.650695 C42.3634876,57.6601867 45.0273651,58.626695 47.0561846,60.4817531 C47.2453859,60.6546286 47.491917,60.7475207 47.742751,60.7475207 C47.8318465,60.7475207 47.9215747,60.735751 48.0094046,60.711832 C48.5552407,60.5624959 48.7048299,60.1292946 48.8942842,59.5808008 C48.9842656,59.320222 49.1022158,58.9615622 49.2447178,58.5146929 C49.2953402,58.3558651 49.3457095,58.1966577 49.3936743,58.0444108 L53.4378983,59.6620498 C53.9198237,59.8549212 54.4690768,59.6520519 54.7102925,59.1926535 C55.2196805,58.2223485 55.2784025,57.1309295 55.1891805,56.2247884 C55.5320207,56.3421058 55.8146203,56.4368963 56.0316639,56.5070083 C56.5961037,56.6897552 56.9070519,56.7903672 57.3043112,56.5909149 C57.5509689,56.4670166 57.7377656,56.2463029 57.818888,55.9824336 C58.1428714,54.9298672 57.8745726,53.4763714 57.5214813,52.2780124 C57.733083,52.3495166 57.9145643,52.4098838 58.0642801,52.4583548 C58.6430207,52.6459108 59.0255996,52.7699357 59.4595602,52.4631639 C59.728112,52.2734564 59.8885851,51.9636473 59.8885851,51.6348548 C59.8885851,49.423668 59.171139,46.8990021 58.5720228,45.1760685 L59.5685249,45.508278 C59.8770685,45.611168 60.2164917,45.5594066 60.4806141,45.3691929 C60.74461,45.1788527 60.9010332,44.8732199 60.9010332,44.5477178 C60.9010332,42.3013485 59.9454087,39.2257842 59.3228797,37.4605809 Z M30.5275892,62.7717842 C27.1491763,62.7717842 23.1794938,62.0359876 22.5240602,58.7116141 C22.6599813,58.7180685 22.7966618,58.7219917 22.9342282,58.7219917 C24.6481763,58.7219917 28.4642199,58.5443071 30.5237925,57.0709419 C32.4747801,58.4878631 36.0037946,58.7219917 38.1209502,58.7219917 C38.2585166,58.7219917 38.3951971,58.7180685 38.5312448,58.7116141 C37.8756846,62.0359876 33.9061286,62.7717842 30.5275892,62.7717842 Z M28.5860934,50.6836598 L26.852529,48.9039025 C26.361112,48.3355394 26.2913797,47.9529606 26.3355477,47.8558921 C26.3800954,47.7575581 26.7210373,47.5546888 27.4902448,47.5546888 L33.5649336,47.5546888 C34.3342676,47.5546888 34.6752095,47.7576846 34.7197573,47.8558921 C34.7639253,47.9530871 34.6941929,48.335666 34.2027759,48.9039025 L32.4833859,50.6692324 C31.2174461,51.8637946 29.7593942,51.8672116 28.5860934,50.6836598 Z M57.1714274,42.5748361 C56.7907469,42.4479004 56.3713402,42.557751 56.1016494,42.854778 C55.8319585,43.151805 55.763112,43.579944 55.9259896,43.9464502 C55.942695,43.9840373 57.3689813,47.2213402 57.763583,50.2214772 C57.2738112,50.0537905 56.7083589,49.8563631 56.1768237,49.6680477 C55.7952573,49.5328859 55.3702822,49.6379274 55.0956556,49.9348278 C54.8209025,50.2318548 54.7493983,50.663917 54.913668,51.0334606 C55.3145975,51.9354253 55.7699461,53.2969149 55.9056141,54.3297386 C55.3807863,54.1504087 54.7453485,53.928556 54.1530664,53.7180934 C53.7816245,53.586222 53.3680394,53.6815187 53.0918942,53.9625996 C52.815749,54.2434274 52.727666,54.6587842 52.8659917,55.027695 C53.0072282,55.4044523 53.2752739,56.437529 53.1687137,57.3734108 L49.1277801,55.7571639 C48.8647967,55.6518693 48.5697946,55.6617407 48.3141515,55.7841203 C48.0586349,55.9065 47.8661432,56.1303776 47.7835021,56.401334 C47.617334,56.9450187 47.4319295,57.5380602 47.269305,58.0446639 C46.1349834,57.2112925 44.9888921,56.6082531 44.1718465,56.2285851 C45.7483548,54.6678963 46.7267593,52.5044212 46.7267593,50.1161826 C46.7267593,49.8300394 46.713471,49.5352905 46.6914502,49.234973 C50.5047095,47.1910934 54.0818154,43.0878942 55.7097054,38.8349793 C55.9096639,38.3128091 55.6484523,37.727361 55.1261556,37.5274025 C54.604112,37.327444 54.0186639,37.5886556 53.8187054,38.1109523 C52.4684793,41.638195 49.5116245,45.1616411 46.380249,47.0795975 C45.3655228,42.1822593 42.2697095,36.1962863 39.194778,31.8165622 C38.8734523,31.3589357 38.2419378,31.2484523 37.7843112,31.5696515 C37.3266846,31.8909772 37.2162012,32.5223651 37.537527,32.9801183 C40.9880768,37.8949212 44.7017365,45.3537531 44.7017365,50.1161826 C44.7017365,53.7449232 41.7495643,56.6970954 38.1208237,56.6970954 C34.9957759,56.6970954 32.4864232,56.153917 31.5399108,55.2951079 L31.5399108,53.4648548 C32.362778,53.259834 33.1667884,52.813471 33.8920809,52.1236141 C33.9014461,52.1147552 33.9105581,52.1056432 33.9195436,52.0965311 L35.6731037,50.2962718 C35.6857593,50.2833631 35.6979087,50.2700747 35.709805,50.2566598 C37.0407946,48.7353299 36.8159046,47.5751909 36.5635519,47.0189772 C36.3111992,46.4627635 35.5859066,45.5295394 33.5648071,45.5295394 L27.4901183,45.5295394 C25.4690187,45.5295394 24.7438527,46.4627635 24.4915,47.0188506 C24.2391473,47.5751909 24.0142573,48.7353299 25.3452469,50.2565332 C25.3571432,50.2699481 25.3692925,50.2832365 25.3819481,50.2961452 L27.141583,52.1026058 C27.8562448,52.8235954 28.6697469,53.2822344 29.5150145,53.4810539 L29.5150145,55.2940954 C28.4424523,56.2560477 25.4344689,56.6969689 22.9341017,56.6969689 C19.305361,56.6969689 16.3531888,53.7447967 16.3531888,50.116056 C16.3531888,45.3005996 19.9418112,38.0399544 23.4984149,32.9806245 C23.8199938,32.5231245 23.70989,31.89161 23.25239,31.5700311 C22.7952697,31.2484523 22.1635021,31.358556 21.8417967,31.816056 C18.7704087,36.1854025 15.678139,42.1734004 14.6701203,47.0871909 C11.4876162,45.1708797 8.48064523,41.6403465 7.10928423,38.1066494 C6.90704772,37.5853651 6.32046058,37.3266846 5.79917635,37.5290477 C5.27789212,37.7314108 5.01921162,38.3178714 5.22157469,38.8392822 C6.87224481,43.093083 10.4983278,47.1966618 14.3629689,49.2388963 C14.3414544,49.5375685 14.3282925,49.8310519 14.3282925,50.1161826 C14.3282925,52.5044212 15.3068237,54.6680228 16.883332,56.2285851 C16.0662863,56.6082531 14.9203216,57.2112925 13.786,58.0446639 C13.6233755,57.5380602 13.4378444,56.9450187 13.2718029,56.4012075 C13.1890353,56.130251 12.996417,55.9065 12.741027,55.7841203 C12.4856369,55.6617407 12.1903817,55.6519959 11.9275249,55.7571639 L7.88557884,57.373917 C7.77927178,56.449805 8.04023029,55.4320415 8.18931328,55.027695 C8.327639,54.6589108 8.23942946,54.2434274 7.96341079,53.9625996 C7.687139,53.6815187 7.27330083,53.5860954 6.90223859,53.7180934 C6.3103361,53.9284295 5.67527801,54.1501556 5.15045021,54.3293589 C5.28687759,53.2975477 5.74159336,51.9360581 6.14151037,51.0334606 C6.30590664,50.663917 6.23427593,50.2318548 5.95952282,49.9348278 C5.68476971,49.6378008 5.25966805,49.5328859 4.87822822,49.6680477 C4.34694606,49.8562365 3.78149378,50.0535373 3.29184855,50.2214772 C3.68695643,47.2256432 5.1124834,43.9837842 5.12906224,43.9464502 C5.29193983,43.579944 5.22309336,43.151805 4.95340249,42.854778 C4.68371162,42.557751 4.26405187,42.448027 3.88375104,42.5748361 L2.30382573,43.1015622 C2.73158506,40.3078382 4.11345021,36.868805 4.13002905,36.8280539 C4.25620539,36.5159668 4.21912448,36.1613568 4.03106224,35.8823008 C3.84274689,35.6031183 3.52812863,35.4356846 3.19148963,35.4356846 L2.37988589,35.4356846 C2.64324896,34.2180892 3.20553734,32.1034647 4.32479876,29.5051432 C4.24304357,30.5211349 4.20393776,31.4933382 4.20393776,32.3983402 C4.20393776,32.9574647 4.65726141,33.4107884 5.21638589,33.4107884 C5.77563693,33.4107884 6.22883402,32.9574647 6.22883402,32.3983402 C6.22883402,26.0480124 8.09414315,19.2210747 10.9808859,15.0061266 C11.1407261,14.7727573 11.1955249,14.4833237 11.1323734,14.2075581 C11.0690954,13.9319191 10.8934357,13.6952593 10.647917,13.5549087 C10.0541162,13.2154855 9.34894606,13.005529 8.5325332,12.7622884 C7.48591494,12.4505809 6.18352697,12.0625602 4.68269917,11.2571577 C2.3021805,9.9798278 1.77887137,7.25102697 2.31622822,5.11336929 C2.70247718,3.57609336 3.74922199,2.02489627 5.21638589,2.02489627 C6.52927801,2.02489627 8.01529876,3.60545436 9.58876971,5.27865145 C10.8950809,6.66810996 12.3217469,8.18501037 13.9844398,9.14240664 C13.0580498,9.4339917 12.2463195,9.45259544 11.5862033,9.1856888 C11.0675768,8.97623859 10.4776992,9.22669295 10.2681224,9.74493983 C10.0585456,10.2633133 10.3088734,10.853444 10.8272469,11.0630207 C11.2933527,11.2513361 11.8869004,11.3958631 12.6121929,11.3958631 C13.7563859,11.3958631 15.2282324,11.0351784 17.0401349,9.92123237 C20.6379959,8.04086307 25.1754087,7.08713693 30.5275892,7.08713693 C35.8845788,7.08713693 40.4257884,8.04238174 44.025168,9.92642116 C44.1251473,9.9786888 44.2324668,10.0133651 44.342444,10.0300705 C46.0717054,11.0582116 47.4836909,11.3959896 48.5895373,11.3959896 C49.3145768,11.3959896 49.9086307,11.2514627 50.3744834,11.0631473 C50.8928568,10.8535705 51.1431846,10.2634398 50.9336079,9.74506639 C50.7241577,9.22656639 50.1341535,8.97636515 49.615527,9.18581535 C48.9247842,9.46525104 48.0687593,9.4339917 47.0879502,9.10190871 C48.7190041,8.14185477 50.1226369,6.64862033 51.4089523,5.27991701 C52.9821701,3.60596058 54.4680643,2.02489627 55.7807033,2.02489627 C57.2478672,2.02489627 58.2944855,3.57609336 58.680861,5.11336929 C59.2182178,7.25115353 58.6947822,9.97995436 56.31439,11.2571577 C54.8134357,12.0626867 53.5109212,12.4504544 52.4643029,12.7621618 C51.6706701,12.9985685 50.9852427,13.2025768 50.4029585,13.5242822 C50.1457967,13.666278 49.9630498,13.9129357 49.9020498,14.2002178 C49.8410498,14.4875 49.9077448,14.7871846 50.0849232,15.0213133 C53.2311058,19.1798174 54.8263444,25.0263257 54.8263444,32.3982137 C54.8263444,32.9573382 55.279668,33.4106618 55.8387925,33.4106618 C56.3980436,33.4106618 56.8512407,32.9573382 56.8512407,32.3982137 C56.8512407,31.4451203 56.8247905,30.5156929 56.7734087,29.6092988 C57.8597656,32.1559855 58.4118029,34.2325166 58.6735207,35.4355581 L57.8638154,35.4355581 C57.5271763,35.4355581 57.2125581,35.6029917 57.0243693,35.8821743 C56.8361805,36.1613568 56.7990996,36.5158402 56.9254025,36.8279274 C56.9418548,36.8686784 58.3238465,40.3077116 58.7516058,43.1014357 L57.1714274,42.5748361 Z" id="Shape" fill="#000000"></path>
                    <path d="M19.3914191,13.2032095 C19.5341743,13.2032095 19.6792075,13.1727095 19.8172801,13.1085456 C22.5144419,11.8556411 26.4183154,11.1369295 30.5275892,11.1369295 C34.6369896,11.1369295 38.5407365,11.8556411 41.2380249,13.1086722 C41.745388,13.3441929 42.3472884,13.1242386 42.5828091,12.6170021 C42.8183299,12.1097656 42.598249,11.5078651 42.091139,11.2722178 C39.1359295,9.89946473 34.921361,9.1120332 30.5275892,9.1120332 C26.133944,9.1120332 21.919249,9.89946473 18.964166,11.2722178 C18.457056,11.5078651 18.2369751,12.1098921 18.4724959,12.6168755 C18.6438527,12.9860394 19.009473,13.2032095 19.3914191,13.2032095 Z" id="Shape" fill="#000000"></path>
                    <path d="M41.1127344,15.3385892 C38.4055747,13.9552054 34.547388,13.1618257 30.5274627,13.1618257 C26.5076639,13.1618257 22.6494772,13.955332 19.9423174,15.3385892 C19.4443195,15.5930934 19.2470187,16.2030934 19.5013963,16.7009647 C19.680473,17.0513983 20.0355892,17.2530021 20.4038672,17.2530021 C20.5588983,17.2530021 20.716334,17.2171867 20.8637718,17.1417593 C23.295166,15.8993589 26.817473,15.186722 30.5275892,15.186722 C34.2377054,15.186722 37.7600124,15.8993589 40.1914066,17.1417593 C40.689278,17.3961369 41.299278,17.1988361 41.5536556,16.7009647 C41.8081598,16.2030934 41.6107324,15.5930934 41.1127344,15.3385892 Z" id="Shape" fill="#000000"></path>
                    <path d="M40.1395187,19.4095166 C37.6793963,18.0127178 34.1760726,17.2116183 30.5275892,17.2116183 C26.8792324,17.2116183 23.3757822,18.0127178 20.9156598,19.4095166 C20.4294315,19.6856618 20.2590871,20.3036349 20.5351058,20.7898631 C20.8113776,21.2760913 21.4292241,21.4464357 21.9154523,21.170417 C24.0799398,19.9414315 27.2190353,19.2365145 30.5275892,19.2365145 C33.8362697,19.2365145 36.975112,19.9414315 39.1397261,21.170417 C39.297668,21.2600187 39.469278,21.3025415 39.6387365,21.3025415 C39.9910685,21.3025415 40.333529,21.1181494 40.5200726,20.7898631 C40.7960913,20.3036349 40.6257469,19.6856618 40.1395187,19.4095166 Z" id="Shape" fill="#000000"></path>
                    <path d="M10.2781203,31.4166452 C10.2952054,30.8577739 9.8558029,30.3909087 9.29680498,30.3739502 C8.73894606,30.3585104 8.27119502,30.7963942 8.25423651,31.3552656 C8.11907469,35.8191494 9.30414523,38.1637261 10.4256846,40.0110643 C10.6161515,40.3247967 10.9500062,40.4981784 11.2920871,40.4981784 C11.4710373,40.4981784 11.6523921,40.4507199 11.8166618,40.3509938 C12.2945373,40.0609274 12.4467842,39.4381452 12.1567178,38.9601432 C11.1411058,37.2875788 10.1596639,35.3276058 10.2781203,31.4166452 Z" id="Shape" fill="#000000"></path>
                    <path d="M51.748249,30.3739502 C51.1893776,30.3909087 50.7499751,30.8577739 50.7669336,31.4166452 C50.8855166,35.3274793 49.9039481,37.2875788 48.8885892,38.9600166 C48.5983963,39.4380187 48.7505166,40.0608008 49.2286452,40.3508672 C49.3927884,40.4505934 49.5740166,40.4980519 49.7530934,40.4980519 C50.0951743,40.4980519 50.429029,40.3246701 50.6196224,40.0109378 C51.7410353,38.1635996 52.9263589,35.8190228 52.790944,31.355139 C52.7739855,30.7962676 52.306361,30.3578776 51.748249,30.3739502 Z" id="Shape" fill="#000000"></path>
                    <path d="M14.4391556,23.571944 C13.3488755,22.004168 11.7011162,19.6350394 12.1903817,18.6891598 C12.4471639,18.1925539 12.2527739,17.581668 11.756168,17.3247593 C11.2594357,17.0678506 10.6486763,17.2622407 10.3917676,17.7588465 C9.34173237,19.7889315 11.1666701,22.4128174 12.7767158,24.7279066 C13.3844378,25.6016494 14.3024751,26.9216286 14.3284191,27.3385041 C14.3299378,27.8964896 14.7826286,28.3482946 15.3408672,28.3482946 C15.9001183,28.3482946 16.3533154,27.894971 16.3533154,27.3358465 C16.3533154,26.3244108 15.5085539,25.1097261 14.4391556,23.571944 Z" id="Shape" fill="#000000"></path>
                    <path d="M50.4686411,17.758973 C50.2117324,17.2623672 49.600973,17.0678506 49.1042407,17.3248859 C48.6075083,17.5817946 48.4131183,18.1925539 48.670027,18.6892863 C49.1592925,19.6350394 47.5115332,22.0042946 46.4212531,23.5720705 C45.3518548,25.1098527 44.5070934,26.3246639 44.5070934,27.3362261 C44.5070934,27.8953506 44.960417,28.3506992 45.5195415,28.3506992 C46.078666,28.3506992 46.5319896,27.8992739 46.5319896,27.3401494 C46.5561618,26.9245394 47.4754647,25.6027884 48.0836929,24.7281598 C49.6937386,22.412944 51.5186763,19.7889315 50.4686411,17.758973 Z" id="Shape" fill="#000000"></path>
                </g>
            </g>
        </g>
    </g>
</svg>