<?xml version="1.0" encoding="UTF-8" standalone="no"?>
<svg width="84px" height="96px" viewBox="0 0 84 96" version="1.1" xmlns="http://www.w3.org/2000/svg" xmlns:xlink="http://www.w3.org/1999/xlink">
    <!-- Generator: Sketch 49.1 (51147) - http://www.bohemiancoding.com/sketch -->
    <title>Group 20</title>
    <desc>Created with Sketch.</desc>
    <defs>
        <linearGradient x1="126.664402%" y1="146.704102%" x2="0%" y2="0%" id="linearGradient-1">
            <stop stop-color="#34A853" offset="0%"></stop>
            <stop stop-color="#97D48D" offset="100%"></stop>
        </linearGradient>
    </defs>
    <g id="Page-1" stroke="none" stroke-width="1" fill="none" fill-rule="evenodd">
        <g id="Pixel" transform="translate(-172.000000, -3549.000000)">
            <g id="Group-20" transform="translate(162.000000, 3549.000000)">
                <path d="M62.0791102,103 C85.3187611,103 102.262765,88.1299559 70.7034323,60 C39.1440997,31.8700441 85.3187611,17 62.0791102,17 C38.8394594,17 20,36.2517558 20,60 C20,83.7482442 38.8394594,103 62.0791102,103 Z" id="Oval-2-Copy-6" fill="url(#linearGradient-1)" opacity="0.0801072761" transform="translate(54.000000, 60.000000) rotate(-117.000000) translate(-54.000000, -60.000000) "></path>
                <g id="growth" transform="translate(14.000000, 0.000000)" fill-rule="nonzero">
                    <path d="M23.8684647,41.6804979 C28.0875519,37.4614108 35.0286307,34.3311203 39.1116183,35.5560166 C40.3365145,39.6390041 37.3423237,46.580083 32.9871369,50.7991701 C28.7680498,55.0182573 24.5489627,55.426556 20.3298755,54.2016598 C19.2410788,50.2547718 19.6493776,46.0356846 23.8684647,41.6804979 Z" id="Shape" fill="#239B02"></path>
                    <path d="M20.4659751,54.3377593 C19.2410788,50.1186722 19.6493776,45.8995851 23.8684647,41.6804979 C28.0875519,37.4614108 35.0286307,34.3311203 39.1116183,35.5560166" id="Shape" fill="#34B515"></path>
                    <path d="M17.0634855,41.6804979 C12.8443983,37.4614108 5.9033195,34.3311203 1.82033195,35.5560166 C0.595435685,39.6390041 3.58962656,46.580083 7.94481328,50.7991701 C12.1639004,55.0182573 16.3829876,55.426556 20.6020747,54.2016598 C21.6908714,50.2547718 21.2825726,46.0356846 17.0634855,41.6804979 Z" id="Shape" fill="#239B02"></path>
                    <path d="M20.4659751,54.3377593 C21.6908714,50.1186722 21.2825726,45.8995851 17.0634855,41.6804979 C12.8443983,37.4614108 5.9033195,34.3311203 1.82033195,35.5560166" id="Shape" fill="#34B515"></path>
                    <rect id="Rectangle-path" fill="#683100" x="19.1049793" y="33.786722" width="2.7219917" height="24.4979253"></rect>
                    <path d="M1.54813278,56.9236515 C1.4120332,56.9236515 1.4120332,58.6929461 1.4120332,59.6456432 C1.4120332,72.166805 9.98630705,82.1020747 20.4659751,82.1020747 C30.9456432,82.1020747 39.519917,72.166805 39.519917,59.6456432 C39.519917,58.5568465 39.3838174,56.7875519 39.3838174,56.7875519 L1.54813278,56.7875519 L1.54813278,56.9236515 Z" id="Shape" fill="#894400"></path>
                    <path d="M20.4659751,82.3742739 C30.9456432,82.3742739 39.519917,72.3029046 39.519917,59.9178423 C39.519917,58.8290456 39.3838174,57.059751 39.2477178,57.059751 L16.3829876,57.059751" id="Shape" fill="#683100"></path>
                    <rect id="Rectangle-path" fill="#C67812" x="0.0510373444" y="52.8406639" width="40.8298755" height="5.4439834"></rect>
                    <rect id="Rectangle-path" fill="#683100" x="8.21701245" y="78.6995851" width="24.4979253" height="5.4439834"></rect>
                    <circle id="Oval" fill="#04AF76" cx="20.4659751" cy="17.8630705" r="17.8290456"></circle>
                    <path d="M7.80871369,5.20580913 C14.7497925,-1.73526971 26.0460581,-1.73526971 33.1232365,5.20580913 C40.0643154,12.146888 40.0643154,23.4431535 33.1232365,30.520332" id="Shape" fill="#008C61"></path>
                    <path d="M19.1049793,32.4257261 L19.1049793,28.6149378 C16.3829876,28.4788382 14.3414938,27.9344398 12.9804979,27.1178423 L13.933195,23.1709544 C15.4302905,23.9875519 17.3356846,24.6680498 19.513278,24.6680498 C21.4186722,24.6680498 22.779668,23.8514523 22.779668,22.4904564 C22.779668,21.1294606 21.6908714,20.3128631 19.1049793,19.4962656 C15.4302905,18.2713693 13.1165975,16.5020747 13.1165975,13.2356846 C13.1165975,10.2414938 15.0219917,7.79170124 19.1049793,7.11120332 L19.1049793,3.84481328 L21.826971,3.84481328 L21.826971,6.83900415 C24.5489627,6.97510373 25.9099585,7.38340249 26.9987552,7.92780083 L26.0460581,11.7385892 C25.093361,11.3302905 23.5962656,10.5136929 21.146473,10.5136929 C18.9688797,10.5136929 18.1522822,11.46639 18.1522822,12.4190871 C18.1522822,13.5078838 19.3771784,14.3244813 22.2352697,15.413278 C26.3182573,16.9103734 27.8153527,18.679668 27.8153527,21.8099585 C27.8153527,24.8041494 25.7738589,27.5261411 21.6908714,28.206639 L21.6908714,32.2896266 L19.1049793,32.2896266 L19.1049793,32.4257261 Z" id="Shape" fill="#FFF6E1"></path>
                    <g id="Group" transform="translate(20.414938, 3.742739)" fill="#FFEEBD">
                        <path d="M0.0510373444,0.102074689 L0.0510373444,7.04315353 C0.0510373444,7.04315353 0.4593361,7.04315353 0.73153527,7.04315353 C3.1813278,7.04315353 4.81452282,7.85975104 5.63112033,8.26804979 L6.44771784,4.45726141 C5.35892116,3.77676349 4.1340249,3.23236515 1.4120332,3.09626556 L1.4120332,0.102074689 L0.0510373444,0.102074689 Z" id="Shape"></path>
                        <path d="M1.95643154,11.806639 C1.27593361,11.5344398 0.4593361,11.2622407 0.0510373444,10.9900415 L0.0510373444,16.1618257 C1.4120332,16.8423237 2.50082988,17.6589212 2.50082988,18.6116183 C2.50082988,19.7004149 1.54813278,20.5170124 0.0510373444,20.653112 L0.0510373444,28.6829876 L1.4120332,28.6829876 L1.4120332,24.6 C5.49502075,23.9195021 7.53651452,21.33361 7.53651452,18.2033195 C7.53651452,15.2091286 6.03941909,13.3037344 1.95643154,11.806639 Z" id="Shape"></path>
                    </g>
                </g>
            </g>
        </g>
    </g>
</svg>