<?xml version="1.0" encoding="UTF-8" standalone="no"?>
<svg width="210px" height="59px" viewBox="0 0 210 59" version="1.1" xmlns="http://www.w3.org/2000/svg" xmlns:xlink="http://www.w3.org/1999/xlink">
    <!-- Generator: Sketch 49.1 (51147) - http://www.bohemiancoding.com/sketch -->
    <title>Group 6</title>
    <desc>Created with Sketch.</desc>
    <defs></defs>
    <g id="Page-1" stroke="none" stroke-width="1" fill="none" fill-rule="evenodd">
        <g id="Pixel-Copy-2" transform="translate(-549.000000, -757.000000)">
            <g id="Group-6" transform="translate(549.000000, 757.000000)">
                <g id="Group-3" transform="translate(79.000000, 9.000000)" fill="#646464">
                    <text id="Help-Center" font-family="Roboto-Black, Roboto" font-size="16" font-weight="700">
                        <tspan x="0" y="15">Help Center</tspan>
                    </text>
                    <text id="24/7-Support-System" font-family="Roboto-Regular, Roboto" font-size="14" font-weight="normal">
                        <tspan x="0" y="37">24/7 Support System</tspan>
                    </text>
                </g>
                <g id="call-center" fill-rule="nonzero">
                    <path d="M59,29.5 C59,38.1560822 55.271988,45.9407043 49.3338166,51.3373642 C46.8135147,53.6271973 43.8961945,55.486702 40.69664,56.8015442 C37.2445602,58.2185669 33.4638825,59 29.5,59 C25.5347672,59 21.7540894,58.2185669 18.3006592,56.7988434 C16.8354721,56.1992645 15.4301529,55.4831009 14.096405,54.6643066 C12.514183,53.6938171 11.0318909,52.5788346 9.6652832,51.3360139 C3.72801203,45.9407043 0,38.1547318 0,29.5 C0,13.2073898 13.2073898,0 29.5,0 C45.7926102,0 59,13.2073898 59,29.5 Z" id="Shape" fill="#52B5D8"></path>
                    <path d="M44.7172394,20.1138 L44.7172394,46.623558 L14.2814102,46.623558 L14.2814102,20.1138 C14.2814102,11.7097931 21.0955429,4.89656073 29.5,4.89656073 C37.9044571,4.89656073 44.7172394,11.7097931 44.7172394,20.1138 Z" id="Shape" fill="#55627A"></path>
                    <path d="M26.9040756,39.2503586 C27.1836091,40.4076538 24.655655,45.6458664 24.769989,46.623558 L14.2814102,46.623558 L14.2814102,20.1138 C14.2814102,11.7097931 21.0955429,4.89656073 29.5,4.89656073 C23.8431625,4.89656073 20.140358,16.7801056 22.3644714,33.7411652 C22.7677917,36.8151322 26.0884323,35.8833542 26.9040756,39.2503586 Z" id="Shape" fill="#36435E"></path>
                    <path d="M49.3338166,51.3373642 C44.0947037,56.0979843 37.1374283,59 29.5,59 C23.8539657,59 18.5788421,57.4141769 14.096405,54.6643066 C12.514183,53.6938171 11.0318909,52.5788346 9.6652832,51.3360139 L15.0367355,43.8925934 C15.8312225,42.7929154 17.1051025,42.1406707 18.4622574,42.1406707 L40.5354919,42.1406707 C41.8912964,42.1406707 43.1665268,42.7929154 43.9610139,43.8925934 L49.3338166,51.3373642 Z" id="Shape" fill="#F76C59"></path>
                    <path d="M34.0981217,37.4363175 L34.0981217,42.5516434 C32.0752182,46.1288605 26.922081,46.1288605 24.8991776,42.5516434 L24.8991776,37.4363175 L34.0981217,37.4363175 Z" id="Shape" fill="#EFA492"></path>
                    <path d="M41.4731217,25.0243149 L41.4731217,28.4214783 C41.4731217,34.6099243 36.7800216,39.6991424 30.7590255,40.3288803 C30.3462524,40.3720932 29.9249268,40.3941497 29.5004501,40.3941497 C22.8870773,40.3941497 17.5259781,35.0348511 17.5259781,28.4214783 L17.5259781,25.0243149 C17.5259781,18.4127426 22.8870773,13.0520935 29.5004501,13.0520935 C29.9249268,13.0520935 30.3462524,13.0737 30.7590255,13.1173629 C33.5638123,13.4095002 36.0782624,14.6698762 37.9665756,16.5581894 C40.1317215,18.7251358 41.4731217,21.719429 41.4731217,25.0243149 Z" id="Shape" fill="#EFA492"></path>
                    <path d="M41.4731217,25.0243149 L41.4731217,28.4214783 C41.4731217,34.6099243 36.7800216,39.6991424 30.7590255,40.3288803 C24.736679,39.6991424 20.0440292,34.6099243 20.0440292,28.4214783 L20.0440292,25.0243149 C20.0440292,18.8376693 24.736679,13.7466507 30.7590255,13.1173629 C33.5638123,13.4095002 36.0782624,14.6698762 37.9665756,16.5581894 C40.1317215,18.7251358 41.4731217,21.719429 41.4731217,25.0243149 Z" id="Shape" fill="#FFBDA9"></path>
                    <path d="M24.3684692,23.0743332 C25.0792313,23.0743332 25.6554032,23.650505 25.6554032,24.3612671 L25.6554032,26.3787689 C25.6554032,27.0895309 25.0792313,27.6657028 24.3684692,27.6657028 C23.6577072,27.6657028 23.0815353,27.0895309 23.0815353,26.3787689 L23.0815353,24.3612671 C23.0815353,23.650505 23.6577072,23.0743332 24.3684692,23.0743332 Z" id="Shape" fill="#3B404D"></path>
                    <path d="M34.6288299,23.0743332 C35.339592,23.0743332 35.9157638,23.650505 35.9157638,24.3612671 L35.9157638,26.3787689 C35.9157638,27.0895309 35.339592,27.6657028 34.6288299,27.6657028 C33.918068,27.6657028 33.3418961,27.0895309 33.3418961,26.3787689 L33.3418961,24.3612671 C33.3418961,23.650505 33.918068,23.0743332 34.6288299,23.0743332 Z" id="Shape" fill="#3B404D"></path>
                    <g id="Group" transform="translate(22.125000, 18.667969)" fill="#EFA492">
                        <path d="M4.45137784,6.312233 C4.45137784,5.09281916 3.46288297,4.1043244 2.24346924,4.1043244 C1.02405551,4.1043244 0.0355606367,5.09281916 0.0355606367,6.312233 L4.45137784,6.312233 Z" id="Shape"></path>
                        <path d="M14.7117386,6.312233 C14.7117386,5.09281916 13.7232437,4.1043244 12.5038299,4.1043244 C11.2844162,4.1043244 10.2959213,5.09281916 10.2959213,6.312233 L14.7117386,6.312233 Z" id="Shape"></path>
                        <polyline id="Shape" points="7.37454989 0.0720214844 5.52854914 11.5851059 7.37454989 11.5851059"></polyline>
                    </g>
                    <path d="M43.0508423,24.4670487 C31.4121704,24.4670487 24.0268173,17.7532959 24.0268173,17.7532959 C24.0268173,18.9416504 23.0603791,20.3699264 21.766243,21.5366745 C20.0120696,23.1193466 17.6587678,24.2172241 16.3061142,23.5726318 L15.9703141,19.9922639 L18.7683487,14.0608444 L22.9663009,13.0016785 L30.7410202,11.0395431 L40.3653411,14.8445281 L43.0508423,24.4670487 Z" id="Shape" fill="#55627A"></path>
                    <path d="M22.9663009,13.0016785 C22.3302612,15.4049454 21.9120865,18.2804032 21.766243,21.5366745 C20.0120696,23.1193466 17.6587678,24.2172241 16.3061142,23.5726318 L15.9703141,19.9922639 L18.9578552,11.6553268 L22.9663009,13.0016785 Z" id="Shape" fill="#36435E"></path>
                    <path d="M38.668335,29.506752 C38.668335,28.9040222 37.6726379,28.4156266 36.4442215,28.4156266 C35.2162552,28.4156266 34.2205582,28.9040222 34.2205582,29.506752 C34.2205582,30.1094818 35.2162552,30.5978775 36.4442215,30.5978775 C37.6726379,30.5978775 38.668335,30.1094818 38.668335,29.506752 Z" id="Shape" fill="#EFA492"></path>
                    <path d="M24.7789917,29.506752 C24.7789917,28.9040222 23.7832947,28.4156266 22.5548783,28.4156266 C21.3264617,28.4156266 20.3307648,28.9040222 20.3307648,29.506752 C20.3307648,30.1094818 21.3264617,30.5978775 22.5548783,30.5978775 C23.7832947,30.5978775 24.7789917,30.1094818 24.7789917,29.506752 Z" id="Shape" fill="#EFA492"></path>
                    <path d="M29.8610076,35.7411117 C28.9809952,35.7411117 28.1000823,35.5511551 27.2443771,35.1703415 C27.0467682,35.0825652 26.9306335,34.7517166 26.9846497,34.4307708 C27.0386658,34.1102752 27.2425766,33.9212189 27.4397354,34.008995 C29.023758,34.7134553 30.6987076,34.7134553 32.2827302,34.008995 C32.4798889,33.921669 32.6837997,34.1102752 32.7378158,34.4307708 C32.7918319,34.7517166 32.6756974,35.0830155 32.4780884,35.1703415 C31.6223831,35.5511551 30.7414704,35.7411117 29.8610076,35.7411117 Z" id="Shape" fill="#EFA492"></path>
                    <path d="M47.3068619,23.70047 L44.5245819,23.70047 L44.5245819,17.8122635 C44.5245819,9.52709195 37.7842712,2.78723145 29.4995499,2.78723145 C21.2143783,2.78723145 14.4740677,9.52709195 14.4740677,17.8122635 L14.4740677,23.70047 L11.6917878,23.70047 L11.6917878,17.8122635 C11.6917878,7.99303433 19.6803207,0.00450134277 29.4995499,0.00450134277 C39.318779,0.00450134277 47.3068619,7.99303433 47.3068619,17.8122635 L47.3068619,23.70047 Z" id="Shape" fill="#F76C59"></path>
                    <path d="M43.861084,36.4995881 L41.0472946,36.4995881 L41.0472946,33.717308 L43.861084,33.717308 C44.2270431,33.717308 44.5245819,33.4197693 44.5245819,33.0538101 L44.5245819,30.2391204 L47.3068619,30.2391204 L47.3068619,33.0538101 C47.3068619,34.9538269 45.7611007,36.4995881 43.861084,36.4995881 Z" id="Shape" fill="#F76C59"></path>
                    <path d="M24.8991776,42.1406707 L20.3042069,44.0078278 C18.8894348,44.5848999 17.7663498,45.7057342 17.187027,47.1191559 L14.096405,54.6643066 C12.514183,53.6938171 11.0318909,52.5788346 9.6652832,51.3360139 L15.0367355,43.8925934 C15.8312225,42.7929154 17.1051025,42.1406707 18.4622574,42.1406707 L24.8991776,42.1406707 Z" id="Shape" fill="#E85142"></path>
                    <path d="M47.0984497,17.1618195 L44.7329941,17.1618195 C43.3884431,17.1618195 42.2986679,18.2515946 42.2986679,19.5961457 L42.2986679,27.8047943 C42.2986679,29.1493454 43.3884431,30.2391204 44.7329941,30.2391204 L47.0984497,30.2391204 C48.4430008,30.2391204 49.533226,29.1493454 49.533226,27.8047943 L49.533226,19.5961457 C49.533226,18.2515946 48.4430008,17.1618195 47.0984497,17.1618195 Z" id="Shape" fill="#FFDA73"></path>
                    <path d="M14.2656555,17.1618195 L11.9001999,17.1618195 C10.5556487,17.1618195 9.46587369,18.2515946 9.46587369,19.5961457 L9.46587369,27.8047943 C9.46587369,29.1493454 10.5556487,30.2391204 11.9001999,30.2391204 L14.2656555,30.2391204 C15.6102066,30.2391204 16.7004318,29.1493454 16.7004318,27.8047943 L16.7004318,19.5961457 C16.6999817,18.2515946 15.6102066,17.1618195 14.2656555,17.1618195 Z" id="Shape" fill="#FFDA73"></path>
                    <path d="M49.533226,24.8829727 L49.533226,27.8047943 C49.533226,29.1497956 48.443901,30.2391204 47.0984497,30.2391204 L44.7334442,30.2391204 C43.3884431,30.2391204 42.299118,29.1497956 42.299118,27.8047943 L42.299118,24.8829727 C42.299118,26.2284241 43.3884431,27.317749 44.7334442,27.317749 L47.0984497,27.317749 C48.443901,27.317749 49.533226,26.2284241 49.533226,24.8829727 Z" id="Shape" fill="#F9A54B"></path>
                    <path d="M16.7004318,24.8829727 L16.7004318,27.8047943 C16.7004318,29.1497956 15.6111068,30.2391204 14.2656555,30.2391204 L11.9006501,30.2391204 C10.5556487,30.2391204 9.46632391,29.1497956 9.46632391,27.8047943 L9.46632391,24.8829727 C9.46632391,26.2284241 10.5556487,27.317749 11.9006501,27.317749 L14.2656555,27.317749 C15.6111068,27.317749 16.7004318,26.2284241 16.7004318,24.8829727 Z" id="Shape" fill="#F9A54B"></path>
                    <path d="M40.9437638,32.6738968 L39.5740051,32.6738968 C38.2488098,32.6738968 37.1747894,33.7479171 37.1747894,35.0731125 C37.1747894,36.3978577 38.2488098,37.4718781 39.5740051,37.4718781 L40.9437638,37.4718781 C42.268509,37.4718781 43.3425293,36.3978577 43.3425293,35.0731125 C43.3425293,33.7479171 42.268509,32.6738968 40.9437638,32.6738968 Z" id="Shape" fill="#3B404D"></path>
                    <path d="M40.69664,46.4448547 L40.69664,56.8015442 C37.2445602,58.2185669 33.4638825,59 29.5,59 C25.5347672,59 21.7540894,58.2185669 18.3006592,56.7988434 L18.3006592,46.4448547 L40.69664,46.4448547 Z" id="Shape" fill="#E6E6E6"></path>
                    <polygon id="Shape" fill="#55627A" points="20.8691253 50.0612336 38.1286239 50.0612336 38.1286239 52.22863 20.8691253 52.22863"></polygon>
                    <polygon id="Shape" fill="#55627A" points="20.8691253 54.2569351 38.1286239 54.2569351 38.1286239 56.4243317 20.8691253 56.4243317"></polygon>
                </g>
            </g>
        </g>
    </g>
</svg>