<?xml version="1.0" encoding="UTF-8" standalone="no"?>
<svg width="91px" height="80px" viewBox="0 0 91 80" version="1.1" xmlns="http://www.w3.org/2000/svg" xmlns:xlink="http://www.w3.org/1999/xlink">
    <!-- Generator: Sketch 49.1 (51147) - http://www.bohemiancoding.com/sketch -->
    <title>Group 17</title>
    <desc>Created with Sketch.</desc>
    <defs>
        <linearGradient x1="126.664402%" y1="146.704102%" x2="0%" y2="0%" id="linearGradient-1">
            <stop stop-color="#34A853" offset="0%"></stop>
            <stop stop-color="#97D48D" offset="100%"></stop>
        </linearGradient>
    </defs>
    <g id="Page-1" stroke="none" stroke-width="1" fill="none" fill-rule="evenodd">
        <g id="Pixel" transform="translate(-463.000000, -3307.000000)">
            <g id="Group-17" transform="translate(460.000000, 3301.000000)">
                <path d="M62.0791102,93 C85.3187611,93 102.262765,78.1299559 70.7034323,50 C39.1440997,21.8700441 85.3187611,7 62.0791102,7 C38.8394594,7 20,26.2517558 20,50 C20,73.7482442 38.8394594,93 62.0791102,93 Z" id="Oval-2-Copy-6" fill="url(#linearGradient-1)" opacity="0.0801072761" transform="translate(54.000000, 50.000000) rotate(-117.000000) translate(-54.000000, -50.000000) "></path>
                <g id="market" transform="translate(3.000000, 15.000000)" fill-rule="nonzero">
                    <path d="M11.3928571,27.9642857 L10.3571429,27.9642857 C9.21306696,27.9642857 8.28571429,28.8916384 8.28571429,30.0357143 L8.28571429,31.0714286 C8.28908036,33.93 10.6057143,36.2466339 13.4642857,36.25 L14.5,36.25 C15.6440759,36.25 16.5714286,35.3226473 16.5714286,34.1785714 L16.5714286,33.1428571 C16.5680625,30.2842857 14.2514286,27.9676518 11.3928571,27.9642857 Z" id="Shape" fill="#33BC00"></path>
                    <path d="M17.6071429,27.9642857 L16.5714286,27.9642857 C15.4273527,27.9642857 14.5,28.8916384 14.5,30.0357143 L14.5,31.0714286 C14.5033661,33.93 16.82,36.2466339 19.6785714,36.25 L20.7142857,36.25 C21.8583616,36.25 22.7857143,35.3226473 22.7857143,34.1785714 L22.7857143,33.1428571 C22.7823482,30.2842857 20.4657143,27.9676518 17.6071429,27.9642857 Z" id="Shape" fill="#79D60D"></path>
                    <path d="M9.32142857,34.1785714 L8.28571429,34.1785714 C7.14163839,34.1785714 6.21428571,35.1059241 6.21428571,36.25 L6.21428571,37.2857143 C6.21765179,40.1442857 8.53428571,42.4609196 11.3928571,42.4642857 L12.4285714,42.4642857 C13.5726473,42.4642857 14.5,41.536933 14.5,40.3928571 L14.5,39.3571429 C14.4966339,36.4985714 12.18,34.1819375 9.32142857,34.1785714 Z" id="Shape" fill="#025902"></path>
                    <path d="M15.5357143,34.1785714 L14.5,34.1785714 C13.3559241,34.1785714 12.4285714,35.1059241 12.4285714,36.25 L12.4285714,37.2857143 C12.4319375,40.1442857 14.7485714,42.4609196 17.6071429,42.4642857 L18.6428571,42.4642857 C19.786933,42.4642857 20.7142857,41.536933 20.7142857,40.3928571 L20.7142857,39.3571429 C20.7109196,36.4985714 18.3942857,34.1819375 15.5357143,34.1785714 Z" id="Shape" fill="#008100"></path>
                    <path d="M21.75,34.1785714 L20.7142857,34.1785714 C19.5702098,34.1785714 18.6428571,35.1059241 18.6428571,36.25 L18.6428571,37.2857143 C18.6462232,40.1442857 20.9628571,42.4609196 23.8214286,42.4642857 L24.8571429,42.4642857 C26.0012188,42.4642857 26.9285714,41.536933 26.9285714,40.3928571 L26.9285714,39.3571429 C26.9252054,36.4985714 24.6085714,34.1819375 21.75,34.1785714 Z" id="Shape" fill="#33BC00"></path>
                    <g id="Group" transform="translate(36.250000, 23.433036)" fill="#008100">
                        <polygon id="Shape" points="0.0526919643 3.16863839 1.08879464 0.0618839286 3.05380357 0.717232143 2.01770089 3.82398661"></polygon>
                        <polygon id="Shape" points="4.19606696 3.16397768 5.23216964 0.0572232143 7.19717857 0.712571429 6.16107589 3.81932589"></polygon>
                        <polygon id="Shape" points="8.34047768 3.16747321 9.37658036 0.06071875 11.3415893 0.716066964 10.3054866 3.82282143"></polygon>
                    </g>
                    <path d="M37.2857143,25.8928571 C35.5696652,25.8928571 34.1785714,27.2839509 34.1785714,29 L34.1785714,34.1785714 L40.3928571,34.1785714 L40.3928571,29 C40.3928571,27.2839509 39.0017634,25.8928571 37.2857143,25.8928571 Z" id="Shape" fill="#FF8800"></path>
                    <path d="M41.4285714,25.8928571 C39.7125223,25.8928571 38.3214286,27.2839509 38.3214286,29 L38.3214286,34.1785714 L44.5357143,34.1785714 L44.5357143,29 C44.5357143,27.2839509 43.1446205,25.8928571 41.4285714,25.8928571 Z" id="Shape" fill="#FF6536"></path>
                    <path d="M45.5714286,25.8928571 C43.8553795,25.8928571 42.4642857,27.2839509 42.4642857,29 L42.4642857,34.1785714 L48.6785714,34.1785714 L48.6785714,29 C48.6785714,27.2839509 47.2874777,25.8928571 45.5714286,25.8928571 Z" id="Shape" fill="#FF421D"></path>
                    <polygon id="Shape" fill="#FFA900" points="32.1071429 33.1428571 50.75 33.1428571 50.75 41.4285714 32.1071429 41.4285714"></polygon>
                    <polygon id="Shape" fill="#763A02" points="55.9285714 42.4642857 2.07142857 42.4642857 2.07142857 17.6071429 4.14285714 17.6071429 4.14285714 40.3928571 53.8571429 40.3928571 53.8571429 17.6071429 55.9285714 17.6071429"></polygon>
                    <g id="Group" transform="translate(13.464286, 0.000000)" fill="#DE0418">
                        <polygon id="Shape" points="12.4285714 0 18.6428571 0 18.6428571 14.5 12.4285714 14.5"></polygon>
                        <polygon id="Shape" points="6.21428571 14.5 6.21428571 0 1.61157143 0 0 14.5"></polygon>
                    </g>
                    <g id="Group" transform="translate(7.250000, 0.000000)" fill="#FBBF00">
                        <polygon id="Shape" points="12.4285714 0 18.6428571 0 18.6428571 14.5 12.4285714 14.5"></polygon>
                        <polygon id="Shape" points="6.21428571 14.5 7.82585714 0 3.22210714 0 0 14.5"></polygon>
                        <polygon id="Shape" points="43.5 14.5 40.2778929 0 35.6741429 0 37.2857143 14.5"></polygon>
                    </g>
                    <g id="Group" transform="translate(1.035714, 0.000000)" fill="#DE0418">
                        <polygon id="Shape" points="9.43639286 0 6.21428571 0 0 12.4285714 0 14.5 6.21428571 14.5"></polygon>
                        <polygon id="Shape" points="43.5 14.5 41.8884286 0 37.2857143 0 37.2857143 14.5"></polygon>
                    </g>
                    <polygon id="Shape" fill="#FBBF00" points="32.1071429 0 38.3214286 0 38.3214286 14.5 32.1071429 14.5"></polygon>
                    <polygon id="Shape" fill="#DE0418" points="50.75 0 47.5278929 0 50.75 14.5 56.9642857 14.5 56.9642857 12.4285714"></polygon>
                    <path d="M1.03571429,14.5 L1.03571429,17.6071429 C1.03571429,19.323192 2.42680804,20.7142857 4.14285714,20.7142857 C5.85890625,20.7142857 7.25,19.323192 7.25,17.6071429 L7.25,14.5 L1.03571429,14.5 Z" id="Shape" fill="#FF421D"></path>
                    <path d="M7.25,14.5 L7.25,17.6071429 C7.25,19.323192 8.64109375,20.7142857 10.3571429,20.7142857 C12.073192,20.7142857 13.4642857,19.323192 13.4642857,17.6071429 L13.4642857,14.5 L7.25,14.5 Z" id="Shape" fill="#FFDB0C"></path>
                    <path d="M13.4642857,14.5 L13.4642857,17.6071429 C13.4642857,19.323192 14.8553795,20.7142857 16.5714286,20.7142857 C18.2874777,20.7142857 19.6785714,19.323192 19.6785714,17.6071429 L19.6785714,14.5 L13.4642857,14.5 Z" id="Shape" fill="#FF421D"></path>
                    <path d="M19.6785714,14.5 L19.6785714,17.6071429 C19.6785714,19.323192 21.0696652,20.7142857 22.7857143,20.7142857 C24.5017634,20.7142857 25.8928571,19.323192 25.8928571,17.6071429 L25.8928571,14.5 L19.6785714,14.5 Z" id="Shape" fill="#FFDB0C"></path>
                    <path d="M25.8928571,14.5 L25.8928571,17.6071429 C25.8928571,19.323192 27.2839509,20.7142857 29,20.7142857 C30.7160491,20.7142857 32.1071429,19.323192 32.1071429,17.6071429 L32.1071429,14.5 L25.8928571,14.5 Z" id="Shape" fill="#FF421D"></path>
                    <path d="M32.1071429,14.5 L32.1071429,17.6071429 C32.1071429,19.323192 33.4982366,20.7142857 35.2142857,20.7142857 C36.9303348,20.7142857 38.3214286,19.323192 38.3214286,17.6071429 L38.3214286,14.5 L32.1071429,14.5 Z" id="Shape" fill="#FFDB0C"></path>
                    <path d="M38.3214286,14.5 L38.3214286,17.6071429 C38.3214286,19.323192 39.7125223,20.7142857 41.4285714,20.7142857 C43.1446205,20.7142857 44.5357143,19.323192 44.5357143,17.6071429 L44.5357143,14.5 L38.3214286,14.5 Z" id="Shape" fill="#FF421D"></path>
                    <path d="M44.5357143,14.5 L44.5357143,17.6071429 C44.5357143,19.323192 45.926808,20.7142857 47.6428571,20.7142857 C49.3589062,20.7142857 50.75,19.323192 50.75,17.6071429 L50.75,14.5 L44.5357143,14.5 Z" id="Shape" fill="#FFDB0C"></path>
                    <path d="M50.75,17.6071429 C50.75,19.323192 52.1410938,20.7142857 53.8571429,20.7142857 C55.573192,20.7142857 56.9642857,19.323192 56.9642857,17.6071429 L56.9642857,14.5 L50.75,14.5 L50.75,17.6071429 Z" id="Shape" fill="#FF421D"></path>
                    <polygon id="Shape" fill="#FFDB0C" points="0 40.3928571 58 40.3928571 58 61.1071429 0 61.1071429"></polygon>
                    <polygon id="Shape" fill="#E47700" points="35.2142857 36.25 47.6428571 36.25 47.6428571 38.3214286 35.2142857 38.3214286"></polygon>
                    <g id="Group" transform="translate(36.508929, 43.758929)" fill="#33BC00">
                        <polygon id="Shape" points="0.04440625 3.15413839 3.15180804 0.0467366071 4.61656696 1.51149554 1.50916518 4.61889732"></polygon>
                        <polygon id="Shape" points="1.8125 3.88392857 4.91964286 3.88392857 4.91964286 5.95535714 1.8125 5.95535714"></polygon>
                    </g>
                    <path d="M35.1210714,45.5714286 L34.7896429,45.5714286 C33.4217232,45.5729821 32.1382143,46.2333795 31.34175,47.3456071 L27.4132857,52.8462857 C26.5775937,54.0172902 26.8493393,55.6440089 28.0203437,56.4797009 C28.4619464,56.794817 28.9909375,56.9642857 29.5333929,56.9642857 L29.6659643,56.9642857 C30.0700223,56.9636384 30.4683839,56.8696473 30.8301071,56.6898214 L37.0164286,53.5961429 C39.1088304,52.549683 39.956692,50.0050625 38.9102321,47.9126607 C38.1924821,46.4775491 36.7255223,45.5712991 35.1210714,45.5714286 Z" id="Shape" fill="#FF6536"></path>
                    <path d="M23.8214286,46.6071429 L22.7857143,46.6071429 C21.6416384,46.6071429 20.7142857,47.5344955 20.7142857,48.6785714 L20.7142857,49.7142857 C20.718817,53.7164152 23.9621562,56.9597545 27.9642857,56.9642857 L29,56.9642857 C30.1440759,56.9642857 31.0714286,56.036933 31.0714286,54.8928571 L31.0714286,53.8571429 C31.0668973,49.8550134 27.823558,46.6116741 23.8214286,46.6071429 Z" id="Shape" fill="#79D60D"></path>
                </g>
            </g>
        </g>
    </g>
</svg>