<?xml version="1.0" encoding="UTF-8" standalone="no"?>
<svg width="98px" height="83px" viewBox="0 0 98 83" version="1.1" xmlns="http://www.w3.org/2000/svg" xmlns:xlink="http://www.w3.org/1999/xlink">
    <!-- Generator: Sketch 49.1 (51147) - http://www.bohemiancoding.com/sketch -->
    <title>Group 27</title>
    <desc>Created with Sketch.</desc>
    <defs>
        <linearGradient x1="126.664402%" y1="146.704102%" x2="0%" y2="0%" id="linearGradient-1">
            <stop stop-color="#34A853" offset="0%"></stop>
            <stop stop-color="#97D48D" offset="100%"></stop>
        </linearGradient>
    </defs>
    <g id="Page-1" stroke="none" stroke-width="1" fill="none" fill-rule="evenodd">
        <g id="Pixel" transform="translate(-456.000000, -3549.000000)">
            <g id="Group-27" transform="translate(456.000000, 3543.000000)">
                <path d="M66.0791102,93 C89.3187611,93 106.262765,78.1299559 74.7034323,50 C43.1440997,21.8700441 89.3187611,7 66.0791102,7 C42.8394594,7 24,26.2517558 24,50 C24,73.7482442 42.8394594,93 66.0791102,93 Z" id="Oval-2-Copy-6" fill="url(#linearGradient-1)" opacity="0.0801072761" transform="translate(58.000000, 50.000000) rotate(-117.000000) translate(-58.000000, -50.000000) "></path>
                <g id="professor" transform="translate(0.000000, 13.000000)" fill-rule="nonzero">
                    <path d="M62.2101705,52.8480603 L51.1325468,50.7781372 C51.061104,50.7654428 50.9883326,50.7585052 50.9157089,50.7585052 L20.2130062,50.7585052 C20.1403825,50.7585052 20.0677588,50.7654428 19.9961684,50.7781372 L8.81831809,52.8722682 C3.11927651,54.4683659 0.138162162,60.0820894 0.138162162,64.8032204 L0.138162162,71.273815 C0.138162162,73.6355613 2.25664865,75.556842 4.86165489,75.556842 L66.2670603,75.556842 C68.8720665,75.556842 70.990553,73.6355613 70.990553,71.273815 L70.990553,64.8032204 C70.990553,60.0820894 68.0095863,54.4683659 62.2101705,52.8480603 Z" id="Shape" fill="#996459"></path>
                    <path d="M41.2880499,75.556842 L39.0908877,62.3735738 C38.9962703,61.8039501 38.5038462,61.3863638 37.926104,61.3863638 L33.2026112,61.3863638 C32.624869,61.3863638 32.1324449,61.8038025 32.0378274,62.3735738 L29.8406653,75.556842 L41.2880499,75.556842 Z" id="Shape" fill="#4BB9EC"></path>
                    <path d="M33.2026112,61.3863638 C32.9008981,61.3863638 32.6264927,61.5043035 32.4157069,61.6942765 L40.2900644,69.5693721 L39.6221331,65.5616362 L35.4473035,61.3863638 L33.2026112,61.3863638 Z" id="Shape" fill="#009BCA"></path>
                    <path d="M40.2798794,55.5038441 C40.2786985,54.8522973 39.750553,54.3253326 39.0990062,54.3253326 L33.1946403,54.3253326 C32.747237,54.3253326 32.3389501,54.5778919 32.1383493,54.9780603 L30.9574761,57.3398067 C30.8743721,57.5046861 30.8317131,57.6869834 30.832894,57.8725281 L30.8410125,60.2065239 C30.8410125,62.1589501 32.4301726,63.7479626 34.383632,63.7479626 L36.7453784,63.7479626 C38.6988378,63.7479626 40.2879979,62.1588025 40.2879979,60.2029813 L40.2798794,55.5038441 Z" id="Shape" fill="#3482AC"></path>
                    <path d="M36.1317672,50.932684 L25.512027,45.0041102 C24.9965759,44.7146486 24.3484241,44.8553202 23.9944574,45.3235364 L19.5373992,51.2279023 C19.2328815,51.6314657 19.217973,52.1839667 19.5016778,52.6014054 L26.7010187,63.2280832 C27.0977921,63.812763 27.728526,64.1863617 28.4308503,64.2532287 C28.5070166,64.2601663 28.5830353,64.2635613 28.6580208,64.2635613 C29.2807838,64.2635613 29.878158,64.0191206 30.3243805,63.5739314 C30.3543451,63.5439667 30.3831289,63.5116403 30.4096985,63.4782807 L35.3026466,57.4032786 C35.3556383,57.3386258 35.4018399,57.267183 35.4387422,57.1921975 L36.6114969,54.854659 C36.6946008,54.6909605 36.7372599,54.5086632 36.7372599,54.3253326 L36.7372599,51.9635863 C36.7372599,51.535815 36.5053659,51.1414033 36.1317672,50.932684 Z" id="Shape" fill="#B4B6BC"></path>
                    <path d="M34.9808586,50.932684 L45.6005988,45.0041102 C46.1160499,44.7146486 46.7642017,44.8553202 47.1181684,45.3235364 L51.5752266,51.2279023 C51.8797443,51.6314657 51.8946528,52.1839667 51.610948,52.6014054 L44.4116071,63.2280832 C44.0148337,63.812763 43.3840998,64.1863617 42.6817755,64.2532287 C42.6056091,64.2601663 42.5295904,64.2635613 42.454605,64.2635613 C41.831842,64.2635613 41.2344678,64.0191206 40.7882453,63.5739314 C40.7582807,63.5439667 40.7294969,63.5116403 40.7029272,63.4782807 L35.8101268,57.4032786 C35.7571351,57.3386258 35.7109335,57.267183 35.6740312,57.1921975 L34.5012765,54.854659 C34.4181726,54.6909605 34.3755135,54.5086632 34.3755135,54.3253326 L34.3755135,51.9635863 C34.3755135,51.535815 34.6072599,51.1414033 34.9808586,50.932684 Z" id="Shape" fill="#B4B6BC"></path>
                    <path d="M52.0886112,22.4417568 L49.7591913,20.0800104 C49.7591913,20.0800104 41.7559709,17.915027 24.9285281,20.0800104 L17.843289,22.4417568 C17.843289,24.0654574 17.843289,25.0322973 17.843289,30.707869 C17.843289,42.4470769 25.773738,51.9635863 35.5563867,51.9635863 C45.3390353,51.9635863 53.2694844,42.4470769 53.2694844,30.707869 C53.2694844,28.8028254 53.2694844,25.172526 53.2694844,22.4417568 C52.9637859,22.7833243 52.0886112,22.4417568 52.0886112,22.4417568 Z" id="Shape" fill="#FFDCAD"></path>
                    <circle id="Oval" fill="#AEEFFF" cx="28.4467921" cy="30.707869" r="4.72349272"></circle>
                    <path d="M28.4791185,25.9843763 C27.1831102,25.9843763 26.0102079,26.5079459 25.1568794,27.3531559 L31.8338316,34.0301081 C32.6791892,33.176632 33.2026112,32.0038773 33.2026112,30.707869 C33.2026112,28.0991726 31.0879626,25.9843763 28.4791185,25.9843763 Z" id="Shape" fill="#FFFFFF"></path>
                    <circle id="Oval" fill="#AEEFFF" cx="42.6172703" cy="30.707869" r="4.72349272"></circle>
                    <path d="M42.6495967,25.9843763 C41.3535884,25.9843763 40.1806861,26.5079459 39.3273576,27.3531559 L46.0043098,34.0301081 C46.8496674,33.176632 47.3730894,32.0038773 47.3730894,30.707869 C47.3730894,28.0991726 45.2584407,25.9843763 42.6495967,25.9843763 Z" id="Shape" fill="#FFFFFF"></path>
                    <path d="M37.9504595,31.8887422 C37.2977318,31.8887422 36.7695863,31.3605967 36.7695863,30.707869 C36.7695863,30.0563222 36.2402599,29.5269958 35.5887131,29.5269958 C34.9371663,29.5269958 34.4078399,30.0563222 34.4078399,30.707869 C34.4078399,31.3605967 33.8796944,31.8887422 33.2269667,31.8887422 C32.5742391,31.8887422 32.0460936,31.3605967 32.0460936,30.707869 C32.0460936,28.7544096 33.6352536,27.1652495 35.5887131,27.1652495 C37.5421726,27.1652495 39.1313326,28.7544096 39.1313326,30.707869 C39.1313326,31.3605967 38.6030395,31.8887422 37.9504595,31.8887422 Z" id="Shape" fill="#5C546A"></path>
                    <path d="M23.7799813,30.707869 L17.843289,30.707869 C17.1905613,30.707869 16.6624158,30.1797235 16.6624158,29.5269958 C16.6624158,28.8742682 17.1905613,28.3461227 17.843289,28.3461227 L23.7799813,28.3461227 C24.4327089,28.3461227 24.9608545,28.8742682 24.9608545,29.5269958 C24.9608545,30.1797235 24.4325613,30.707869 23.7799813,30.707869 Z" id="Shape" fill="#5C546A"></path>
                    <path d="M53.2694844,30.707869 L47.3974449,30.707869 C46.7447173,30.707869 46.2165717,30.1797235 46.2165717,29.5269958 C46.2165717,28.8742682 46.7447173,28.3461227 47.3974449,28.3461227 L53.2694844,28.3461227 C53.9222121,28.3461227 54.4503576,28.8742682 54.4503576,29.5269958 C54.4503576,30.1797235 53.9222121,30.707869 53.2694844,30.707869 Z" id="Shape" fill="#5C546A"></path>
                    <path d="M28.503474,36.6122349 C25.2479543,36.6122349 22.5991081,33.9633888 22.5991081,30.707869 C22.5991081,27.4523493 25.2479543,24.8035031 28.503474,24.8035031 C31.7589938,24.8035031 34.4078399,27.4523493 34.4078399,30.707869 C34.4078399,33.9633888 31.7588462,36.6122349 28.503474,36.6122349 Z M28.503474,27.1652495 C26.5500146,27.1652495 24.9608545,28.7544096 24.9608545,30.707869 C24.9608545,32.6613285 26.5500146,34.2504886 28.503474,34.2504886 C30.4569335,34.2504886 32.0460936,32.6613285 32.0460936,30.707869 C32.0460936,28.7544096 30.4569335,27.1652495 28.503474,27.1652495 Z" id="Shape" fill="#868491"></path>
                    <path d="M42.6739522,36.6122349 C39.4184324,36.6122349 36.7695863,33.9633888 36.7695863,30.707869 C36.7695863,27.4523493 39.4184324,24.8035031 42.6739522,24.8035031 C45.9294719,24.8035031 48.5783181,27.4523493 48.5783181,30.707869 C48.5783181,33.9633888 45.9293243,36.6122349 42.6739522,36.6122349 Z M42.6739522,27.1652495 C40.7204927,27.1652495 39.1313326,28.7544096 39.1313326,30.707869 C39.1313326,32.6613285 40.7204927,34.2504886 42.6739522,34.2504886 C44.6274116,34.2504886 46.2165717,32.6613285 46.2165717,30.707869 C46.2164241,28.7544096 44.6274116,27.1652495 42.6739522,27.1652495 Z" id="Shape" fill="#868491"></path>
                    <path d="M30.5295572,41.7186258 C29.8895239,41.7186258 29.2610042,41.5110873 28.7431913,40.8756299 C28.3326902,40.3693306 28.4087089,39.6255281 28.9150083,39.2138462 C29.4224886,38.8033451 30.1651102,38.8793638 30.5767921,39.3856632 C30.6990125,39.4041143 31.333289,39.1838815 31.7449709,39.04321 C32.9800166,38.6222287 34.6717651,38.0444865 36.2494116,39.168973 C36.7810998,39.5472952 36.904501,40.2841601 36.5261788,40.8157006 C36.1478565,41.345027 35.4109917,41.4696091 34.8794511,41.0924678 C34.3293119,40.699237 33.6156216,40.9010187 32.5061913,41.279341 C31.9179688,41.4799418 31.2180062,41.7186258 30.5295572,41.7186258 Z" id="Shape" fill="#FFFFFF"></path>
                    <path d="M40.5993056,41.7186258 C39.9120374,41.7186258 39.210894,41.4799418 38.6226715,41.2791933 C37.5122079,40.902052 36.7983701,40.6990894 36.2494116,41.0923202 C35.7189044,41.4716757 34.9808586,41.3460603 34.602684,40.815553 C34.2243617,40.2838649 34.347763,39.547 34.8794511,39.1688254 C36.454736,38.0467006 38.1486985,38.6222287 39.3838919,39.0430624 C39.7955738,39.1837339 40.4159751,39.4063285 40.6131809,39.3533368 C41.0236819,38.8482183 41.7363389,38.7871081 42.2438191,39.1976091 C42.7501185,39.6081102 42.7961726,40.3681497 42.3856715,40.8743015 C41.8688919,41.5110873 41.2393389,41.7186258 40.5993056,41.7186258 Z" id="Shape" fill="#FFFFFF"></path>
                    <path d="M40.2786985,44.7803347 C40.2394345,44.1575717 39.7239834,43.6732661 39.1001871,43.6732661 L32.0288233,43.6732661 C31.4048794,43.6732661 30.8894283,44.1575717 30.8503119,44.7803347 C30.8284657,45.1332682 30.3544927,53.4892744 34.66158,58.604817 C34.8853555,58.8712516 35.2162952,59.0246175 35.5645052,59.0246175 C35.9127152,59.0246175 36.2438025,58.8712516 36.4674304,58.604817 C40.7745177,53.4892744 40.3005447,45.1332682 40.2786985,44.7803347 Z" id="Shape" fill="#FFFFFF"></path>
                    <path d="M59.1818212,30.6836611 C58.5290936,30.6836611 58.000948,30.1555156 58.000948,29.5027879 L58.000948,15.4233846 C58.000948,14.770657 58.5290936,14.2425114 59.1818212,14.2425114 C59.8345489,14.2425114 60.3626944,14.770657 60.3626944,15.4233846 L60.3626944,29.5027879 C60.3626944,30.1555156 59.8345489,30.6836611 59.1818212,30.6836611 Z" id="Shape" fill="#5C546A"></path>
                    <path d="M63.019659,8.90437422 L38.9998129,0.669407484 C36.3993825,-0.223185031 33.5313368,-0.223185031 30.9285447,0.669407484 L6.90869854,8.90437422 C5.65283992,9.33568815 4.84217048,10.4703597 4.84217048,11.7978087 C4.84217048,13.1252578 5.65283992,14.2599293 6.90869854,14.6912432 L18.6539584,18.7181684 C18.7773597,18.7596466 18.9065177,18.7816403 19.0368565,18.7816403 C19.0414324,18.7816403 19.0471892,18.7816403 19.0519127,18.7816403 L52.1117859,18.3687775 C52.236368,18.3675967 52.3609501,18.3457505 52.4796279,18.3053056 L63.0198067,14.6912432 C64.2756653,14.2599293 65.0863347,13.1252578 65.0863347,11.7978087 C65.0863347,10.4703597 64.2755177,9.33568815 63.019659,8.90437422 Z" id="Shape" fill="#5C546A"></path>
                    <g id="Group" transform="translate(17.713098, 8.266112)">
                        <path d="M13.8011601,12.5755613 C15.0533285,12.4846341 16.3956861,12.4285426 17.8514075,12.4285426 C19.3071289,12.4285426 20.6494865,12.4844865 21.9016549,12.5755613 C26.7103181,12.8533617 32.4238254,13.648237 35.5645052,15.3565177 L35.5645052,5.90953222 C35.5645052,1.85264241 26.3827734,0.00516632017 17.8514075,0.00516632017 C9.32004158,0.00516632017 0.138309771,1.85264241 0.138309771,5.90953222 L0.138309771,15.3565177 C3.2789896,13.6480894 8.99234927,12.8533617 13.8011601,12.5755613 Z" id="Shape" fill="#5D647F"></path>
                        <path d="M17.8512599,6.54838462 C12.7268607,6.54838462 4.2374158,7.22236798 0.138162162,9.45215177 L0.138162162,12.4527505 C0.138162162,11.4240624 6.34586486,8.91013098 17.8512599,8.91013098 C29.3566549,8.91013098 35.5643576,11.4240624 35.5643576,12.4527505 L35.5643576,9.45215177 C31.4652516,7.22251559 22.9758067,6.54838462 17.8512599,6.54838462 Z" id="Shape" fill="#5C546A"></path>
                        <path d="M17.8512599,0.00516632017 C17.8486029,0.00516632017 17.8457983,0.00531392931 17.8431414,0.00516632017 L17.8431414,12.4286902 C17.8459459,12.4286902 17.8484553,12.4285426 17.8512599,12.4285426 C19.3069813,12.4285426 20.6493389,12.4844865 21.9015073,12.5755613 C26.7101705,12.8533617 32.4236778,13.648237 35.5643576,15.3565177 L35.5643576,5.90953222 C35.5643576,1.85264241 26.3826258,0.00516632017 17.8512599,0.00516632017 Z" id="Shape" fill="#68748D"></path>
                        <path d="M17.843289,6.54853222 L17.843289,8.91027859 C17.8460936,8.91027859 17.8486029,8.91013098 17.8514075,8.91013098 C29.3568025,8.91013098 35.5645052,11.4240624 35.5645052,12.4527505 L35.5645052,9.45215177 C31.4652516,7.22251559 22.9758067,6.54838462 17.8514075,6.54838462 C17.8487505,6.54838462 17.8457983,6.54853222 17.843289,6.54853222 Z" id="Shape" fill="#5D647F"></path>
                    </g>
                    <path d="M60.3547235,37.7931081 L57.9929771,37.7931081 C57.3408399,37.7931081 56.812104,37.2643721 56.812104,36.6122349 L56.812104,31.8887422 C56.812104,30.5843202 57.8694283,29.5269958 59.1738503,29.5269958 C60.4782723,29.5269958 61.5355967,30.5843202 61.5355967,31.8887422 L61.5355967,36.6122349 C61.5355967,37.2643721 61.0068607,37.7931081 60.3547235,37.7931081 Z" id="Shape" fill="#FFE671"></path>
                    <path d="M56.812104,31.8887422 L56.812104,36.6122349 C56.812104,37.2643721 57.3408399,37.7931081 57.9929771,37.7931081 L59.1738503,37.7931081 L59.1738503,29.5269958 C57.8694283,29.5269958 56.812104,30.5843202 56.812104,31.8887422 Z" id="Shape" fill="#FFCD00"></path>
                    <path d="M11.9471892,67.6613763 C11.9471892,65.1558586 10.9518607,62.7530769 9.18025572,60.9813243 L3.93629314,55.7372141 C1.43461331,58.217343 0.138309771,61.699738 0.138309771,64.8032204 L0.138309771,71.273815 C0.138309771,73.6355613 2.25679626,75.556842 4.86180249,75.556842 L11.9473368,75.556842 L11.9473368,67.6613763 L11.9471892,67.6613763 Z" id="Shape" fill="#B4B6BC"></path>
                    <path d="M67.182237,55.7484324 L61.9493451,60.9814719 C60.1775925,62.7530769 59.182264,65.1560062 59.182264,67.6615239 L59.182264,75.5569896 L66.2672079,75.5569896 C68.8722141,75.5569896 70.9907006,73.6357089 70.9907006,71.2739626 L70.9907006,64.803368 C70.990553,61.7072661 69.7001538,58.2341705 67.182237,55.7484324 Z" id="Shape" fill="#B4B6BC"></path>
                    <polygon id="Shape" fill="#009BCA" points="31.6118274 64.9306071 31.1346071 67.7931913 38.8975198 75.556842 41.2880499 75.556842 41.0983721 74.4180374"></polygon>
                    <polygon id="Shape" fill="#009BCA" points="30.0803825 74.1192765 31.5178004 75.556842 34.8574574 75.556842 30.5574553 71.2566923"></polygon>
                </g>
            </g>
        </g>
    </g>
</svg>