<?xml version="1.0" encoding="UTF-8" standalone="no"?>
<svg width="110px" height="87px" viewBox="0 0 110 87" version="1.1" xmlns="http://www.w3.org/2000/svg" xmlns:xlink="http://www.w3.org/1999/xlink">
    <!-- Generator: Sketch 49.1 (51147) - http://www.bohemiancoding.com/sketch -->
    <title>Group 18</title>
    <desc>Created with Sketch.</desc>
    <defs>
        <linearGradient x1="126.664402%" y1="146.704102%" x2="0%" y2="0%" id="linearGradient-1">
            <stop stop-color="#34A853" offset="0%"></stop>
            <stop stop-color="#97D48D" offset="100%"></stop>
        </linearGradient>
    </defs>
    <g id="Page-1" stroke="none" stroke-width="1" fill="none" fill-rule="evenodd">
        <g id="Pixel" transform="translate(-744.000000, -3313.000000)">
            <g id="Group-18" transform="translate(744.000000, 3313.000000)">
                <path d="M78.0791102,94 C101.318761,94 118.262765,79.1299559 86.7034323,51 C55.1440997,22.8700441 101.318761,8 78.0791102,8 C54.8394594,8 36,27.2517558 36,51 C36,74.7482442 54.8394594,94 78.0791102,94 Z" id="Oval-2-Copy-7" fill="url(#linearGradient-1)" opacity="0.0801072761" transform="translate(70.000000, 51.000000) rotate(-117.000000) translate(-70.000000, -51.000000) "></path>
                <g id="tractor-(1)" fill-rule="nonzero">
                    <g id="Group" transform="translate(5.605469, 0.000000)" fill="#B2B2B2">
                        <path d="M46.7030039,25.6020977 C46.4188867,25.6020977 46.1318867,25.5159336 45.8830039,25.3376797 L35.9864688,18.2687031 C35.3503281,17.8162617 35.2033047,16.9326797 35.6570273,16.2978203 C36.1094687,15.6616797 36.9944922,15.5132148 37.6291914,15.9698203 L47.5257266,23.0387969 C48.1618672,23.4912383 48.3088906,24.3748203 47.855168,25.0096797 C47.5795391,25.3958164 47.1440742,25.6020977 46.7030039,25.6020977" id="Shape"></path>
                        <path d="M33.9789102,22.7745391 C33.7103281,22.7745391 33.4374219,22.6967031 33.1957461,22.5370273 C32.546793,22.1030039 32.371582,21.2264687 32.8041641,20.5760742 L38.4592812,12.0932383 C38.8918633,11.4442852 39.7698398,11.2676328 40.4202344,11.7016562 C41.0691875,12.1356797 41.2443984,13.0122148 40.8118164,13.6626094 L35.1566992,22.1454453 C34.883793,22.5540039 34.4355156,22.7745391 33.9789102,22.7745391" id="Shape"></path>
                        <path d="M9.94586328,22.7745391 C11.0655156,22.8621445 12.3097695,22.7745391 13.4803516,22.7745391 C15.8484219,22.7745391 18.1247227,23.161957 20.2608867,23.8560742 L7.96088672,2.27165625 C6.79446875,0.251285156 4.18744531,-0.446996094 2.16723438,0.719261719 C0.147023438,1.88551953 -0.551417969,4.49270312 0.614839844,6.51291406 L9.94586328,22.7745391 Z" id="Shape"></path>
                    </g>
                    <polygon id="Shape" fill="#EE705C" points="31.1029844 53.8780039 60.7925898 53.8780039 60.7925898 51.0504453 31.1029844 51.0504453"></polygon>
                    <path d="M52.3099141,25.6020977 C51.5294727,25.6020977 50.8960547,24.9701211 50.8960547,24.1882383 L50.8960547,11.4641445 C50.8960547,10.6822617 51.5294727,10.0502852 52.3099141,10.0502852 C53.0903555,10.0502852 53.7237734,10.6822617 53.7237734,11.4641445 L53.7237734,24.1882383 C53.7237734,24.9702812 53.0903555,25.6020977 52.3099141,25.6020977" id="Shape" fill="#419EDE"></path>
                    <g id="Group" transform="translate(0.000000, 28.347656)" fill="#5B5B5B">
                        <path d="M19.7195586,1.33266016 C19.926,2.67156641 21.7285586,2.957125 22.3393945,1.74698437 C23.0562539,0.326078125 25.2108359,1.02740234 24.9563477,2.59805469 C24.7399766,3.93551953 26.3644414,4.76256641 27.3188125,3.80258984 C28.4399062,2.67156641 30.2736953,4.00470703 29.5454648,5.42000781 C28.9263008,6.62454297 30.217,7.91396094 31.4200937,7.29463672 C32.8366758,6.56656641 34.1685352,8.40019531 33.0389531,9.52128906 C32.0775352,10.4756602 32.9060234,12.1014063 34.2420469,11.8837539 C35.8126992,11.6292656 36.5140234,13.7838477 35.0931172,14.5021484 C33.8842578,15.111543 34.1685352,16.9141016 35.5072812,17.120543 C37.0808164,17.3636602 37.0808164,19.6300312 35.5072812,19.8731484 C34.168375,20.0795898 33.8842578,21.8821484 35.0931172,22.491543 C36.5140234,23.2096836 35.8126992,25.3644258 34.2420469,25.1099375 C32.9060234,24.8922852 32.0775352,26.5180312 33.0389531,27.4724023 C34.1685352,28.5934961 32.8368359,30.4272852 31.4200937,29.6990547 C30.217,29.0798906 28.9261406,30.3691484 29.5454648,31.5736836 C30.2735352,32.9888242 28.4399062,34.3206836 27.3188125,33.1911016 C26.3644414,32.231125 24.7399766,33.0581719 24.9563477,34.3956367 C25.2108359,35.9662891 23.0562539,36.6676133 22.3393945,35.246707 L22.3393945,35.2452656 C21.7285586,34.0364062 19.926,34.322125 19.7195586,35.6608711 C19.4764414,37.2344062 17.2100703,37.2344062 16.9669531,35.6608711 C16.7605117,34.3219648 14.9579531,34.0364062 14.3485586,35.2452656 L14.3485586,35.246707 C13.630418,36.6676133 11.4756758,35.9662891 11.7301641,34.3956367 C11.9478164,33.0581719 10.3220703,32.231125 9.36769922,33.1911016 C8.24660547,34.3206836 6.41281641,32.9889844 7.14104687,31.5736836 C7.76021094,30.3691484 6.47095312,29.0797305 5.26641797,29.6990547 C3.85127734,30.427125 2.51941797,28.5934961 3.649,27.4724023 C4.61041797,26.5180312 3.78192969,24.8922852 2.44446484,25.1099375 C0.8738125,25.3644258 0.173929687,23.2098437 1.59483594,22.491543 C2.80369531,21.8821484 2.51797656,20.0795898 1.17923047,19.8731484 C-0.392863281,19.6300312 -0.392863281,17.3636602 1.17923047,17.120543 C2.51813672,16.9141016 2.80369531,15.111543 1.59483594,14.5021484 C0.173929687,13.7840078 0.8738125,11.6292656 2.44446484,11.8837539 C3.78192969,12.1014062 4.61041797,10.4756602 3.649,9.52128906 C2.51941797,8.40019531 3.85111719,6.56640625 5.26641797,7.29463672 C6.47095312,7.91380078 7.76037109,6.62454297 7.14104687,5.42000781 C6.41297656,4.00486719 8.24660547,2.67156641 9.36769922,3.80258984 C10.3220703,4.76256641 11.9478164,3.93551953 11.7301641,2.59805469 C11.4756758,1.02740234 13.6302578,0.326078125 14.3485586,1.74698438 C14.9579531,2.957125 16.7605117,2.67156641 16.9669531,1.33266016 C17.2100703,-0.240875 19.4764414,-0.240875 19.7195586,1.33266016" id="Shape"></path>
                        <path d="M70.6668633,12.4894648 C70.922793,13.6430703 72.4383516,13.981 73.1805156,13.0508125 C74.1220742,11.8703008 76.0449102,12.7764648 75.6885625,14.2313242 C75.407168,15.3793242 76.6230742,16.3264883 77.7046094,15.803418 C79.0760273,15.1403711 80.4064453,16.7704414 79.4392617,17.9312539 C78.6772383,18.8459062 79.3516562,20.2158828 80.5576328,20.2032305 C82.0887266,20.1876953 82.56375,22.2207187 81.1767969,22.8555781 C80.0838906,23.3575078 80.0838906,24.8772305 81.1767969,25.3777187 C82.56375,26.0125781 82.0887266,28.0468828 80.5576328,28.0300664 C79.3516562,28.0186953 78.6772383,29.3873906 79.4392617,30.302043 C80.4062852,31.4626953 79.0758672,33.094207 77.7046094,32.4298789 C76.6230742,31.9068086 75.407168,32.8539727 75.6885625,34.0019727 C76.0449102,35.4581133 74.1220742,36.3629961 73.1805156,35.1824844 C72.4383516,34.2521367 70.9226328,34.5900664 70.6668633,35.743832 C70.3417461,37.2071797 68.2083047,37.2071797 67.8844687,35.743832 C67.6270977,34.5902266 66.1129805,34.2522969 65.369375,35.1824844 C64.4278164,36.3629961 62.5064219,35.4581133 62.8627695,34.0019727 C63.1441641,32.8539727 61.9282578,31.9068086 60.8467227,32.4298789 C59.4738633,33.0943672 58.1448867,31.4628555 59.1120703,30.302043 C59.8740937,29.3873906 59.1996758,28.0186953 57.992418,28.0300664 C56.4627656,28.047043 55.987582,26.0125781 57.3732539,25.3777187 C58.4661602,24.8772305 58.4661602,23.3573477 57.3732539,22.8555781 C55.9877422,22.2207187 56.4627656,20.1876953 57.992418,20.2032305 C59.1998359,20.2158828 59.8742539,18.8460664 59.1120703,17.9312539 C58.1450469,16.7706016 59.4740234,15.1403711 60.8467227,15.803418 C61.9282578,16.3264883 63.1441641,15.3793242 62.8627695,14.2313242 C62.5064219,12.7764648 64.4278164,11.8703008 65.369375,13.0508125 C66.1129805,13.9811602 67.6272578,13.6432305 67.8844687,12.4894648 C68.2083047,11.0275586 70.3417461,11.0275586 70.6668633,12.4894648" id="Shape"></path>
                    </g>
                    <g id="Group" transform="translate(8.328125, 36.835938)" fill="#B2B2B2">
                        <path d="M19.9473008,9.97308984 C19.9473008,15.4387422 15.516418,19.869625 10.0507656,19.869625 C4.58511328,19.869625 0.154230469,15.4387422 0.154230469,9.97308984 C0.154230469,4.5074375 4.58511328,0.0765546875 10.0507656,0.0765546875 C15.516418,0.0765546875 19.9473008,4.5074375 19.9473008,9.97308984" id="Shape"></path>
                        <path d="M66.602418,15.6283672 C66.602418,18.7514141 64.0703477,21.2834844 60.9473008,21.2834844 C57.8242539,21.2834844 55.2921836,18.7514141 55.2921836,15.6283672 C55.2921836,12.5053203 57.8242539,9.97325 60.9473008,9.97325 C64.0703477,9.97325 66.602418,12.5051602 66.602418,15.6283672" id="Shape"></path>
                    </g>
                    <g id="Group" transform="translate(1.441406, 21.300781)" fill="#EE705C">
                        <path d="M40.9719727,32.5772227 C40.1915313,32.5772227 39.5581133,31.9452461 39.5581133,31.1633633 L39.5581133,25.5082461 C39.5581133,13.0357578 29.4099727,2.88761719 16.9374844,2.88761719 C11.606043,2.88761719 6.42883203,4.77778125 2.36134375,8.21057031 C1.76187891,8.7125 0.87125,8.63610547 0.369320312,8.04096484 C-0.135332031,7.44438281 -0.0590976563,6.5523125 0.537484375,6.0475 C5.11539062,2.18645312 10.9401133,0.0600585938 16.9374844,0.0600585938 C30.9694141,0.0600585938 42.385832,11.4764766 42.385832,25.5084063 L42.385832,31.1635234 C42.385832,31.9452461 41.7524141,32.5772227 40.9719727,32.5772227" id="Shape"></path>
                        <path d="M57.9370039,22.9808203 C58.3271445,22.6923789 58.8588633,22.5863555 59.4045156,22.8507734 C60.4874922,23.3738437 61.701957,22.4252383 61.4205625,21.2786797 C61.0642148,19.8225391 62.9870508,18.9176562 63.9286094,20.0967266 C64.6707734,21.0283555 66.1864922,20.6891445 66.4422617,19.5368203 C66.7673789,18.0734727 68.9008203,18.0734727 69.2246562,19.5368203 C69.4820273,20.6889844 70.9975859,21.0283555 71.73975,20.0967266 C72.6813086,18.9176562 74.6027031,19.8223789 74.2463555,21.2786797 C73.9649609,22.4252383 75.1808672,23.3738437 76.2624023,22.8507734 C76.8080547,22.5863555 77.3397734,22.6923789 77.7299141,22.9808203 L77.7299141,15.7888437 C77.7299141,7.88289062 71.3212617,1.47423828 63.4153086,1.47423828 L49.454168,1.47423828 L49.454168,14.198332 L53.3421211,14.198332 C55.879957,14.198332 57.9370039,16.2553789 57.9370039,18.7932148 L57.9370039,22.9808203 Z" id="Shape"></path>
                    </g>
                    <g id="Group" transform="translate(15.535156, 43.882812)" fill="#5B5B5B">
                        <path d="M55.1541289,8.58149219 C55.1541289,9.36193359 54.5207109,9.99535156 53.7402695,9.99535156 C52.9598281,9.99535156 52.3264102,9.36193359 52.3264102,8.58149219 C52.3264102,7.80105078 52.9598281,7.16763281 53.7402695,7.16763281 C54.5207109,7.16763281 55.1541289,7.80105078 55.1541289,8.58149219" id="Shape"></path>
                        <path d="M5.67129297,2.92621484 C5.67129297,4.48837891 4.40589844,5.75377344 2.84373437,5.75377344 C1.28157031,5.75377344 0.0161757812,4.48837891 0.0161757812,2.92621484 C0.0161757812,1.36405078 1.28157031,0.09865625 2.84373437,0.09865625 C4.40589844,0.09865625 5.67129297,1.36405078 5.67129297,2.92621484" id="Shape"></path>
                    </g>
                    <path d="M78.8505273,34.0849336 C78.6399219,33.0994922 78.3231328,32.1564922 77.9216211,31.257375 L70.6886445,31.257375 C69.9082031,31.257375 69.2747852,31.8893516 69.2747852,32.6712344 C69.2747852,33.4531172 69.9082031,34.0850937 70.6886445,34.0850937 L78.8505273,34.0850937 L78.8505273,34.0849336 Z" id="Shape" fill="#FFCE5D"></path>
                </g>
            </g>
        </g>
    </g>
</svg>