<?xml version="1.0" encoding="UTF-8" standalone="no"?>
<svg width="193px" height="60px" viewBox="0 0 193 60" version="1.1" xmlns="http://www.w3.org/2000/svg" xmlns:xlink="http://www.w3.org/1999/xlink">
    <!-- Generator: Sketch 49.1 (51147) - http://www.bohemiancoding.com/sketch -->
    <title>Group 7</title>
    <desc>Created with Sketch.</desc>
    <defs></defs>
    <g id="Page-1" stroke="none" stroke-width="1" fill="none" fill-rule="evenodd">
        <g id="Pixel-Copy-2" transform="translate(-914.000000, -756.000000)">
            <g id="Group-7" transform="translate(914.000000, 756.000000)">
                <g id="Group-2" transform="translate(70.000000, 10.000000)" fill="#646464">
                    <text id="Payment-Method" font-family="Roboto-Black, Roboto" font-size="16" font-weight="700">
                        <tspan x="0" y="15">Payment Method</tspan>
                    </text>
                    <text id="Secure-Payment" font-family="Roboto-Regular, Roboto" font-size="14" font-weight="normal">
                        <tspan x="0" y="37">Secure Payment</tspan>
                    </text>
                </g>
                <g id="credit-card-(2)" fill-rule="nonzero">
                    <rect id="Rectangle-path" fill="#5AAAE7" x="1" y="7" width="48" height="32" rx="2"></rect>
                    <polygon id="Shape" fill="#1E81CE" points="43 51 43 59 9 59 9 51 11 51 41 51"></polygon>
                    <rect id="Rectangle-path" fill="#5AAAE7" x="11" y="47" width="30" height="4"></rect>
                    <rect id="Rectangle-path" fill="#FF9811" x="7" y="11" width="10" height="8" rx="1"></rect>
                    <path d="M40,11 C41.8431182,10.9976686 43.4492344,12.2550469 43.8893474,14.0448487 C44.3294605,15.8346505 43.4896235,17.6934898 41.8556105,18.5461865 C40.2215976,19.3988832 38.2164604,19.0246711 37,17.64 C38.333244,16.1324914 38.333244,13.8675086 37,12.36 C37.7570079,11.4951491 38.8506403,10.9993691 40,11 Z" id="Shape" fill="#FF9811"></path>
                    <path d="M37,12.36 C38.2437844,13.7757794 38.3306659,15.8676757 37.2085641,17.3817161 C36.0864622,18.8957565 34.059774,19.4212214 32.3433836,18.6431244 C30.6269932,17.8650274 29.6865126,15.994446 30.0857064,14.1526873 C30.4849002,12.3109286 32.1154774,10.9976136 34,11 C35.1489086,11.0014549 36.2417206,11.496863 37,12.36 Z" id="Shape" fill="#FF6243"></path>
                    <path d="M29,39 C29.0049563,35.6883467 31.6883467,33.0049563 35,33 L35,25 C35,22.790861 36.790861,21 39,21 C41.209139,21 43,22.790861 43,25 L43,43 L41,47 L11,47 L9,43 L9,39 L29,39 Z" id="Shape" fill="#FFDAAA"></path>
                    <path d="M40,5 L40,7 L32,7 L32,5 C32,2.790861 33.790861,1 36,1 C38.209139,1 40,2.790861 40,5 Z" id="Shape" fill="#FFDAAA"></path>
                    <path d="M32,5 L32,7 L24,7 L24,5 C24,2.790861 25.790861,1 28,1 C30.209139,1 32,2.790861 32,5 Z" id="Shape" fill="#FFDAAA"></path>
                    <path d="M24,5 L24,7 L16,7 L16,5 C16,2.790861 17.790861,1 20,1 C22.209139,1 24,2.790861 24,5 Z" id="Shape" fill="#FFDAAA"></path>
                    <path d="M16,5 L16,7 L8,7 L8,5 C8,2.790861 9.790861,1 12,1 C14.209139,1 16,2.790861 16,5 Z" id="Shape" fill="#FFDAAA"></path>
                    <path d="M47,6 L41,6 L41,5 C41.0062173,2.84332471 39.6248498,0.927224862 37.576733,0.251573865 C35.5286161,-0.424077132 33.2782753,0.293962498 32,2.031 C31.0672116,0.754383693 29.5810893,-0.000310143036 28,-0.000310143036 C26.4189107,-0.000310143036 24.9327884,0.754383693 24,2.031 C23.0672116,0.754383693 21.5810893,-0.000310143036 20,-0.000310143036 C18.4189107,-0.000310143036 16.9327884,0.754383693 16,2.031 C14.7217247,0.293962498 12.4713839,-0.424077132 10.423267,0.251573865 C8.37515017,0.927224862 6.99378269,2.84332471 7,5 L7,6 L3,6 C1.34314575,6 0,7.34314575 0,9 L0,37 C0,38.6568542 1.34314575,40 3,40 L8,40 L8,43 C7.99985527,43.1551273 8.03580281,43.3081611 8.105,43.447 L10,47.236 L10,50 L9,50 C8.44771525,50 8,50.4477153 8,51 L8,59 C8,59.5522847 8.44771525,60 9,60 L43,60 C43.5522847,60 44,59.5522847 44,59 L44,51 C44,50.4477153 43.5522847,50 43,50 L42,50 L42,47.236 L43.9,43.447 C43.9674687,43.3077438 44.0016999,43.1547301 44,43 L44,40 L47,40 C48.6568542,40 50,38.6568542 50,37 L50,9 C50,7.34314575 48.6568542,6 47,6 Z M36,2 C37.6568542,2 39,3.34314575 39,5 L39,6 L33,6 L33,5 C33,3.34314575 34.3431458,2 36,2 Z M28,2 C29.6568542,2 31,3.34314575 31,5 L31,6 L25,6 L25,5 C25,3.34314575 26.3431458,2 28,2 Z M20,2 C21.6568542,2 23,3.34314575 23,5 L23,6 L17,6 L17,5 C17,3.34314575 18.3431458,2 20,2 Z M9,5 C9,3.34314575 10.3431458,2 12,2 C13.6568542,2 15,3.34314575 15,5 L15,6 L9,6 L9,5 Z M42,58 L10,58 L10,52 L42,52 L42,58 Z M12,50 L12,48 L40,48 L40,50 L12,50 Z M42,42.764 L40.382,46 L11.618,46 L10,42.764 L10,40 L30,40 L30,39 C30.0033061,36.2399468 32.2399468,34.0033061 35,34 C35.5522847,34 36,33.5522847 36,33 L36,25 C36,23.3431458 37.3431458,22 39,22 C40.6568542,22 42,23.3431458 42,25 L42,42.764 Z M48,37 C48,37.5522847 47.5522847,38 47,38 L44,38 L44,25 C44,22.2385763 41.7614237,20 39,20 C36.2385763,20 34,22.2385763 34,25 L34,32.071 C30.9325103,32.5208037 28.5246616,34.9319058 28.079,38 L3,38 C2.44771525,38 2,37.5522847 2,37 L2,9 C2,8.44771525 2.44771525,8 3,8 L47,8 C47.5522847,8 48,8.44771525 48,9 L48,37 Z" id="Shape" fill="#000000"></path>
                    <path d="M8,20 L16,20 C17.1045695,20 18,19.1045695 18,18 L18,12 C18,10.8954305 17.1045695,10 16,10 L8,10 C6.8954305,10 6,10.8954305 6,12 L6,18 C6,19.1045695 6.8954305,20 8,20 Z M8,12 L16,12 L16,18 L8,18 L8,12 Z" id="Shape" fill="#000000"></path>
                    <path d="M40,10 C38.9124328,10.0014945 37.8551305,10.3582594 36.989,11.016 C36.1300865,10.3605076 35.0804577,10.0037251 34,10 C31.2385763,10 29,12.2385763 29,15 C29,17.7614237 31.2385763,20 34,20 C35.0804577,19.9962749 36.1300865,19.6394924 36.989,18.984 C38.7260129,20.3012322 41.1162404,20.3412435 42.8963674,19.0828867 C44.6764945,17.8245299 45.4361645,15.5578826 44.7738664,13.4809436 C44.1115683,11.4040046 42.1799758,9.995552 40,10 Z M34,18 C32.3431458,18 31,16.6568542 31,15 C31,13.3431458 32.3431458,12 34,12 C35.6568542,12 37,13.3431458 37,15 C37,16.6568542 35.6568542,18 34,18 Z M40,18 C39.3996678,17.9968467 38.8143448,17.8120812 38.321,17.47 C39.226347,15.9477746 39.226347,14.0522254 38.321,12.53 C39.3846066,11.8069185 40.7911826,11.8438942 41.8153301,12.621858 C42.8394777,13.3998218 43.2523587,14.7449434 42.8410427,15.9635184 C42.4297267,17.1820934 41.2861192,18.0018402 40,18 Z" id="Shape" fill="#000000"></path>
                    <rect id="Rectangle-path" fill="#000000" x="26" y="23" width="2" height="4"></rect>
                    <rect id="Rectangle-path" fill="#000000" x="22" y="23" width="2" height="4"></rect>
                    <rect id="Rectangle-path" fill="#000000" x="18" y="23" width="2" height="4"></rect>
                    <rect id="Rectangle-path" fill="#000000" x="14" y="23" width="2" height="4"></rect>
                    <rect id="Rectangle-path" fill="#000000" x="10" y="23" width="2" height="4"></rect>
                    <rect id="Rectangle-path" fill="#000000" x="6" y="23" width="2" height="4"></rect>
                    <rect id="Rectangle-path" fill="#000000" x="6" y="30" width="14" height="2"></rect>
                    <rect id="Rectangle-path" fill="#000000" x="6" y="34" width="2" height="2"></rect>
                    <rect id="Rectangle-path" fill="#000000" x="10" y="34" width="2" height="2"></rect>
                    <rect id="Rectangle-path" fill="#000000" x="14" y="34" width="2" height="2"></rect>
                    <rect id="Rectangle-path" fill="#000000" x="18" y="34" width="2" height="2"></rect>
                </g>
            </g>
        </g>
    </g>
</svg>