<?xml version="1.0" encoding="UTF-8" standalone="no"?>
<svg width="96px" height="80px" viewBox="0 0 96 80" version="1.1" xmlns="http://www.w3.org/2000/svg" xmlns:xlink="http://www.w3.org/1999/xlink">
    <!-- Generator: Sketch 49.1 (51147) - http://www.bohemiancoding.com/sketch -->
    <title>Group 10</title>
    <desc>Created with Sketch.</desc>
    <defs>
        <linearGradient x1="126.664402%" y1="146.704102%" x2="0%" y2="0%" id="linearGradient-1">
            <stop stop-color="#34A853" offset="0%"></stop>
            <stop stop-color="#97D48D" offset="100%"></stop>
        </linearGradient>
    </defs>
    <g id="Page-1" stroke="none" stroke-width="1" fill="none" fill-rule="evenodd">
        <g id="Pixel" transform="translate(-162.000000, -3307.000000)">
            <g id="Group-10" transform="translate(162.000000, 3301.000000)">
                <path d="M64.0791102,93 C87.3187611,93 104.262765,78.1299559 72.7034323,50 C41.1440997,21.8700441 87.3187611,7 64.0791102,7 C40.8394594,7 22,26.2517558 22,50 C22,73.7482442 40.8394594,93 64.0791102,93 Z" id="Oval-2-Copy-6" fill="url(#linearGradient-1)" opacity="0.0801072761" transform="translate(56.000000, 50.000000) rotate(-117.000000) translate(-56.000000, -50.000000) "></path>
                <g id="harvest" transform="translate(0.000000, 7.000000)" fill-rule="nonzero">
                    <path d="M25.6701025,52.1537466 L25.7798471,52.1322749 C28.4703798,51.5996555 30.2203293,48.9866599 29.6877101,46.2955309 L26.867154,32.0502016 L21.8857024,33.0367104 L25.6701025,52.1537466 Z" id="Shape" fill="#FCDA4F"></path>
                    <path d="M27.7480931,3.61202957 C22.0437584,3.49274194 17.2752352,10.2587366 17.0974966,18.7251764 C16.9197581,27.1916163 21.3996052,34.1520497 27.1039399,34.2719338 C32.8082746,34.391818 37.5767976,27.6258233 37.7545363,19.1593834 C37.9322749,10.6929435 33.4524278,3.7319136 27.7480931,3.61202957 Z" id="Shape" fill="#CCC033"></path>
                    <path d="M32.8357106,15.0755712 C31.9094422,10.3959174 29.8350303,6.38665995 27.19937,3.62395833 C21.6173051,3.94245624 17.1177755,10.8050739 17.0927251,19.1361223 C17.0682711,27.2864499 21.3351899,33.8699345 26.7454804,34.2552335 C31.848009,31.5128109 34.5224378,23.5944977 32.8357106,15.0755712 Z" id="Shape" fill="#99AF17"></path>
                    <path d="M25.6701025,52.1537466 L25.5603579,52.1758149 C22.8698253,52.7078377 20.2568297,50.959081 19.7242104,48.267952 L16.9036542,34.0226227 L21.8851058,33.0361139 L25.6701025,52.1537466 Z" id="Shape" fill="#FCDA4F"></path>
                    <path d="M20.9027723,17.9736644 C17.5126175,10.2140037 10.5253445,5.77471431 5.29696737,8.05907258 C0.0679938753,10.3434309 -1.4213122,18.4866012 1.96884237,26.2468583 C5.35959334,34.0071152 12.3468666,38.4458082 17.5752437,36.1614499 C22.8036206,33.8770918 24.2935232,25.7339213 20.9027723,17.9736644 Z" id="Shape" fill="#99AF17"></path>
                    <path d="M30.8877437,15.4626596 C28.9564768,5.70552763 22.0360046,-1.14456489 15.430452,0.162827583 C8.82489919,1.47081646 5.03632392,10.4406502 6.9681872,20.1977823 C8.89945393,29.9549144 15.8199261,36.8050067 22.4254789,35.4970178 C29.0304351,34.1896254 32.8196068,25.2197917 30.8877437,15.4626596 Z" id="Shape" fill="#EACF32"></path>
                    <path d="M13.4657846,18.9100722 C11.8631552,10.8170027 14.1970178,3.26549903 18.8092742,0.179527852 C17.6909526,-0.0459257011 16.5559309,-0.0608367699 15.4298556,0.162827583 C8.82489919,1.47022006 5.03632392,10.4400538 6.9681872,20.1965895 C8.89945393,29.9537214 15.8199261,36.8032174 22.4248825,35.4958249 C23.5509577,35.2727571 24.5947245,34.8266213 25.5430611,34.1920111 C20.1029486,33.0963541 15.0678176,27.0037383 13.4657846,18.9100722 Z" id="Shape" fill="#CCC033"></path>
                    <path d="M18.1263525,19.2381133 C15.6308552,19.2381133 13.6208585,17.9008988 13.5224462,17.8340977 C13.1037466,17.5501932 12.9940019,16.9811912 13.2773101,16.5618952 C13.5606183,16.1431955 14.1290238,16.0328545 14.5477235,16.3149697 C14.5799311,16.3364416 16.7945061,17.788172 19.0973539,17.3074428 C20.3999748,17.035467 21.5194892,16.1807711 22.4254789,14.7672127 C22.6980511,14.3407594 23.2640709,14.2161039 23.6911206,14.489869 C24.1169775,14.7630376 24.2410367,15.329654 23.9678679,15.7555108 C22.7821488,17.605662 21.2642137,18.7323337 19.4540238,19.1051075 C19.0025202,19.1981519 18.5575772,19.2381133 18.1263525,19.2381133 Z" id="Shape" fill="#FFEEA4"></path>
                    <path d="M19.6299731,27.4522598 C15.8688341,27.4522598 12.7035367,24.811828 12.5532342,24.6847867 C12.1673387,24.3579385 12.1196237,23.77999 12.4464718,23.3940945 C12.7733199,23.0081989 13.3500756,22.9598875 13.7365676,23.286139 C13.7717573,23.3153646 17.2835853,26.2319472 20.8025706,25.5019069 C22.8060063,25.0867859 24.4867692,23.5420111 25.7989332,20.9099294 C26.0243867,20.4572329 26.5748992,20.2729335 27.0269993,20.4983871 C27.4796959,20.7244372 27.6639954,21.2743531 27.4385417,21.7270497 C25.8609627,24.8917507 23.7495716,26.7663558 21.1628191,27.2983787 C20.6457074,27.4051411 20.132174,27.4522598 19.6299731,27.4522598 Z" id="Shape" fill="#FFEEA4"></path>
                    <path d="M19.1385081,12.3075017 C19.0001344,11.7045027 18.3607527,11.3287466 17.696917,11.4605595 C17.0348706,11.5917759 16.587542,12.1792675 16.6865507,12.7888272 L22.7767809,50.2857024 C22.7928848,50.3841146 22.8227066,50.4765626 22.8632644,50.5636425 C23.2139701,51.6992608 24.4175824,52.4018648 25.6635417,52.1555359 C25.6724883,52.1537466 25.6808383,52.1507644 25.6891885,52.1489751 C25.699328,52.1471859 25.7094674,52.1459929 25.7196068,52.1442036 C26.9500588,51.9008568 27.7797043,50.7932711 27.6586273,49.6135165 C27.6633988,49.5198756 27.6562416,49.4244455 27.6341734,49.3290154 L19.1385081,12.3075017 Z" id="Shape" fill="#FFF9DC"></path>
                    <path d="M24.3352738,50.2719842 C24.294716,50.1849042 24.2642976,50.0924562 24.2487903,49.994044 L18.1585601,12.497169 C18.1007056,12.1416918 18.2295363,11.7945649 18.4776546,11.5404822 C18.2444472,11.4396841 17.973068,11.4056872 17.696917,11.4605595 C17.0348706,11.5911794 16.587542,12.1792675 16.6865507,12.7882308 L22.7767809,50.2851058 C22.7928848,50.3835181 22.8227066,50.4765626 22.8632644,50.5630461 C23.2139701,51.6986644 24.4175824,52.4018648 25.6635417,52.1549395 C25.6724883,52.1531502 25.6808383,52.1507644 25.6891885,52.1489751 C25.699328,52.1465895 25.7094674,52.1459929 25.7196068,52.1442036 C25.9647429,52.0952957 26.1931788,52.0117944 26.401932,51.9008568 C25.443456,51.8113911 24.6155998,51.180956 24.3352738,50.2719842 Z" id="Shape" fill="#FFF4C1"></path>
                    <path d="M44.3165491,46.8895833 C42.8594506,46.0831989 42.1777218,44.3732106 42.6996052,42.8355931 L50.4312331,20.0606014 C51.9432039,15.6064013 57.1960349,13.664995 61.4158351,16.0012433 C65.6356352,18.3374916 66.7790071,23.8193548 63.8069556,27.4653813 L48.6103074,46.1076529 C47.5844338,47.3667339 45.7736475,47.6965641 44.3165491,46.8895833 Z" id="Shape" fill="#FF624B"></path>
                    <path d="M67.5191868,10.2313003 L67.5179939,10.2313003 C67.753587,10.0016717 67.9605511,9.73506377 68.1281502,9.43266973 C69.0699261,7.73162806 68.4180192,5.56834677 66.6716482,4.60152054 C64.9258737,3.6352907 62.7464885,4.23113247 61.8047127,5.93217398 C61.6377101,6.23456817 61.5214046,6.55127688 61.4516213,6.87275709 L61.4510249,6.87275709 L61.4492356,6.88289651 C61.4301496,6.97355511 61.4146421,7.06481011 61.4027133,7.15666166 L60.3237567,13.4765205 C60.2348875,13.9966146 60.4931452,14.5220766 60.9655242,14.7833165 C61.430746,15.0409777 62.003923,14.986702 62.3975722,14.6467322 L67.2036711,10.5026797 C67.3104335,10.4215641 67.411828,10.3332913 67.5090474,10.2396505 L67.5191868,10.2313003 Z" id="Shape" fill="#EACF32"></path>
                    <g id="Group" transform="translate(45.653763, 21.681720)" fill="#FF4B34">
                        <path d="M4.86454973,16.5475806 C4.74287634,16.5475806 4.6188172,16.5231267 4.50012597,16.4712366 L0.611945488,14.7815273 C0.147916667,14.5799311 -0.0650117226,14.040751 0.136584303,13.5761256 C0.338180482,13.1126932 0.877956989,12.8991684 1.34198581,13.101361 L5.23016629,14.7910703 C5.69419527,14.9920699 5.90712366,15.5318464 5.70552763,15.9958754 C5.55522506,16.3412131 5.21883408,16.5475806 4.86454973,16.5475806 Z" id="Shape"></path>
                        <path d="M10.6577537,13.5701613 C10.5366767,13.5701613 10.4126175,13.5457074 10.2933299,13.4938172 L5.23732355,11.2983283 C4.77329473,11.0967322 4.56036634,10.5569556 4.76196237,10.0929267 C4.96355839,9.62889785 5.5021421,9.41537291 5.96676747,9.61756549 L11.0233702,11.8130545 C11.4873992,12.0146505 11.7003276,12.554427 11.4987316,13.018456 C11.3490255,13.3637938 11.012038,13.5701613 10.6577537,13.5701613 Z" id="Shape"></path>
                        <path d="M8.66087866,6.99025538 C8.53980182,6.99025538 8.41514613,6.96580145 8.29705145,6.91391129 L4.40887097,5.22420199 C3.94424559,5.02260581 3.7319136,4.4828293 3.93350978,4.01880033 C4.13450941,3.55536791 4.67547887,3.34184312 5.13831489,3.54403569 L9.02649537,5.2331486 C9.49052419,5.43474462 9.70345258,5.97511753 9.50185656,6.43855011 C9.35215054,6.78388785 9.01516301,6.99025538 8.66087866,6.99025538 Z" id="Shape"></path>
                        <path d="M16.3048303,4.94029742 C16.1831569,4.94029742 16.0590977,4.91584334 15.9404067,4.86454973 L8.966255,1.83583677 C8.50222618,1.63424059 8.28929764,1.09446408 8.49089382,0.63043511 C8.69249,0.166406288 9.23107355,-0.0465222538 9.69569892,0.155073925 L16.670447,3.18378689 C17.1344758,3.38538306 17.3474042,3.92515957 17.1458082,4.38918855 C16.9955058,4.73452613 16.6585181,4.94029742 16.3048303,4.94029742 Z" id="Shape"></path>
                    </g>
                    <path d="M61.9830476,14.8817289 C61.9854335,14.8596605 61.9878191,14.836996 61.9913978,14.8143314 L63.0697581,8.49447237 C63.0816868,8.40262097 63.0971943,8.31136597 63.1168767,8.22070736 L63.1186659,8.21056795 L63.1192625,8.21056795 C63.1890457,7.88908774 63.3047546,7.57237903 63.4717573,7.26998484 C64.3413642,5.69896677 66.2654739,5.07211022 67.9301327,5.74548887 C67.6170027,5.28742436 67.1935315,4.89079301 66.6716482,4.60211694 C64.9252773,3.6352907 62.7464885,4.23113247 61.8041163,5.93277054 C61.6371137,6.23456817 61.5214046,6.55127688 61.4516213,6.87335349 L61.4510249,6.87275709 L61.4492356,6.88349291 C61.429553,6.97415151 61.4140457,7.06540666 61.4021169,7.15666166 L60.3237567,13.4771169 C60.2348875,13.997211 60.4931452,14.5220766 60.9649278,14.783913 C61.2852151,14.9604587 61.6550067,14.9896841 61.9830476,14.8817289 Z" id="Shape" fill="#CCC033"></path>
                    <path d="M61.4802504,13.7616179 L60.3965223,8.653125 C60.3804184,8.54457333 60.3571573,8.43602151 60.3279318,8.32866263 L60.3255461,8.31911962 L60.3249497,8.31911962 C60.2527805,8.05728323 60.1430359,7.80021849 59.9921371,7.55567876 C59.1422127,6.17790666 57.3356014,5.71626344 55.9566363,6.5244372 C54.5776713,7.33320736 54.1494288,9.10582161 54.9993531,10.4835937 C55.1502519,10.7281334 55.3315691,10.9428512 55.5349547,11.1277469 L55.5343583,11.1283433 L55.5415154,11.1337114 C55.5987734,11.1856014 55.6578209,11.2351058 55.719254,11.2822245 L59.8269238,14.7123404 C60.1651041,14.9944556 60.6428512,15.0373992 61.015625,14.8185063 C61.3836273,14.6031922 61.5691196,14.1803176 61.4802504,13.7616179 Z" id="Shape" fill="#FCE575"></path>
                    <path d="M57.778755,10.3350806 C57.7185148,10.2885584 57.658871,10.2390541 57.6010165,10.187164 L57.5944556,10.1811997 L57.595052,10.1806031 C57.3916667,9.99630376 57.2103495,9.78098962 57.0594506,9.53644989 C56.3693717,8.41812828 56.5220599,7.03975978 57.3409695,6.1278057 C56.8656083,6.14212022 56.3896505,6.27035446 55.9566363,6.5244372 C54.5776713,7.33261096 54.1494288,9.10582161 54.9993531,10.4835937 C55.1502519,10.7281334 55.3315691,10.9428512 55.5349547,11.1277469 L55.5343583,11.1283433 L55.5415154,11.1337114 C55.5987734,11.1856014 55.6578209,11.2351058 55.719254,11.2822245 L59.8269238,14.7123404 C60.1651041,14.9944556 60.6428512,15.0373992 61.015625,14.8185063 C61.3836273,14.6031922 61.5691196,14.1803176 61.4802504,13.7616179 L61.3937669,13.3536542 L57.778755,10.3350806 Z" id="Shape" fill="#EACF32"></path>
                    <path d="M70.8514869,14.7701949 C70.8043683,13.172337 69.4540323,11.8864163 67.8352991,11.8971523 C67.5478159,11.8989416 67.2716649,11.943078 67.0116179,12.0206148 L67.0116179,12.0200184 L67.0020749,12.0235971 C66.8953126,12.0558047 66.7909359,12.0939768 66.6901378,12.1375169 L61.7856267,13.9304099 C61.3842239,14.0771337 61.1241767,14.4594506 61.136702,14.8853074 C61.1492272,15.3177251 61.439096,15.700042 61.8577957,15.8366263 L66.9454132,17.4965138 C67.0169858,17.5233535 67.0903477,17.547211 67.1649025,17.5686828 L67.1738491,17.5710685 L67.1738491,17.5704721 C67.4386676,17.6450269 67.7166079,17.6843917 68.004091,17.6826025 C69.6234207,17.6718666 70.898009,16.3674562 70.8514869,14.7701949 Z" id="Shape" fill="#FCE575"></path>
                    <path d="M70.0641885,16.7354587 C69.7767053,16.7378445 69.4981686,16.6978831 69.2339466,16.6239247 L69.2339466,16.6245211 L69.225,16.621539 C69.1504453,16.6006636 69.0770833,16.5762097 69.0055108,16.5499664 L63.9178932,14.8894825 C63.4991935,14.7528982 63.2093245,14.3705814 63.1967994,13.93876 C63.1902385,13.7234459 63.253461,13.5200605 63.3691701,13.3518648 L61.7856267,13.9310063 C61.3842239,14.0777302 61.1241767,14.4594506 61.136702,14.885904 C61.1492272,15.3177251 61.439096,15.700042 61.8577957,15.8366263 L66.9454132,17.4971102 C67.0169858,17.5233535 67.0903477,17.5478074 67.1649025,17.5686828 L67.1738491,17.5716649 L67.1738491,17.5710685 C67.4386676,17.6456233 67.7166079,17.6849883 68.004091,17.6831989 C68.8575941,17.6772346 69.6150706,17.3116179 70.1339718,16.7336694 C70.1107106,16.7342658 70.0880461,16.7354587 70.0641885,16.7354587 Z" id="Shape" fill="#EACF32"></path>
                    <path d="M46.738088,43.868624 L54.469716,21.0936325 C55.5254117,17.9832074 58.4056116,16.0984627 61.4838289,16.0400117 C61.4611644,16.0268902 61.4384996,16.0137684 61.4158351,16.0012433 C57.1960349,13.664995 51.9432039,15.6064013 50.4312331,20.0606014 L42.6996052,42.8355931 C42.1771254,44.3732106 42.8594506,46.0831989 44.3159526,46.8895833 C45.2756217,47.4204132 46.3879789,47.4585853 47.3291582,47.0637433 C46.6122396,46.1792254 46.361139,44.9791918 46.738088,43.868624 Z" id="Shape" fill="#FF4B34"></path>
                    <path d="M36.3761676,24.2291079 C35.9192961,24.2291079 35.5411542,23.8593162 35.5137181,23.3845514 L35.1302083,16.8809896 C35.0997899,16.3632813 35.4952285,15.9260921 35.9932544,15.9260921 L36.759081,15.9260921 C37.2577033,15.9260921 37.6525453,16.3632813 37.6221271,16.8809896 L37.2392137,23.3845514 C37.2117776,23.8593162 36.8336358,24.2291079 36.3761676,24.2291079 Z" id="Shape" fill="#BF6C0D"></path>
                    <path d="M37.3268902,21.199202 C42.5481098,24.0913306 43.9730007,18.0720766 44.293288,16.1026378 C44.3469674,15.7698253 44.124496,15.4572917 43.8024194,15.4119624 C41.8562416,15.1417759 35.6753529,14.7242692 36.8902974,20.5985887 C36.9433804,20.8556536 37.1032258,21.0757392 37.3268902,21.199202 Z" id="Shape" fill="#EACF32"></path>
                    <path d="M36.3206989,23.3845514 L35.9377857,16.8809896 C35.9079637,16.3704385 36.2914735,15.9392137 36.7799562,15.9272849 C36.7727991,15.9266885 36.7662383,15.9260921 36.759081,15.9260921 L35.9932544,15.9260921 C35.4952285,15.9260921 35.0997899,16.3632813 35.1302083,16.8809896 L35.5137181,23.3845514 C35.5417507,23.8593162 35.9192961,24.2291079 36.3761676,24.2291079 C36.5216986,24.2291079 36.6594758,24.1915323 36.7799562,24.1253276 C36.5216986,23.9827788 36.3391885,23.7078209 36.3206989,23.3845514 Z" id="Shape" fill="#8C4C17"></path>
                    <path d="M44.0845346,21.4771421 C41.3659695,20.8926327 38.6151966,21.7449428 36.3558888,23.5980762 C34.0959846,21.7449428 31.3452116,20.8926327 28.6266465,21.4771421 C23.1406083,22.6574933 19.8643733,29.2409777 21.3089466,36.1823253 C22.7535198,43.1236728 28.371371,47.79438 33.8574094,46.6146254 C34.752663,46.4219758 35.5888692,46.0849883 36.3552923,45.6263272 C37.1217154,46.0849883 37.9579217,46.4219758 38.8531755,46.6146254 C44.3392137,47.79438 49.9576613,43.1236728 51.4016381,36.1823253 C52.8468078,29.2409777 49.570573,22.6574933 44.0845346,21.4771421 Z" id="Shape" fill="#FF624B"></path>
                    <path d="M38.461912,21.3846943 C37.4241095,16.3626847 41.7894405,15.9392137 44.2944808,16.0907089 C44.3415995,15.762668 44.1209174,15.4560987 43.8024194,15.4119624 C41.8562416,15.1411794 35.6759493,14.7236728 36.8902974,20.5985887 C36.9433804,20.8550572 37.1044186,21.0757392 37.3274866,21.199202 C37.7974798,21.4598454 38.2370547,21.6471271 38.6474042,21.772379 C38.5573421,21.662038 38.4923303,21.5296287 38.461912,21.3846943 Z" id="Shape" fill="#CCC033"></path>
                    <path d="M26.0255797,36.1823253 C24.6370716,29.5099714 27.6109123,23.1686408 32.716423,21.6393733 C31.3899445,21.2540743 30.0044186,21.1813088 28.6266465,21.4771421 C23.1406083,22.6574933 19.8643733,29.2409777 21.3089466,36.1823253 C22.7535198,43.1236728 28.371371,47.79438 33.8574094,46.6146254 C34.0697412,46.5692961 34.2784946,46.5144238 34.4836694,46.4529906 C30.5298808,45.3048471 27.1075184,41.380284 26.0255797,36.1823253 Z" id="Shape" fill="#FF4B34"></path>
                    <path d="M5.80334334,62.2520413 L5.80334334,27.3431116 C5.80334334,26.5259912 6.46538978,25.8639449 7.28251,25.8639449 L14.2745547,25.8639449 C15.0916751,25.8639449 15.7537214,26.5259912 15.7537214,27.3431116 L15.7537214,62.2520413 C15.7537214,63.0685653 15.0916751,63.7306116 14.2745547,63.7306116 L7.28251,63.7306116 C6.46538978,63.7306116 5.80334334,63.0685653 5.80334334,62.2520413 Z" id="Shape" fill="#DB9C2E"></path>
                    <path d="M55.4013525,62.2520413 L55.4013525,27.3431116 C55.4013525,26.5259912 56.0633988,25.8639449 56.8805192,25.8639449 L63.8725638,25.8639449 C64.6896841,25.8639449 65.3517304,26.5259912 65.3517304,27.3431116 L65.3517304,62.2520413 C65.3517304,63.0685653 64.6896841,63.7306116 63.8725638,63.7306116 L56.8805192,63.7306116 C56.0639954,63.7306116 55.4013525,63.0685653 55.4013525,62.2520413 Z" id="Shape" fill="#DB9C2E"></path>
                    <path d="M68.4054939,39.131712 L2.7495799,39.131712 C1.9062164,39.131712 1.22269818,38.4481939 1.22269818,37.6048303 L1.22269818,30.7338625 C1.22269818,29.890499 1.9062164,29.2069808 2.7495799,29.2069808 L68.4054939,29.2069808 C69.2488575,29.2069808 69.9323756,29.890499 69.9323756,30.7338625 L69.9323756,37.6048303 C69.9323756,38.4481939 69.2488575,39.131712 68.4054939,39.131712 Z" id="Shape" fill="#FFC34C"></path>
                    <path d="M68.4054939,51.4994539 L2.7495799,51.4994539 C1.9062164,51.4994539 1.22269818,50.8159359 1.22269818,49.9725722 L1.22269818,43.1016045 C1.22269818,42.258241 1.9062164,41.5747227 2.7495799,41.5747227 L68.4054939,41.5747227 C69.2488575,41.5747227 69.9323756,42.258241 69.9323756,43.1016045 L69.9323756,49.9725722 C69.9323756,50.8159359 69.2488575,51.4994539 68.4054939,51.4994539 Z" id="Shape" fill="#FFC34C"></path>
                    <path d="M68.4054939,63.8671959 L2.7495799,63.8671959 C1.9062164,63.8671959 1.22269818,63.1836778 1.22269818,62.3403141 L1.22269818,55.4693464 C1.22269818,54.6259829 1.9062164,53.9424647 2.7495799,53.9424647 L68.4054939,53.9424647 C69.2488575,53.9424647 69.9323756,54.6259829 69.9323756,55.4693464 L69.9323756,62.3403141 C69.9323756,63.1836778 69.2488575,63.8671959 68.4054939,63.8671959 Z" id="Shape" fill="#FFC34C"></path>
                    <path d="M67.1839885,62.0343414 C66.6782089,62.0343414 66.2678595,61.6245883 66.2678595,61.1182124 L66.2678595,56.6902554 C66.2678595,56.1844758 66.6782089,55.7741263 67.1839885,55.7741263 C67.6897681,55.7741263 68.1001175,56.1844758 68.1001175,56.6902554 L68.1001175,61.1182124 C68.1001175,61.6245883 67.6897681,62.0343414 67.1839885,62.0343414 Z" id="Shape" fill="#FFD551"></path>
                    <path d="M61.8399025,58.5231098 C61.8399025,59.3664735 61.1563844,60.0499916 60.3130208,60.0499916 C59.4696573,60.0499916 58.786139,59.3664735 58.786139,58.5231098 C58.786139,57.6797463 59.4696573,56.9962281 60.3130208,56.9962281 C61.1563844,56.9962281 61.8399025,57.6797463 61.8399025,58.5231098 Z" id="Shape" fill="#FFDF74"></path>
                    <path d="M61.8399025,46.1553679 C61.8399025,46.9987316 61.1563844,47.6822496 60.3130208,47.6822496 C59.4696573,47.6822496 58.786139,46.9987316 58.786139,46.1553679 C58.786139,45.3120044 59.4696573,44.6284862 60.3130208,44.6284862 C61.1563844,44.6284862 61.8399025,45.3120044 61.8399025,46.1553679 Z" id="Shape" fill="#FFDF74"></path>
                    <path d="M61.8399025,33.787626 C61.8399025,34.6309896 61.1563844,35.3145077 60.3130208,35.3145077 C59.4696573,35.3145077 58.786139,34.6309896 58.786139,33.787626 C58.786139,32.9442625 59.4696573,32.2607442 60.3130208,32.2607442 C61.1563844,32.2607442 61.8399025,32.9442625 61.8399025,33.787626 Z" id="Shape" fill="#FFDF74"></path>
                    <path d="M10.3839885,49.9725722 L10.3839885,43.1016045 C10.3839885,42.258241 11.0675067,41.5747227 11.9108702,41.5747227 L2.7495799,41.5747227 C1.9062164,41.5747227 1.22269818,42.258241 1.22269818,43.1016045 L1.22269818,49.9725722 C1.22269818,50.8159359 1.9062164,51.4994539 2.7495799,51.4994539 L11.9108702,51.4994539 C11.0675067,51.4994539 10.3839885,50.8159359 10.3839885,49.9725722 Z" id="Shape" fill="#F9BB32"></path>
                    <path d="M10.3839885,62.3403141 L10.3839885,55.4693464 C10.3839885,54.6259829 11.0675067,53.9424647 11.9108702,53.9424647 L2.7495799,53.9424647 C1.9062164,53.9424647 1.22269818,54.6259829 1.22269818,55.4693464 L1.22269818,62.3403141 C1.22269818,63.1836778 1.9062164,63.8671959 2.7495799,63.8671959 L11.9108702,63.8671959 C11.0675067,63.8671959 10.3839885,63.1836778 10.3839885,62.3403141 Z" id="Shape" fill="#F9BB32"></path>
                    <path d="M10.3839885,37.6048303 L10.3839885,30.7338625 C10.3839885,29.890499 11.0675067,29.2069808 11.9108702,29.2069808 L2.7495799,29.2069808 C1.9062164,29.2069808 1.22269818,29.890499 1.22269818,30.7338625 L1.22269818,37.6048303 C1.22269818,38.4481939 1.9062164,39.131712 2.7495799,39.131712 L11.9108702,39.131712 C11.0675067,39.131712 10.3839885,38.4481939 10.3839885,37.6048303 Z" id="Shape" fill="#F9BB32"></path>
                    <path d="M12.3689347,33.787626 C12.3689347,34.6309896 11.6854167,35.3145077 10.842053,35.3145077 C9.99868952,35.3145077 9.31517129,34.6309896 9.31517129,33.787626 C9.31517129,32.9442625 9.99868952,32.2607442 10.842053,32.2607442 C11.6854167,32.2607442 12.3689347,32.9442625 12.3689347,33.787626 Z" id="Shape" fill="#FFDF74"></path>
                    <path d="M12.3689347,46.1553679 C12.3689347,46.9987316 11.6854167,47.6822496 10.842053,47.6822496 C9.99868952,47.6822496 9.31517129,46.9987316 9.31517129,46.1553679 C9.31517129,45.3120044 9.99868952,44.6284862 10.842053,44.6284862 C11.6854167,44.6284862 12.3689347,45.3120044 12.3689347,46.1553679 Z" id="Shape" fill="#FFDF74"></path>
                    <path d="M12.3689347,58.5231098 C12.3689347,59.3664735 11.6854167,60.0499916 10.842053,60.0499916 C9.99868952,60.0499916 9.31517129,59.3664735 9.31517129,58.5231098 C9.31517129,57.6797463 9.99868952,56.9962281 10.842053,56.9962281 C11.6854167,56.9962281 12.3689347,57.6797463 12.3689347,58.5231098 Z" id="Shape" fill="#FFDF74"></path>
                    <path d="M10.3839885,47.61187 L10.3839885,44.6982696 C9.76488575,44.8927083 9.31517129,45.4718498 9.31517129,46.1553679 C9.31517129,46.8388861 9.76428935,47.4174311 10.3839885,47.61187 Z" id="Shape" fill="#FFD551"></path>
                    <path d="M10.3839885,59.9796119 L10.3839885,57.0660115 C9.76488575,57.2604503 9.31517129,57.8395918 9.31517129,58.5231098 C9.31517129,59.2066281 9.76428935,59.785173 10.3839885,59.9796119 Z" id="Shape" fill="#FFD551"></path>
                    <path d="M10.3839885,35.2441281 L10.3839885,32.3305276 C9.76488575,32.5249664 9.31517129,33.1041079 9.31517129,33.787626 C9.31517129,34.4711442 9.76428935,35.0496891 10.3839885,35.2441281 Z" id="Shape" fill="#FFD551"></path>
                    <path d="M22.8990507,33.787626 C22.8990507,35.2632141 21.7025958,36.459669 20.2270077,36.459669 C18.7514197,36.459669 17.5549647,35.2632141 17.5549647,33.787626 C17.5549647,32.312038 18.7514197,31.115583 20.2270077,31.115583 C21.7025958,31.115583 22.8990507,32.312038 22.8990507,33.787626 Z" id="Shape" fill="#F9BB32"></path>
                    <path d="M32.060341,46.1553679 C32.060341,47.630956 30.8638861,48.8274109 29.388298,48.8274109 C27.9127101,48.8274109 26.716255,47.630956 26.716255,46.1553679 C26.716255,44.6797799 27.9127101,43.4833249 29.388298,43.4833249 C30.8638861,43.4833249 32.060341,44.6797799 32.060341,46.1553679 Z" id="Shape" fill="#F9BB32"></path>
                    <path d="M67.1839885,49.6665995 C66.6782089,49.6665995 66.2678595,49.2568464 66.2678595,48.7504704 L66.2678595,44.3225134 C66.2678595,43.8167339 66.6782089,43.4063844 67.1839885,43.4063844 C67.6897681,43.4063844 68.1001175,43.8167339 68.1001175,44.3225134 L68.1001175,48.7504704 C68.1001175,49.2568464 67.6897681,49.6665995 67.1839885,49.6665995 Z" id="Shape" fill="#FFD551"></path>
                    <path d="M67.1839885,36.840793 C66.6782089,36.840793 66.2678595,36.4310399 66.2678595,35.924664 L66.2678595,31.496707 C66.2678595,30.9909274 66.6782089,30.580578 67.1839885,30.580578 C67.6897681,30.580578 68.1001175,30.9909274 68.1001175,31.496707 L68.1001175,35.924664 C68.1001175,36.4310399 67.6897681,36.840793 67.1839885,36.840793 Z" id="Shape" fill="#FFD551"></path>
                </g>
            </g>
        </g>
    </g>
</svg>