<?xml version="1.0" encoding="UTF-8" standalone="no"?>
<svg width="95px" height="89px" viewBox="0 0 95 89" version="1.1" xmlns="http://www.w3.org/2000/svg" xmlns:xlink="http://www.w3.org/1999/xlink">
    <!-- Generator: Sketch 49.1 (51147) - http://www.bohemiancoding.com/sketch -->
    <title>Group 25</title>
    <desc>Created with Sketch.</desc>
    <defs>
        <linearGradient x1="126.664402%" y1="146.704102%" x2="0%" y2="0%" id="linearGradient-1">
            <stop stop-color="#34A853" offset="0%"></stop>
            <stop stop-color="#97D48D" offset="100%"></stop>
        </linearGradient>
    </defs>
    <g id="Page-1" stroke="none" stroke-width="1" fill="none" fill-rule="evenodd">
        <g id="Pixel" transform="translate(-749.000000, -3552.000000)">
            <g id="Group-25" transform="translate(749.000000, 3552.000000)">
                <path d="M63.0791102,96 C86.3187611,96 103.262765,81.1299559 71.7034323,53 C40.1440997,24.8700441 86.3187611,10 63.0791102,10 C39.8394594,10 21,29.2517558 21,53 C21,76.7482442 39.8394594,96 63.0791102,96 Z" id="Oval-2-Copy-7" fill="url(#linearGradient-1)" opacity="0.0801072761" transform="translate(55.000000, 53.000000) rotate(-117.000000) translate(-55.000000, -53.000000) "></path>
                <g id="coins" fill-rule="nonzero">
                    <circle id="Oval" fill="#FDB62F" cx="57.6" cy="42.0374531" r="8.39995312"></circle>
                    <rect id="Rectangle-path" fill="#6B962A" x="34.8000469" y="8.4375" width="2.40004688" height="22.7999531"></rect>
                    <path d="M36,8.4375 L33.5999531,8.4375 C28.9607344,8.4375 25.2,4.67676562 25.2,0.037546875 L27.6000469,0.037546875 C32.2392656,0.037546875 36,3.79828125 36,8.4375 Z" id="Shape" fill="#88B337"></path>
                    <rect id="Rectangle-path" fill="#FFA83D" x="25.2" y="36.0375469" width="16.8000469" height="4.79995312"></rect>
                    <rect id="Rectangle-path" fill="#FDB62F" x="27.6000469" y="40.8375" width="16.8000469" height="4.79995312"></rect>
                    <rect id="Rectangle-path" fill="#FFA83D" x="25.2" y="45.6374531" width="16.8000469" height="4.79995313"></rect>
                    <rect id="Rectangle-path" fill="#FDB62F" x="27.6000469" y="50.4375469" width="16.8000469" height="4.79995312"></rect>
                    <rect id="Rectangle-path" fill="#FFA83D" x="27.6000469" y="55.2375" width="16.8000469" height="4.79995312"></rect>
                    <rect id="Rectangle-path" fill="#FDB62F" x="29.9999531" y="60.0374531" width="16.8000469" height="4.79995313"></rect>
                    <rect id="Rectangle-path" fill="#FFA83D" x="27.6000469" y="64.8375469" width="16.8000469" height="4.79995312"></rect>
                    <path d="M21.6,12.0375 L24.0000469,12.0375 C30.6277031,12.0375 36,17.4099375 36,24.0374531 L33.5999531,24.0374531 C26.9724375,24.0374531 21.6,18.6651562 21.6,12.0375 Z" id="Shape" fill="#88B337"></path>
                    <g id="Group" transform="translate(36.000000, 0.000000)" fill="#6B962A">
                        <path d="M10.8,0.037546875 L8.39995312,0.037546875 C3.76073437,0.037546875 0,3.79828125 0,8.4375 L2.40004688,8.4375 C7.03926563,8.4375 10.8,4.67676562 10.8,0.037546875 Z" id="Shape"></path>
                        <path d="M2.40004687,24.0374531 L0,24.0374531 C0,17.4097969 5.3724375,12.0375 11.9999531,12.0375 L14.4,12.0375 C14.4,18.6651562 9.0275625,24.0374531 2.40004687,24.0374531 Z" id="Shape"></path>
                    </g>
                    <rect id="Rectangle-path" fill="#FDB62F" x="3.6" y="45.6374531" width="16.8000469" height="4.79995313"></rect>
                    <rect id="Rectangle-path" fill="#FFA83D" x="3.6" y="50.4375469" width="16.8000469" height="4.79995312"></rect>
                    <rect id="Rectangle-path" fill="#FDB62F" x="6.00004687" y="55.2375" width="16.8000469" height="4.79995312"></rect>
                    <rect id="Rectangle-path" fill="#FFA83D" x="3.6" y="60.0374531" width="16.8000469" height="4.79995313"></rect>
                    <g id="Group" transform="translate(5.906250, 50.343750)" fill="#FDB62F">
                        <rect id="Rectangle-path" x="0.093796875" y="14.4937969" width="16.8000469" height="4.79995312"></rect>
                        <rect id="Rectangle-path" x="43.2937969" y="0.093796875" width="16.8000469" height="4.79995313"></rect>
                    </g>
                    <rect id="Rectangle-path" fill="#FFA83D" x="51.5999531" y="55.2375" width="16.8000469" height="4.79995312"></rect>
                    <rect id="Rectangle-path" fill="#FDB62F" x="51.5999531" y="60.0374531" width="16.8000469" height="4.79995313"></rect>
                    <g id="Group" transform="translate(51.468750, 37.125000)" fill="#FFA83D">
                        <rect id="Rectangle-path" x="0.131203125" y="27.7125469" width="16.8000469" height="4.79995312"></rect>
                        <circle id="Oval" cx="6.13125" cy="4.91245312" r="4.79995312"></circle>
                    </g>
                    <g id="Group" transform="translate(52.734375, 37.125000)" fill="#FD7B2F">
                        <path d="M4.865625,9.71254687 L4.865625,7.3125 C6.19157813,7.3125 7.26567188,6.23854687 7.26567188,4.91245312 L9.66571875,4.91245312 C9.66557813,7.56323437 7.51640625,9.71254687 4.865625,9.71254687 Z" id="Shape"></path>
                        <path d="M2.46557813,4.91245312 L0.06553125,4.91245312 C0.06553125,2.26167187 2.21470313,0.1125 4.86548437,0.1125 L4.86548437,2.51254688 C3.53967187,2.51254688 2.46557813,3.5865 2.46557813,4.91245312 Z" id="Shape"></path>
                    </g>
                    <g id="Group" transform="translate(7.171875, 2.390625)" fill="#FDB62F">
                        <path d="M52.8281719,9.646875 C52.4202187,7.18453125 50.4905625,5.254875 48.0282188,4.84692187 C50.4905625,4.43896875 52.4202187,2.5093125 52.8281719,0.04696875 C53.236125,2.5093125 55.1657812,4.43896875 57.628125,4.84692187 C55.1657812,5.254875 53.236125,7.18453125 52.8281719,9.646875 Z" id="Shape"></path>
                        <path d="M4.82807813,36.0468281 C4.420125,33.5844844 2.49046875,31.6548281 0.028125,31.246875 C2.49046875,30.8389219 4.420125,28.9092656 4.82807813,26.4469219 C5.23603125,28.9092656 7.1656875,30.8389219 9.62803125,31.246875 C7.1656875,31.6548281 5.23617188,33.5844844 4.82807813,36.0468281 Z" id="Shape"></path>
                        <rect id="Rectangle-path" x="20.4281719" y="28.8468281" width="16.8000469" height="4.79995312"></rect>
                        <polygon id="Shape" points="64.828125 25.2468281 61.228125 25.2468281 61.228125 21.6468281 58.8280781 21.6468281 58.8280781 25.2468281 55.2280781 25.2468281 55.2280781 27.646875 58.8280781 27.646875 58.8280781 31.246875 61.228125 31.246875 61.228125 27.646875 64.828125 27.646875"></polygon>
                    </g>
                    <g id="Group" transform="translate(0.000000, 19.125000)" fill="#DBDBDB">
                        <rect id="Rectangle-path" x="0" y="49.3125469" width="72" height="2.40004688"></rect>
                        <path d="M24.0000469,8.51245312 C20.0233125,8.51245312 16.8000469,5.2891875 16.8000469,1.31245312 L16.8000469,0.1125 L19.2000938,0.1125 L19.2000938,1.31245312 C19.2000938,3.96323437 21.3492656,6.11240625 24.0000469,6.11240625 L24.0000469,8.51245312 Z" id="Shape"></path>
                    </g>
                </g>
            </g>
        </g>
    </g>
</svg>