<svg xmlns="http://www.w3.org/2000/svg" viewBox="67.011 17 83.393 72.7">
  <defs>
    <style>
      .cls-1, .cls-3, .cls-7 {
        fill: #34a853;
      }

      .cls-1, .cls-2, .cls-4, .cls-5 {
        opacity: 0.15;
      }

      .cls-2, .cls-8 {
        fill: #fbbc05;
      }

      .cls-3 {
        opacity: 0.14;
      }

      .cls-11, .cls-4 {
        fill: #ea4335;
      }

      .cls-10, .cls-5 {
        fill: #4285f4;
      }

      .cls-6 {
        fill: #fcfcfd;
      }

      .cls-9 {
        fill: #fff;
        font-size: 9px;
        font-family: CaviarDreams, Caviar Dreams;
      }
    </style>
  </defs>
  <g id="Group_26" data-name="Group 26" transform="translate(-272.904 -120.787)">
    <path id="Path_1" data-name="Path 1" class="cls-1" d="M81.658,89.7a5.166,5.166,0,0,0-2.758.819c.56,3.06,2.887,5.387,5.688,5.387a5.166,5.166,0,0,0,2.758-.819C86.786,92.027,84.459,89.7,81.658,89.7Z" transform="translate(295.108 86.743)"/>
    <path id="Path_2" data-name="Path 2" class="cls-1" d="M108.546,90.519a5.166,5.166,0,0,0-2.758-.819c-2.8,0-5.128,2.284-5.688,5.387a5.166,5.166,0,0,0,2.758.819C105.616,95.906,107.986,93.578,108.546,90.519Z" transform="translate(283.044 86.743)"/>
    <path id="Path_3" data-name="Path 3" class="cls-2" d="M80.5,126s5.818-5.085,5.818-6.852S80.5,112.3,80.5,112.3H11.118S5.3,117.385,5.3,119.152,11.118,126,11.118,126Z" transform="translate(336.991 73.882)"/>
    <path id="Path_4" data-name="Path 4" class="cls-3" d="M88.676,62.432V53.813a4.918,4.918,0,0,0,2.586.776c2.629,0,4.827-2.155,5.344-5.042a5.037,5.037,0,0,0-2.586-.776,5.754,5.754,0,0,0-5.344,4.956V48.039a4.335,4.335,0,0,0,2.327.69,5.176,5.176,0,0,0,4.827-4.568,4.483,4.483,0,0,0-2.37-.69,5.116,5.116,0,0,0-4.783,4.353V42.781a4.049,4.049,0,0,0,1.982.56,4.607,4.607,0,0,0,4.266-3.922h.043v-.086h0l-.345-9.61-.3,9.265a4,4,0,0,0-1.422-.3,4.506,4.506,0,0,0-4.18,3.663V41.7h-.043l-.3-13.7-.3,13.7h-.043v.646a4.506,4.506,0,0,0-4.18-3.663,3.81,3.81,0,0,0-1.422.3l-.345-9.265-.3,9.567h0v.086h0A4.607,4.607,0,0,0,86.047,43.3a3.923,3.923,0,0,0,1.982-.56v5.085a5.19,5.19,0,0,0-4.783-4.353,4.6,4.6,0,0,0-2.37.69A5.176,5.176,0,0,0,85.7,48.728a4.449,4.449,0,0,0,2.327-.69v5.645c-.56-2.844-2.715-4.956-5.344-4.956A4.56,4.56,0,0,0,80.1,49.5c.517,2.887,2.715,5.042,5.344,5.042a4.56,4.56,0,0,0,2.586-.776v8.619h.646Z" transform="translate(294.425 121.854)"/>
    <path id="Path_5" data-name="Path 5" class="cls-4" d="M69.763,148.5v2.93A29.525,29.525,0,0,1,59.2,149.362H48a34.957,34.957,0,0,0,44.129,0H80.967a29.711,29.711,0,0,1-10.558,2.069V148.5Z" transform="translate(312.692 53.282)"/>
    <path id="Path_6" data-name="Path 6" class="cls-5" d="M24.752,49.051a28.816,28.816,0,0,1-1.12-8.016,29.3,29.3,0,1,1,57.488,8.016h5.9a35.014,35.014,0,1,0-68.218,0Z" transform="translate(329.82 134.373)"/>
    <g id="Group_1" data-name="Group 1" transform="translate(371.724 147.268)">
      <path id="Path_7" data-name="Path 7" class="cls-6" d="M79.346,35.7H78.7l.345-9.7h0Z" transform="translate(-76.502 -24.276)"/>
      <path id="Path_8" data-name="Path 8" class="cls-6" d="M108.446,35.7H107.8l.3-9.7h0Z" transform="translate(-93.062 -24.276)"/>
      <path id="Path_9" data-name="Path 9" class="cls-6" d="M93.846,36.7H93.2L93.545,22h0Z" transform="translate(-84.754 -22)"/>
      <path id="Path_10" data-name="Path 10" class="cls-7" d="M73.6,84.519c.56,3.06,2.887,5.387,5.688,5.387a5.166,5.166,0,0,0,2.758-.819c-.56-3.06-2.887-5.387-5.688-5.387A5.166,5.166,0,0,0,73.6,84.519Z" transform="translate(-73.6 -57.111)"/>
      <path id="Path_11" data-name="Path 11" class="cls-7" d="M103.246,84.519c-.56,3.06-2.887,5.387-5.688,5.387a5.166,5.166,0,0,1-2.758-.819c.56-3.06,2.887-5.387,5.688-5.387A5.166,5.166,0,0,1,103.246,84.519Z" transform="translate(-85.664 -57.111)"/>
      <path id="Path_12" data-name="Path 12" class="cls-7" d="M74.8,70.876c.517,2.887,2.715,5.042,5.344,5.042a4.56,4.56,0,0,0,2.586-.776c-.517-2.887-2.715-5.042-5.344-5.042A5.483,5.483,0,0,0,74.8,70.876Z" transform="translate(-74.283 -49.372)"/>
      <path id="Path_13" data-name="Path 13" class="cls-7" d="M102.729,70.876c-.517,2.887-2.715,5.042-5.344,5.042a4.56,4.56,0,0,1-2.586-.776c.517-2.887,2.715-5.042,5.344-5.042A5.483,5.483,0,0,1,102.729,70.876Z" transform="translate(-85.664 -49.372)"/>
      <path id="Path_14" data-name="Path 14" class="cls-7" d="M76.6,58.59a5.176,5.176,0,0,0,4.827,4.568,4.6,4.6,0,0,0,2.37-.69,5.183,5.183,0,0,0-4.87-4.568A4.568,4.568,0,0,0,76.6,58.59Z" transform="translate(-75.307 -42.429)"/>
      <path id="Path_15" data-name="Path 15" class="cls-7" d="M101.9,58.59a5.176,5.176,0,0,1-4.827,4.568,4.6,4.6,0,0,1-2.37-.69A5.182,5.182,0,0,1,99.57,57.9,4.568,4.568,0,0,1,101.9,58.59Z" transform="translate(-85.607 -42.429)"/>
      <path id="Path_16" data-name="Path 16" class="cls-7" d="M78.7,47.346a4.579,4.579,0,0,0,4.266,4.008,3.865,3.865,0,0,0,2.069-.6A4.622,4.622,0,0,0,80.769,46.7,4.327,4.327,0,0,0,78.7,47.346Z" transform="translate(-76.502 -36.056)"/>
      <path id="Path_17" data-name="Path 17" class="cls-7" d="M100.935,47.346a4.579,4.579,0,0,1-4.266,4.008,3.865,3.865,0,0,1-2.069-.6A4.622,4.622,0,0,1,98.866,46.7,4.327,4.327,0,0,1,100.935,47.346Z" transform="translate(-85.55 -36.056)"/>
    </g>
    <path id="Path_18" data-name="Path 18" class="cls-8" d="M81.017,113.152c0,1.767-5.818,6.852-5.818,6.852H5.818S0,114.919,0,113.152H0c0-1.767,5.818-6.852,5.818-6.852H75.2s5.818,5.085,5.818,6.852Z" transform="translate(339.915 77.296)"/>
    <g id="Group_2" data-name="Group 2" transform="translate(380.17 160.972)">
      <rect id="Rectangle_1" data-name="Rectangle 1" class="cls-6" width="0.646" height="20.728"/>
      <rect id="Rectangle_2" data-name="Rectangle 2" class="cls-6" width="0.646" height="4.223" transform="translate(0 38.225)"/>
    </g>
    <text id="FARM_HUB" data-name="FARM HUB" class="cls-9" transform="translate(379.161 193.255)"><tspan x="-20.503" y="0">FARM HUB</tspan></text>
    <path id="Path_19" data-name="Path 19" class="cls-10" d="M19.509,43.051a30.5,30.5,0,0,1-1.077-8.016,29.3,29.3,0,1,1,57.488,8.016h5.9a35.014,35.014,0,1,0-68.218,0Z" transform="translate(332.78 137.787)"/>
    <path id="Path_20" data-name="Path 20" class="cls-11" d="M75.767,144.5a29.586,29.586,0,0,1-10.9,2.112,28.736,28.736,0,0,1-10.9-2.112H42.8a34.957,34.957,0,0,0,44.129,0Z" transform="translate(315.651 55.558)"/>
  </g>
</svg>
